<svg viewBox="0 0 96 96" xmlns="http://www.w3.org/2000/svg" xmlns:xlink="http://www.w3.org/1999/xlink" id="Icons_Calculator_M" overflow="hidden"><g id="Icons"><path d="M72 8 24 8C21.7936 8.00659 20.0066 9.7936 20 12L20 84C20.0066 86.2064 21.7936 87.9934 24 88L72 88C74.2064 87.9934 75.9934 86.2064 76 84L76 12C75.9934 9.7936 74.2064 8.00659 72 8ZM74 84C74 85.1046 73.1046 86 72 86L24 86C22.8954 86 22 85.1046 22 84L22 12C22 10.8954 22.8954 10 24 10L72 10C73.1046 10 74 10.8954 74 12Z"/><path d="M30 35 66 35 66 17 30 17ZM32 19 64 19 64 33 32 33Z"/><rect x="31" y="42" width="4" height="4"/><rect x="41" y="42" width="4" height="4"/><rect x="51" y="42" width="4" height="4"/><rect x="61" y="42" width="4" height="4"/><rect x="31" y="52" width="4" height="4"/><rect x="41" y="52" width="4" height="4"/><rect x="51" y="52" width="4" height="4"/><rect x="61" y="52" width="4" height="4"/><rect x="31" y="62" width="4" height="4"/><rect x="41" y="62" width="4" height="4"/><rect x="51" y="62" width="4" height="4"/><rect x="61" y="62" width="4" height="4"/><rect x="31" y="72" width="14" height="4"/><rect x="51" y="72" width="4" height="4"/><rect x="61" y="72" width="4" height="4"/></g></svg>