<?xml version="1.0" encoding="UTF-8"?><svg xmlns="http://www.w3.org/2000/svg" xmlns:xlink="http://www.w3.org/1999/xlink" contentScriptType="text/ecmascript" fill="#000000" width="305.6" zoomAndPan="magnify" contentStyleType="text/css" viewBox="-5.5 0.0 305.6 500.0" height="500" preserveAspectRatio="xMidYMid meet" version="1"><defs><clipPath id="a"><path d="M 16 0 L 300.109375 0 L 300.109375 500 L 16 500 Z M 16 0"/></clipPath></defs><g><g id="change1_1"><path fill="#f46a61" d="M 214.9375 317.4375 C 206.613281 309.265625 199.777344 313.8125 190.085938 309.3125 C 180.109375 304.679688 178.945312 298.316406 174.996094 311.605469 C 173.894531 315.320312 174.503906 319.402344 172.5 322.933594 C 171.214844 325.199219 167.738281 323.496094 166.335938 326.300781 C 163.347656 332.261719 168.542969 341.1875 158.230469 339.382812 L 168.714844 363.089844 C 180.636719 357.867188 192.535156 352.566406 204.285156 346.96875 C 219.25 339.839844 232.6875 334.859375 214.9375 317.4375 Z M 144.246094 323.105469 C 143.269531 321.835938 120.777344 323.101562 125.894531 306.4375 C 127.046875 302.683594 151.949219 296.082031 154.566406 295.070312 C 169.917969 289.117188 187.511719 284.554688 201.898438 276.441406 C 203.988281 275.265625 215.839844 272.410156 216.691406 269.777344 C 217.179688 268.269531 215.722656 255.054688 211.847656 256.34375 C 194.148438 262.246094 176.984375 270.925781 159.789062 278.132812 C 152.582031 281.152344 114.59375 289.921875 110.378906 295.179688 C 104.660156 302.304688 116.902344 322.046875 106.386719 333.078125 C 101.375 338.339844 82.753906 345.914062 75.796875 346.421875 C 49.601562 348.320312 42.550781 312.710938 43.6875 290.191406 C 44.679688 270.480469 62.253906 248.398438 75.484375 238.28125 C 93.5 224.511719 100.273438 232.316406 96.90625 209.078125 C 94.703125 193.886719 89.242188 176.269531 84.222656 161.777344 C 82.257812 156.105469 77.027344 137.449219 71.792969 134.691406 C 55.039062 125.871094 60.023438 149.4375 63.417969 155.59375 C 48.359375 161.933594 14.671875 169.179688 4.242188 181.570312 C -5.53125 193.1875 4.324219 203.210938 6.648438 219.105469 C 11.125 249.761719 5.769531 282.308594 6.945312 313.253906 C 8.203125 346.347656 27.71875 420.835938 71.996094 421.726562 C 85.382812 421.996094 96.171875 408.113281 108.78125 404.9375 C 116.003906 403.121094 112.6875 414.859375 117.726562 413.898438 C 124.652344 412.574219 127.402344 401.332031 137.507812 400.902344 C 149.386719 400.402344 173.820312 438.664062 178.203125 426.171875 C 181.09375 417.933594 164.636719 399.171875 161.742188 390.402344 C 155.125 370.367188 157.910156 340.855469 144.246094 323.105469 Z M 116.609375 286.445312 C 116.609375 286.445312 114.777344 283.652344 116.609375 282.5 C 118.445312 281.347656 120.839844 279.660156 121.726562 279.75 C 122.613281 279.839844 123.730469 282.457031 123.730469 282.457031 C 123.730469 282.457031 125.921875 286.398438 116.609375 286.445312"/></g><g id="change2_1"><path fill="#f6b737" d="M 104.613281 363.089844 C 104.613281 404.183594 168.714844 404.183594 168.714844 363.089844 C 168.714844 321.582031 104.613281 322.226562 104.613281 363.089844 Z M 179.992188 200.761719 L 159.640625 211.113281 C 159.640625 211.113281 167.917969 228.59375 169.601562 228.769531 C 170.347656 228.851562 171.179688 228.847656 171.941406 228.953125 C 175.050781 226.894531 181.023438 223.277344 187.953125 220.738281 C 188.039062 220.289062 188.199219 219.921875 188.488281 219.730469 C 189.550781 219.019531 179.992188 200.761719 179.992188 200.761719 Z M 160.441406 240.824219 C 156.777344 232.449219 148.847656 217.140625 148.847656 217.140625 L 132.960938 225.109375 C 132.960938 225.109375 141.269531 241.347656 145.648438 249.070312 C 152.246094 246.296875 157.777344 242.695312 160.441406 240.824219 Z M 107.894531 196.234375 C 107.894531 241.210938 38.03125 241.09375 38.03125 196.234375 C 38.03125 151.425781 107.894531 150.976562 107.894531 196.234375"/></g><g id="change3_1" clip-path="url(#a)"><path fill="#96cf8f" d="M 56.089844 91.519531 C 57.566406 94.25 60.273438 97.6875 60.957031 100.753906 C 61.285156 102.226562 59.839844 104.058594 60.164062 105.265625 C 60.683594 107.199219 62.429688 109.332031 63.042969 111.457031 C 63.84375 114.230469 65.289062 115.019531 65.484375 117.632812 C 65.59375 119.09375 62.957031 121.085938 63.183594 123.402344 C 63.515625 126.808594 68.566406 131.339844 70.78125 133.8125 L 106.476562 206.113281 C 108.152344 213.941406 104.90625 234.695312 115.433594 234.664062 C 123.460938 234.644531 136.476562 225.121094 143.53125 221.722656 C 153.148438 217.089844 203.46875 199.746094 198.152344 186.523438 C 196.785156 183.136719 188.9375 176.28125 185.929688 174.195312 C 183.992188 172.847656 182.523438 172.171875 181.191406 171.429688 C 180.519531 171.058594 179.011719 173.085938 178.023438 172.554688 C 173.703125 170.226562 169.46875 159.183594 167.03125 155.179688 C 155.164062 135.6875 143.707031 115.953125 131.804688 96.488281 C 128.101562 90.433594 124.390625 88.128906 119.75 83.710938 C 113.472656 77.734375 109.808594 76.746094 104.929688 68.453125 C 98.917969 58.226562 93.078125 47.894531 87.277344 37.542969 C 84.585938 32.746094 74.9375 21.007812 75.207031 15.304688 C 75.492188 9.292969 82.855469 10.648438 75.871094 3.210938 C 72.957031 0.105469 73.429688 0.0078125 70.109375 0 C 63.480469 -0.0195312 51.445312 9.222656 45.644531 12.175781 C 38.804688 15.65625 22.582031 20.640625 18.148438 27.148438 C 15.753906 30.65625 16.296875 29.789062 18.671875 34.796875 C 19.714844 36.996094 21.03125 39.492188 22.910156 41.050781 C 24.234375 42.140625 25.328125 39.539062 26.09375 40.203125 C 31.390625 44.804688 34.851562 53.554688 38.402344 59.777344 C 44.402344 70.296875 50.328125 80.867188 56.089844 91.519531 Z M 287.875 464.695312 C 280.296875 454.199219 276.269531 450.457031 264.363281 450.929688 C 252.511719 451.394531 240.550781 453.140625 228.699219 453.964844 C 218.277344 454.691406 200.90625 458.984375 190.621094 456.011719 C 179.59375 452.816406 173.453125 439.859375 169.429688 429.964844 C 164.839844 418.6875 159.78125 406.804688 147.25 402.363281 C 136.695312 398.621094 119.734375 401.386719 116.761719 413.980469 C 113.09375 423 109.675781 435.421875 103.109375 442.691406 C 94.152344 452.609375 76.480469 455.082031 64.371094 460.054688 C 51.777344 465.226562 34.328125 474.578125 30.660156 489.1875 C 28.171875 499.09375 29.007812 495.648438 34.363281 497.855469 C 46.09375 502.683594 70.035156 497.855469 82.566406 497.855469 C 107.816406 497.855469 133.070312 497.855469 158.324219 497.855469 C 201.917969 497.855469 245.789062 499.3125 289.359375 497.855469 C 290.742188 497.808594 297.378906 498.828125 298.5625 497.855469 C 304.664062 492.824219 290.921875 468.914062 287.875 464.695312 Z M 131.671875 285.949219 C 131.796875 286.09375 131.914062 286.242188 132.039062 286.390625 C 124.828125 288.550781 118.007812 290.808594 113.914062 292.816406 C 113.546875 291.832031 113.308594 290.769531 113.355469 289.746094 C 113.476562 287.21875 115.855469 286.894531 117.703125 285.871094 C 119.945312 284.636719 122.066406 283.070312 124.460938 282.140625 C 125.269531 281.824219 126.21875 281.523438 127.066406 281.851562 C 127.273438 281.929688 127.472656 282.035156 127.667969 282.15625 C 130.609375 279.847656 134.066406 277.90625 137.738281 277.113281 C 142.804688 276.027344 148.039062 275.835938 153.144531 274.96875 C 157.894531 274.160156 162.625 272.933594 167.203125 271.441406 C 170.796875 270.269531 175.171875 268.933594 177.847656 266.097656 C 178.527344 265.378906 179.175781 264.601562 179.75 263.792969 C 179.796875 263.726562 180.226562 262.917969 180.328125 262.917969 C 180.507812 262.914062 180.652344 263.425781 180.664062 263.574219 C 180.777344 265.011719 178.824219 266.878906 177.933594 267.738281 C 175.320312 270.261719 171.976562 271.964844 168.578125 273.164062 C 163.195312 275.070312 157.402344 275.867188 151.863281 277.21875 C 147.496094 278.28125 143.113281 279.394531 138.867188 280.878906 C 135.996094 281.882812 133.363281 283.300781 131.671875 285.949219"/></g><g id="change4_1"><path fill="#2e2e30" d="M 147.605469 401.34375 C 137.238281 396.84375 123.179688 400.105469 117.191406 410.121094 C 116.65625 411.011719 117.960938 411.710938 118.546875 410.917969 C 125.871094 401.019531 140.984375 400.308594 150.578125 406.667969 C 155.222656 409.746094 158.792969 414.109375 161.71875 418.804688 C 164.242188 422.847656 165.859375 427.527344 168.65625 431.359375 C 169.484375 432.492188 171.359375 431.859375 170.996094 430.371094 C 168.214844 418.898438 158.53125 406.089844 147.605469 401.34375 Z M 63.515625 22.640625 C 66.929688 20.859375 70.964844 19.386719 73.394531 16.332031 C 73.714844 15.929688 73.558594 15.148438 72.921875 15.195312 C 69.457031 15.445312 66.824219 17.273438 63.757812 18.894531 C 59.738281 21.023438 55.761719 23.238281 51.769531 25.421875 C 44.582031 29.34375 36.027344 32.628906 29.910156 38.140625 C 29.578125 38.4375 29.929688 38.949219 30.324219 38.855469 C 38.050781 36.976562 45.261719 31.984375 52.285156 28.382812 C 56.027344 26.460938 59.785156 24.582031 63.515625 22.640625 Z M 64.058594 100.054688 C 71.460938 99.199219 79.230469 95.222656 86.023438 92.214844 C 89.835938 90.523438 93.628906 88.796875 97.390625 86.988281 C 101.160156 85.175781 105.539062 83.71875 108.195312 80.382812 C 108.582031 79.894531 108.378906 79.050781 107.652344 79.066406 C 104.117188 79.152344 101.425781 80.816406 98.273438 82.328125 C 94.207031 84.28125 90.121094 86.210938 86.039062 88.132812 C 78.839844 91.515625 70.0625 94.546875 63.828125 99.503906 C 63.617188 99.671875 63.785156 100.085938 64.058594 100.054688 Z M 69.046875 113.167969 C 68.570312 113.589844 69.089844 114.28125 69.628906 114.167969 C 78.378906 112.324219 87.054688 106.550781 95.035156 102.601562 C 103.082031 98.621094 112.875 95.351562 119.867188 89.707031 C 120.914062 88.863281 119.769531 87.273438 118.621094 87.566406 C 109.917969 89.773438 101.394531 95.734375 93.394531 99.792969 C 85.480469 103.808594 75.738281 107.289062 69.046875 113.167969 Z M 150.734375 204.296875 C 164.640625 197.535156 179.339844 191.433594 192.722656 183.726562 C 194.390625 182.765625 192.925781 180.507812 191.257812 181.21875 C 176.976562 187.285156 163.375 195.265625 149.203125 201.675781 C 142.105469 204.886719 135.007812 208.097656 127.9375 211.367188 C 122.339844 213.960938 115.652344 216.035156 111.132812 220.367188 C 110.726562 220.753906 111.144531 221.46875 111.679688 221.308594 C 118.277344 219.335938 124.628906 215.84375 131.023438 213.238281 C 137.695312 210.523438 144.257812 207.445312 150.734375 204.296875 Z M 113.695312 206.863281 C 119.023438 206.125 124.066406 202.824219 128.855469 200.507812 C 134.359375 197.847656 139.875 195.210938 145.402344 192.59375 C 156.304688 187.4375 168.117188 182.921875 178.191406 176.316406 C 178.777344 175.9375 178.421875 174.960938 177.707031 175.160156 C 166.34375 178.359375 155.433594 184.34375 144.785156 189.410156 C 139.265625 192.035156 133.757812 194.6875 128.261719 197.359375 C 123.1875 199.824219 117.152344 201.851562 113.113281 205.863281 C 112.648438 206.324219 113.144531 206.9375 113.695312 206.863281 Z M 181.8125 204.625 C 182.242188 204.246094 181.878906 203.566406 181.363281 203.546875 C 177.769531 203.40625 173.941406 205.496094 170.6875 206.921875 C 166.976562 208.550781 162.894531 210.230469 159.886719 212.980469 C 159.410156 213.410156 159.914062 214.140625 160.484375 214.007812 C 164.421875 213.085938 168.1875 210.917969 171.886719 209.320312 C 175.121094 207.925781 179.136719 206.984375 181.8125 204.625 Z M 150.738281 218.621094 C 146.894531 218.355469 142.957031 220.558594 139.5 222.039062 C 136.726562 223.226562 132.070312 224.328125 130.949219 227.371094 C 130.894531 227.519531 131.011719 227.6875 131.152344 227.726562 C 134.121094 228.617188 137.578125 225.90625 140.253906 224.722656 C 143.757812 223.164062 148.234375 222.125 151.074219 219.4375 C 151.398438 219.132812 151.132812 218.648438 150.738281 218.621094 Z M 98.46875 219.800781 C 87.703125 225.101562 74.757812 230.789062 62.378906 227.566406 C 56.855469 226.128906 50.019531 222.683594 46.058594 218.515625 C 41.269531 213.472656 40.925781 206.671875 39.125 200.355469 C 38.871094 199.453125 37.542969 199.648438 37.515625 200.570312 C 37.074219 215.234375 46.507812 225.335938 59.90625 229.808594 C 66.210938 231.914062 73.542969 231.167969 80 230.230469 C 86.929688 229.222656 95.015625 226.972656 99.773438 221.492188 C 100.578125 220.5625 99.582031 219.253906 98.46875 219.800781 Z M 79.339844 203.757812 C 84.367188 205.816406 85.449219 195.640625 84.875 192.773438 C 83.847656 187.644531 77.625 182.304688 72.316406 184.519531 C 71.882812 184.699219 71.8125 185.316406 72.316406 185.476562 C 74.183594 186.054688 76.105469 185.953125 77.839844 186.992188 C 79.824219 188.1875 81.75 190.15625 82.625 192.277344 C 83.78125 195.09375 83.675781 198.539062 81.25 200.648438 C 80.261719 201.503906 79.542969 201.542969 78.914062 202.703125 C 78.671875 203.148438 78.910156 203.582031 79.339844 203.757812 Z M 64.957031 187.902344 C 60.617188 190.933594 58.597656 196.660156 60.8125 201.667969 C 62.628906 205.777344 68.796875 210.496094 73.246094 207.566406 C 73.804688 207.195312 73.855469 206.359375 73.246094 206.003906 C 69.824219 203.988281 65.90625 204.550781 63.707031 200.445312 C 61.632812 196.574219 63.835938 192.160156 65.753906 188.695312 C 66.015625 188.222656 65.457031 187.554688 64.957031 187.902344 Z M 155.136719 376.0625 C 155.027344 376.632812 155.535156 377.414062 156.210938 377.136719 C 162.570312 374.476562 161.859375 365.003906 161.40625 359.324219 C 160.789062 351.488281 157.667969 344.378906 150.085938 341.019531 C 149.539062 340.777344 149.101562 341.355469 149.464844 341.824219 C 151.207031 344.074219 153.492188 345.773438 155.226562 348.046875 C 157.996094 351.664062 158.65625 355.6875 158.792969 360.144531 C 158.882812 363.019531 158.707031 365.972656 157.867188 368.738281 C 157.097656 371.269531 155.632812 373.457031 155.136719 376.0625 Z M 121.375 381.003906 C 128.621094 387.3125 145.292969 389.199219 151.234375 380.027344 C 151.550781 379.546875 151.136719 378.894531 150.585938 378.898438 C 146.746094 378.910156 143.304688 381.058594 139.523438 381.71875 C 133.984375 382.691406 128.160156 381.9375 123.660156 378.394531 C 114.980469 371.550781 113.832031 358.96875 116.46875 348.984375 C 116.675781 348.199219 115.527344 347.671875 115.125 348.421875 C 109.808594 358.363281 112.933594 373.660156 121.375 381.003906 Z M 212.363281 316.8125 C 204.316406 318.769531 196.371094 322.835938 188.734375 326.046875 C 181.527344 329.078125 173.867188 331.621094 167.035156 335.449219 C 166.195312 335.921875 166.769531 337.203125 167.679688 336.980469 C 175.273438 335.113281 182.597656 331.566406 189.78125 328.527344 C 197.316406 325.339844 205.90625 322.132812 212.625 317.4375 C 212.9375 317.222656 212.753906 316.71875 212.363281 316.8125 Z M 175.769531 321.726562 C 178.992188 321.003906 182.078125 319.386719 185.078125 318.042969 C 187.730469 316.855469 190.621094 316.023438 192.355469 313.59375 C 192.488281 313.410156 192.308594 313.191406 192.121094 313.179688 C 189.285156 312.996094 186.96875 314.539062 184.441406 315.671875 C 181.320312 317.066406 177.941406 318.183594 175.046875 320.011719 C 174.136719 320.582031 174.722656 321.964844 175.769531 321.726562 Z M 136.664062 358.988281 C 134.398438 358.988281 132.5625 360.824219 132.5625 363.089844 C 132.5625 365.355469 134.398438 367.191406 136.664062 367.191406 C 138.929688 367.191406 140.765625 365.355469 140.765625 363.089844 C 140.765625 360.824219 138.929688 358.988281 136.664062 358.988281 Z M 79.035156 196.234375 C 79.035156 192.878906 76.316406 190.160156 72.964844 190.160156 C 69.609375 190.160156 66.890625 192.878906 66.890625 196.234375 C 66.890625 199.589844 69.609375 202.308594 72.964844 202.308594 C 76.316406 202.308594 79.035156 199.589844 79.035156 196.234375 Z M 174.214844 230.277344 C 175.011719 231.875 178.113281 231.253906 181.839844 228.769531 C 185.5625 226.289062 188.042969 225.578125 188.042969 224.515625 C 188.042969 223.742188 187.722656 221.9375 187.953125 220.738281 C 181.023438 223.277344 175.050781 226.894531 171.941406 228.953125 C 172.90625 229.085938 173.769531 229.390625 174.214844 230.277344 Z M 162.242188 246.03125 C 162.375 245.539062 161.632812 243.542969 160.441406 240.824219 C 157.777344 242.695312 152.246094 246.296875 145.648438 249.070312 C 147.015625 251.476562 148.003906 253.0625 148.234375 253.0625 C 149.210938 253.0625 161.710938 248.039062 162.242188 246.03125 Z M 146.90625 423.628906 C 146.90625 428.035156 142.699219 431.609375 137.507812 431.609375 C 132.316406 431.609375 128.109375 428.035156 128.109375 423.628906 C 128.109375 419.222656 132.316406 415.648438 137.507812 415.648438 C 142.699219 415.648438 146.90625 419.222656 146.90625 423.628906"/></g><g id="change5_1"><path fill="#ffffff" d="M 291.171875 489.257812 C 288.40625 480.265625 283.71875 469.578125 277.390625 462.492188 C 273.242188 457.847656 264.410156 454.371094 259.285156 459.339844 C 258.992188 459.625 259.097656 460.269531 259.550781 460.339844 C 262.585938 460.800781 265.75 460.441406 268.695312 461.421875 C 272.949219 462.835938 275.335938 466.421875 277.511719 470.082031 C 281.472656 476.734375 284.324219 483.765625 287.421875 490.835938 C 288.359375 492.976562 291.84375 491.453125 291.171875 489.257812 Z M 170.757812 215.023438 C 170.160156 214.03125 168.3125 214.363281 168.433594 215.652344 C 168.574219 217.203125 169.097656 218.652344 169.574219 220.128906 C 170.027344 221.527344 170.222656 222.542969 171.679688 223.109375 C 172 223.234375 172.375 223.019531 172.546875 222.753906 C 173.367188 221.476562 172.820312 220.414062 172.382812 219.09375 C 171.921875 217.714844 171.511719 216.273438 170.757812 215.023438 Z M 141.320312 230.226562 C 140.960938 230.140625 140.636719 230.289062 140.433594 230.589844 C 139.148438 232.480469 141.015625 235.375 141.800781 237.226562 C 142.808594 239.601562 143.617188 242.742188 145.894531 244.179688 C 146.648438 244.65625 147.433594 244.015625 147.515625 243.25 C 147.78125 240.753906 145.929688 238.121094 144.964844 235.890625 C 144.164062 234.058594 143.503906 230.738281 141.320312 230.226562 Z M 212.730469 267.308594 C 212.761719 266.316406 212.417969 265.308594 212.175781 264.351562 C 211.9375 263.40625 211.785156 262.449219 211.398438 261.554688 C 210.972656 260.585938 209.339844 260.859375 209.136719 261.851562 C 208.773438 263.628906 209.042969 266.476562 209.960938 268.058594 C 210.71875 269.359375 212.6875 268.761719 212.730469 267.308594 Z M 213.488281 322.628906 C 212.941406 322.660156 212.703125 322.730469 212.316406 323.113281 C 211.925781 323.503906 211.699219 324.179688 211.894531 324.722656 C 213.238281 328.480469 214.59375 331.863281 211.632812 335.1875 C 210.546875 336.410156 211.898438 338.195312 213.371094 337.441406 C 218.566406 334.785156 217.027344 327.5625 214.914062 323.445312 C 214.664062 322.960938 214.035156 322.597656 213.488281 322.628906 Z M 122.582031 342.355469 C 121.558594 343.140625 122.082031 344.957031 123.515625 344.570312 C 126.140625 343.863281 128.605469 342.925781 131.351562 342.773438 C 133.578125 342.652344 135.960938 343.277344 138.101562 342.636719 C 138.808594 342.429688 139.144531 341.457031 138.554688 340.925781 C 134.75 337.496094 126.234375 339.546875 122.582031 342.355469 Z M 44.382812 192.863281 C 44.65625 193.722656 46.003906 193.824219 46.226562 192.863281 C 47.589844 186.996094 48.265625 182.113281 53.082031 177.800781 C 55.257812 175.851562 57.71875 174.363281 60.398438 173.222656 C 62.644531 172.261719 65.050781 171.828125 67.105469 170.492188 C 67.96875 169.929688 67.546875 168.792969 66.613281 168.679688 C 55.992188 167.367188 40.910156 181.941406 44.382812 192.863281 Z M 116.5625 224.824219 C 115.558594 223.246094 113.234375 224.277344 113.601562 226.074219 C 113.839844 227.246094 114.316406 228.367188 114.832031 229.449219 C 115.316406 230.464844 115.96875 231.675781 117.042969 232.140625 C 118.09375 232.59375 119.167969 232.0625 119.257812 230.867188 C 119.34375 229.746094 118.695312 228.695312 118.183594 227.730469 C 117.664062 226.753906 117.160156 225.757812 116.5625 224.824219 Z M 69.484375 109.703125 C 70.664062 110.097656 71.429688 108.917969 71.289062 107.902344 C 71.148438 106.90625 70.425781 106.160156 69.925781 105.324219 C 69.4375 104.5 69.121094 103.597656 68.625 102.78125 C 67.878906 101.542969 65.710938 101.992188 65.792969 103.546875 C 65.90625 105.695312 67.296875 108.980469 69.484375 109.703125 Z M 25.480469 36.148438 C 26.925781 37.4375 28.757812 35.84375 28.035156 34.179688 C 27.476562 32.894531 26.53125 31.710938 25.875 30.453125 C 25.285156 29.328125 24.882812 27.863281 23.875 27.050781 C 23.484375 26.734375 22.730469 26.652344 22.480469 27.230469 C 21.847656 28.683594 22.355469 30.285156 22.875 31.71875 C 23.429688 33.238281 24.253906 35.0625 25.480469 36.148438 Z M 51.316406 70.3125 C 54.527344 76.519531 57.289062 85.0625 62.984375 89.371094 C 63.492188 89.757812 64.269531 89.238281 64.246094 88.648438 C 63.941406 81.746094 58.714844 74.988281 55.535156 69.054688 C 51.609375 61.734375 47.976562 54.046875 43.246094 47.203125 C 42.367188 45.933594 39.925781 46.675781 40.558594 48.335938 C 43.460938 55.933594 47.585938 63.101562 51.316406 70.3125 Z M 107.4375 191.878906 C 107.820312 192.417969 108.921875 192.320312 108.835938 191.5 C 107.785156 181.496094 102.695312 171.796875 98.683594 162.671875 C 94.171875 152.398438 89.769531 141.609375 83.53125 132.242188 C 82.949219 131.371094 81.386719 131.890625 81.75 132.992188 C 85.1875 143.363281 90.28125 153.246094 94.507812 163.3125 C 98.460938 172.722656 101.472656 183.519531 107.4375 191.878906 Z M 113.085938 440.652344 C 109.726562 443.003906 107.796875 447.101562 104.800781 449.925781 C 101.542969 452.996094 97.15625 455.226562 94.332031 458.679688 C 93.519531 459.671875 94.242188 461.433594 95.675781 460.992188 C 100.097656 459.636719 104.375 455.964844 107.757812 452.882812 C 110.816406 450.09375 115.070312 446.085938 114.703125 441.582031 C 114.644531 440.84375 113.8125 440.144531 113.085938 440.652344 Z M 78.644531 409.234375 C 73.964844 408.753906 69.457031 409.699219 64.757812 408.835938 C 60.730469 408.09375 56.90625 406.570312 53.414062 404.449219 C 46.339844 400.148438 40.839844 393.535156 36.617188 386.503906 C 27.820312 371.851562 24.542969 355.210938 19.46875 339.109375 C 19.148438 338.085938 17.332031 338.199219 17.488281 339.378906 C 20.019531 358.511719 25.121094 378.808594 36.722656 394.605469 C 41.746094 401.441406 48.121094 407.359375 55.984375 410.738281 C 62.785156 413.660156 73.019531 415.773438 79.164062 410.488281 C 79.695312 410.027344 79.214844 409.292969 78.644531 409.234375 Z M 12.375 186.207031 C 7.347656 190.839844 11.636719 199.175781 10.277344 205.191406 C 10.15625 205.730469 9.332031 206 8.964844 205.539062 C 5.253906 200.871094 3.355469 190.289062 7.042969 185.109375 C 11.433594 178.945312 22.496094 174.644531 29.804688 174.605469 C 30.859375 174.597656 31.28125 176.085938 30.347656 176.609375 C 24.515625 179.859375 17.386719 181.597656 12.375 186.207031"/></g></g></svg>