<svg viewBox="0 0 96 96" xmlns="http://www.w3.org/2000/svg" xmlns:xlink="http://www.w3.org/1999/xlink" id="Icons_Frog_M" overflow="hidden"><style>
.MsftOfcThm_Background1_Fill_v2 {
 fill:#FFFFFF; 
}
.MsftOfcThm_Background1_Stroke_v2 {
 stroke:#FFFFFF; 
}
</style>
<g id="Icons"><path d="M71.158 45.846C78.375 43.871 84.706 38.659 84.706 34.691 84.706 29.419 73.358 25.703 71.985 25.276L71.938 25.265C71.4308 22.4332 69.3694 20.1299 66.611 19.313 62.7184 18.0981 58.4805 19.425 55.976 22.643L54.36 23.016C31.874 26.948 14.338 43.53 11.716 63.343 11.2589 66.9042 13.2241 70.3353 16.527 71.743L21.007 73.636C19.8105 75.2045 20.1121 77.446 21.6806 78.6425 21.9926 78.8805 22.3418 79.0655 22.714 79.19 27.29 80.3922 32.0017 81.0005 36.733 81L51.751 81C52.1246 81.0053 52.4715 80.8073 52.657 80.483 52.8922 80.0567 52.7862 79.5231 52.406 79.219L48.382 76 52.406 72.781C52.7862 72.4769 52.8922 71.9433 52.657 71.517 52.4712 71.193 52.1244 70.9951 51.751 71L42.351 71C42.339 71 42.336 70.993 42.344 70.985 47.0302 65.5456 46.4196 57.3371 40.9802 52.6509 38.6373 50.6324 35.6515 49.5152 32.559 49.5 31.4123 49.4779 30.2686 49.6255 29.165 49.938 28.6337 50.0891 28.3255 50.6422 28.4765 51.1735 28.6276 51.7048 29.1807 52.0131 29.712 51.862 30.6292 51.5988 31.5811 51.4767 32.535 51.5 35.9315 51.5034 39.1336 53.0854 41.2 55.781 44.3142 59.8906 44.2538 65.5865 41.053 69.629 40.5777 70.2447 39.9849 70.76 39.309 71.145 38.8368 71.4314 38.6862 72.0464 38.9726 72.5186 39.1524 72.8152 39.4732 72.9974 39.82 73L48.9 73C48.916 73 48.919 73.008 48.906 73.018L46.154 75.218C45.7229 75.5633 45.6534 76.1926 45.9987 76.6237 46.0446 76.681 46.0967 76.7331 46.154 76.779L48.906 78.979C48.919 78.989 48.916 78.997 48.9 78.997L36.778 78.997C32.2341 79.0047 27.7082 78.427 23.312 77.278 22.4925 76.9749 22.0739 76.065 22.3769 75.2455 22.4319 75.097 22.5087 74.9576 22.605 74.832L23.386 73.832C23.386 73.826 23.386 73.817 23.396 73.81 23.406 73.803 23.408 73.802 23.412 73.796L25.921 70.27C26.2535 69.829 26.1656 69.202 25.7247 68.8695 25.2837 68.5369 24.6567 68.6248 24.3242 69.0658 24.313 69.0806 24.3023 69.0956 24.292 69.111L22.248 71.99 17.308 69.9C14.8302 68.8448 13.3555 66.2713 13.698 63.6 16.164 44.982 33.355 28.766 54.649 25 54.4996 25.387 54.3727 25.7823 54.269 26.184 54.1314 26.7189 54.4535 27.264 54.9884 27.4016 55.5232 27.5392 56.0684 27.2171 56.206 26.6822 56.2084 26.6725 56.2108 26.6628 56.213 26.653 56.4405 25.7629 56.8168 24.9177 57.326 24.153 59.2895 21.4235 62.7704 20.2434 65.989 21.216 68.2375 21.8254 69.8533 23.792 70.015 26.116 70.0291 26.5668 70.3454 26.9513 70.785 27.052L71.465 27.203C75.811 28.568 82.706 31.803 82.706 34.689 82.706 37.372 77.319 42.084 70.669 43.905 66.4321 44.8797 62.844 47.6799 60.869 51.553 60.7994 51.6917 60.7634 51.8448 60.764 52L60.764 61.22C60.764 61.3901 60.8074 61.5574 60.89 61.706L64.66 68.486C64.8364 68.8033 65.171 69 65.534 69L75.327 69C75.341 69 75.344 69.008 75.334 69.018L74.058 70.3C73.6676 70.6905 73.6676 71.3235 74.058 71.714L75.333 72.99C75.343 73 75.34 73.007 75.326 73.007L63.714 73.007C62.9961 73.018 62.3301 72.6339 61.98 72.007L56.965 62.983C56.798 62.6824 56.7109 62.3439 56.712 62L56.712 58.512C56.7124 57.9597 56.265 57.5117 55.7127 57.5113 55.3948 57.511 55.0956 57.662 54.907 57.918 52.7088 60.8969 50.1474 63.5898 47.282 65.934 46.8599 66.2902 46.8064 66.9211 47.1626 67.3432 47.511 67.7562 48.1245 67.8176 48.548 67.482 50.7807 65.6561 52.8383 63.626 54.694 61.418 54.704 61.406 54.712 61.409 54.712 61.424L54.712 62C54.7117 62.6779 54.8838 63.3448 55.212 63.938L60.217 72.945C60.9187 74.2117 62.252 74.9983 63.7 75L77.765 75C78.3173 74.9999 78.7649 74.5521 78.7648 73.9998 78.7647 73.7347 78.6594 73.4805 78.472 73.293L76.179 71 78.472 68.707C78.8625 68.3164 78.8624 67.6833 78.4718 67.2928 78.2843 67.1054 78.0301 67.0001 77.765 67L66.121 67 62.763 60.961 62.763 52.248C64.5029 48.9996 67.565 46.6644 71.158 45.846Z" class="MsftOfcThm_Background1_Stroke_v2 MsftOfcThm_Background1_Fill_v2" stroke="#FFFFFF" stroke-width="0.999979" fill="#FFFFFF"/><ellipse cx="64.005" cy="27" rx="1.996" ry="2.003" class="MsftOfcThm_Background1_Stroke_v2 MsftOfcThm_Background1_Fill_v2" stroke="#FFFFFF" stroke-width="0.999979" fill="#FFFFFF" transform="matrix(0.707107 -0.707107 0.707107 0.707107 -0.345 53.166)"/></g></svg>