<svg viewBox="0 0 96 96" xmlns="http://www.w3.org/2000/svg" xmlns:xlink="http://www.w3.org/1999/xlink" id="Icons_PawPrints_M" overflow="hidden"><style>
.MsftOfcThm_Background1_Fill_v2 {
 fill:#FFFFFF; 
}
</style>
<g id="Icons"><path d="M33.554 12.068 33.554 12.068C33.6364 12.0682 33.7187 12.0748 33.8 12.088 34.738 12.24 35.316 13.225 35.577 13.798 36.1657 15.2451 36.3288 16.8303 36.047 18.367 35.537 21.52 33.636 23.638 32.181 23.638 32.0986 23.6384 32.0163 23.6317 31.935 23.618 30.997 23.467 30.419 22.482 30.158 21.908 29.5693 20.4609 29.4062 18.8757 29.688 17.339 30.198 14.186 32.099 12.068 33.554 12.068M33.554 10.068C30.903 10.068 28.359 13.028 27.714 17.019 27.022 21.294 28.769 25.132 31.614 25.593 31.8012 25.6229 31.9904 25.6379 32.18 25.638 34.831 25.638 37.374 22.678 38.02 18.687 38.712 14.412 36.965 10.574 34.12 10.114 33.9329 10.0833 33.7436 10.068 33.554 10.068Z" class="MsftOfcThm_Background1_Fill_v2" fill="#FFFFFF"/><path d="M42.429 25.247 42.429 25.247C42.7311 25.2458 43.0305 25.3042 43.31 25.419 44.074 25.7903 44.6316 26.4841 44.83 27.31 45.1288 28.4855 45.0282 29.727 44.544 30.839 43.78 32.676 42.204 33.958 40.712 33.958 40.4094 33.9594 40.1096 33.9006 39.83 33.785 39.0674 33.415 38.51 32.7237 38.31 31.9 38.0112 30.7242 38.1118 29.4824 38.596 28.37 39.36 26.534 40.936 25.251 42.429 25.251M42.429 23.251C40.181 23.251 37.858 24.937 36.75 27.602 35.365 30.932 36.4 34.529 39.062 35.636 39.585 35.8527 40.1459 35.9635 40.712 35.962 42.96 35.962 45.282 34.276 46.391 31.611 47.776 28.281 46.74 24.684 44.078 23.577 43.5553 23.3603 42.9948 23.2495 42.429 23.251Z" class="MsftOfcThm_Background1_Fill_v2" fill="#FFFFFF"/><path d="M18.368 12.064C19.823 12.064 21.724 14.182 22.234 17.335 22.5158 18.8717 22.3527 20.4569 21.764 21.904 21.503 22.478 20.925 23.463 19.987 23.614 19.9057 23.6272 19.8234 23.6339 19.741 23.634 18.286 23.634 16.385 21.516 15.875 18.364 15.593 16.827 15.7561 15.2414 16.345 13.794 16.606 13.22 17.184 12.235 18.122 12.084 18.2033 12.0708 18.2856 12.0642 18.368 12.064M18.368 10.064C18.1784 10.0641 17.9892 10.0792 17.802 10.109 14.956 10.57 13.209 14.409 13.902 18.683 14.548 22.674 17.091 25.634 19.742 25.634 19.9316 25.6339 20.1208 25.6188 20.308 25.589 23.154 25.128 24.901 21.289 24.208 17.015 23.562 13.024 21.019 10.064 18.368 10.064Z" class="MsftOfcThm_Background1_Fill_v2" fill="#FFFFFF"/><path d="M9.492 25.246 9.492 25.246C10.984 25.246 12.56 26.529 13.324 28.365 13.8082 29.4774 13.9088 30.7192 13.61 31.895 13.4115 32.7206 12.8538 33.414 12.09 33.785 11.8102 33.9001 11.5105 33.9589 11.208 33.958 9.716 33.958 8.14 32.675 7.376 30.838 6.89177 29.726 6.79116 28.4845 7.09 27.309 7.28852 26.4834 7.84618 25.79 8.61 25.419 8.88962 25.3034 9.18944 25.2446 9.492 25.246M9.492 23.246C8.92585 23.2445 8.36503 23.3553 7.842 23.572 5.18 24.679 4.142 28.272 5.53 31.606 6.638 34.271 8.96 35.958 11.208 35.958 11.7743 35.9597 12.3352 35.8485 12.858 35.631 15.52 34.524 16.558 30.931 15.171 27.597 14.062 24.932 11.74 23.246 9.492 23.246Z" class="MsftOfcThm_Background1_Fill_v2" fill="#FFFFFF"/><path d="M25.9 29.419C27.2119 29.4148 28.4578 29.9941 29.3 31L29.317 31.021 29.336 31.042C30.0197 31.8194 30.4931 32.7589 30.711 33.771 31.1816 35.6925 32.0788 37.4835 33.336 39.011L34.059 39.911C34.7394 40.7272 35.5111 41.4626 36.359 42.103 37.146 42.7224 37.7822 43.5122 38.22 44.413 38.908 45.8143 39.0623 47.4182 38.654 48.925 38.5907 49.1751 38.5061 49.4194 38.401 49.655 37.4057 51.8894 34.7875 52.8939 32.5531 51.8986 32.5357 51.8908 32.5183 51.883 32.501 51.875 32.1982 51.7489 31.9059 51.5987 31.627 51.426 30.0863 50.4096 28.2808 49.8685 26.435 49.87L26.304 49.87 25.004 49.911C23.266 49.9959 21.5802 50.5326 20.113 51.468 19.8682 51.6222 19.6098 51.7538 19.341 51.861L19.314 51.872 19.287 51.883C18.7119 52.1323 18.0918 52.2606 17.465 52.26 15.4194 52.2825 13.6295 50.8888 13.15 48.9 12.7502 47.393 12.9178 45.7916 13.621 44.4 14.0437 43.5166 14.6624 42.7412 15.43 42.133 16.2893 41.4864 17.0717 40.7436 17.762 39.919L17.779 39.899 17.795 39.878 18.458 39.041C19.7313 37.4977 20.6377 35.6855 21.109 33.741 21.341 32.7245 21.8236 31.7822 22.513 31 23.3528 29.9983 24.5928 29.4195 25.9 29.419M25.9 27.419C24.3943 27.4192 22.9368 27.9504 21.784 28.919 21.4921 29.1637 21.2224 29.4338 20.978 29.726 20.083 30.7495 19.4572 31.9799 19.157 33.306 18.7579 34.9432 17.9919 36.4682 16.917 37.766L16.227 38.636C15.6354 39.3439 14.9643 39.9814 14.227 40.536 13.2033 41.3373 12.3783 42.3639 11.816 43.536 10.9062 45.3578 10.6928 47.449 11.216 49.417 11.7062 51.2482 12.9543 52.7834 14.647 53.637 16.36 54.4457 18.3381 54.4785 20.077 53.727 20.4602 53.5748 20.8284 53.3873 21.177 53.167 22.3524 52.4159 23.7037 51.985 25.097 51.917L26.367 51.877 26.435 51.877C27.8981 51.8771 29.3287 52.3084 30.548 53.117 30.9242 53.352 31.3188 53.556 31.728 53.727 34.9725 55.1747 38.7763 53.718 40.224 50.4734 40.3761 50.1326 40.4982 49.7791 40.589 49.417 41.1144 47.4511 40.9083 45.3614 40.009 43.536 39.44 42.3656 38.6125 41.3398 37.589 40.536 36.8513 39.9819 36.1801 39.3444 35.589 38.636L34.889 37.766C33.8148 36.4677 33.049 34.9429 32.649 33.306 32.3566 31.9773 31.7302 30.7452 30.829 29.726 29.6089 28.2657 27.8029 27.423 25.9 27.426Z" class="MsftOfcThm_Background1_Fill_v2" fill="#FFFFFF"/><path d="M78.563 45.067 78.563 45.067C78.6457 45.0672 78.7283 45.0738 78.81 45.087 79.747 45.239 80.325 46.224 80.586 46.797 81.1747 48.2441 81.3378 49.8293 81.056 51.366 80.546 54.52 78.645 56.637 77.19 56.637 77.1076 56.6372 77.0254 56.6308 76.944 56.618 76.006 56.466 75.428 55.481 75.167 54.907 74.5783 53.4599 74.4152 51.8747 74.697 50.338 75.207 47.185 77.108 45.067 78.563 45.067M78.563 43.067C75.912 43.067 73.369 46.028 72.723 50.019 72.031 54.293 73.778 58.132 76.623 58.592 76.8101 58.6223 76.9994 58.6374 77.189 58.637 79.84 58.637 82.389 55.677 83.029 51.686 83.721 47.412 81.974 43.573 79.129 43.113 78.9419 43.0823 78.7526 43.0669 78.563 43.067Z" class="MsftOfcThm_Background1_Fill_v2" fill="#FFFFFF"/><path d="M87.434 58.249 87.434 58.249C87.7361 58.2478 88.0355 58.3062 88.315 58.421 89.0786 58.7922 89.6362 59.4855 89.835 60.311 90.1338 61.4868 90.0332 62.7286 89.549 63.841 88.785 65.677 87.209 66.96 85.717 66.96 85.4144 66.9614 85.1146 66.9026 84.835 66.787 84.0712 66.416 83.5135 65.7226 83.315 64.897 83.0162 63.7215 83.1168 62.48 83.601 61.368 84.365 59.531 85.941 58.249 87.434 58.249M87.434 56.249C85.186 56.249 82.863 57.935 81.755 60.6 80.37 63.93 81.405 67.527 84.068 68.634 84.5906 68.8509 85.1512 68.9617 85.717 68.96 87.965 68.96 90.287 67.273 91.396 64.609 92.781 61.279 91.745 57.682 89.083 56.575 88.5603 56.3583 87.9998 56.2475 87.434 56.249Z" class="MsftOfcThm_Background1_Fill_v2" fill="#FFFFFF"/><path d="M63.377 45.065C64.832 45.065 66.733 47.183 67.243 50.335 67.525 51.872 67.3619 53.4576 66.773 54.905 66.512 55.478 65.934 56.463 64.996 56.615 64.9147 56.6282 64.8324 56.6348 64.75 56.635 63.295 56.635 61.394 54.517 60.884 51.364 60.6022 49.8273 60.7653 48.2421 61.354 46.795 61.615 46.221 62.193 45.236 63.13 45.084 63.2117 45.0711 63.2943 45.0648 63.377 45.065M63.377 43.065C63.1874 43.065 62.9982 43.0801 62.811 43.11 59.965 43.571 58.218 47.41 58.911 51.683 59.556 55.675 62.099 58.635 64.751 58.635 64.9406 58.635 65.1299 58.6197 65.317 58.589 68.163 58.129 69.91 54.289 69.217 50.016 68.571 46.025 66.028 43.064 63.377 43.065Z" class="MsftOfcThm_Background1_Fill_v2" fill="#FFFFFF"/><path d="M54.489 58.249 54.489 58.249C55.982 58.249 57.558 59.531 58.321 61.368 58.8057 62.4799 58.9063 63.7216 58.607 64.897 58.4091 65.7229 57.8513 66.4166 57.087 66.787 56.8077 66.9026 56.5082 66.9614 56.206 66.96 54.713 66.96 53.138 65.677 52.374 63.841 51.8898 62.729 51.7892 61.4875 52.088 60.312 52.286 59.4859 52.8438 58.792 53.608 58.421 53.8875 58.3062 54.1869 58.2478 54.489 58.249M54.489 56.249C53.9232 56.2475 53.3627 56.3583 52.84 56.575 50.178 57.682 49.14 61.275 50.527 64.609 51.635 67.274 53.958 68.96 56.206 68.96 56.7718 68.9616 57.3323 68.8508 57.855 68.634 60.518 67.527 61.555 63.934 60.168 60.6 59.06 57.935 56.737 56.249 54.489 56.249Z" class="MsftOfcThm_Background1_Fill_v2" fill="#FFFFFF"/><path d="M70.907 62.42C72.2196 62.4168 73.4655 62.9976 74.307 64.005L74.324 64.026 74.343 64.047C75.0266 64.8245 75.4999 65.764 75.718 66.776 76.1882 68.6977 77.0854 70.4887 78.343 72.016L79.067 72.916C79.7474 73.7319 80.5191 74.467 81.367 75.107 82.1539 75.7269 82.7902 76.517 83.228 77.418 83.9159 78.8187 84.0702 80.4219 83.662 81.928 83.5987 82.1788 83.5141 82.4237 83.409 82.66 82.4144 84.8929 79.798 85.8967 77.565 84.9021 77.548 84.8945 77.531 84.8868 77.514 84.879 77.2111 84.7524 76.9185 84.6023 76.639 84.43 75.0984 83.4133 73.2928 82.8722 71.447 82.874L71.31 82.874 70.048 82.916C68.3064 83.0012 66.6173 83.54 65.148 84.479 62.9782 85.8712 60.0906 85.2408 58.6983 83.071 58.4648 82.7069 58.2829 82.3121 58.158 81.898 57.7582 80.391 57.9258 78.7896 58.629 77.398 59.0518 76.5149 59.6705 75.7399 60.438 75.132 61.2973 74.4851 62.0797 73.7419 62.77 72.917L62.787 72.897 62.803 72.876 63.466 72.039C64.7393 70.4957 65.6457 68.6835 66.117 66.739 66.3483 65.7239 66.8295 64.7828 67.517 64.001 68.3563 62.9975 69.5968 62.4172 70.905 62.416M70.905 60.416C69.3993 60.4162 67.9418 60.9474 66.789 61.916 66.4968 62.1604 66.2267 62.4301 65.982 62.722 65.0877 63.7459 64.4623 64.9762 64.162 66.302 63.7631 67.9392 62.9971 69.4644 61.922 70.762L61.232 71.633C60.6402 72.3407 59.9691 72.9782 59.232 73.533 58.2082 74.3342 57.3831 75.3608 56.821 76.533 55.9112 78.3544 55.6978 80.4454 56.221 82.413 57.2531 85.9498 60.9569 87.9802 64.4937 86.9482 65.1039 86.7701 65.6856 86.5057 66.221 86.163 67.3969 85.412 68.7485 84.9812 70.142 84.913L71.372 84.873 71.439 84.873C72.9024 84.873 74.3334 85.3043 75.553 86.113 75.9292 86.348 76.3238 86.552 76.733 86.723 79.9775 88.1707 83.7813 86.714 85.229 83.4695 85.3811 83.1286 85.5032 82.7751 85.594 82.413 86.1191 80.4474 85.913 78.3581 85.014 76.533 84.4451 75.3625 83.6176 74.3367 82.594 73.533 81.8565 72.9787 81.1854 72.3411 80.594 71.633L79.894 70.762C78.8189 69.4644 78.0529 67.9392 77.654 66.302 77.3616 64.9733 76.7352 63.7412 75.834 62.722 74.6139 61.2617 72.808 60.419 70.905 60.422Z" class="MsftOfcThm_Background1_Fill_v2" fill="#FFFFFF"/></g></svg>