<svg viewBox="0 0 96 96" xmlns="http://www.w3.org/2000/svg" xmlns:xlink="http://www.w3.org/1999/xlink" id="Icons_Monkey_M" overflow="hidden"><style>
.MsftOfcThm_Background1_Fill_v2 {
 fill:#FFFFFF; 
}
</style>
<g id="Icons"><path d="M26.645 71.019 24.005 71C21.2449 70.9967 19.0083 68.7601 19.005 66L19.005 30.736C19.0436 27.333 16.5178 24.445 13.14 24.03 9.56732 23.6793 6.38679 26.2912 6.03609 29.8639 6.01534 30.0753 6.00496 30.2876 6.005 30.5L6.005 37C6.005 37.5523 6.45272 38 7.005 38 7.55728 38 8.005 37.5523 8.005 37L8.005 30.5C8.00639 29.2321 8.54097 28.0232 9.478 27.169 10.4178 26.3072 11.6817 25.8893 12.95 26.021 15.3049 26.3311 17.0508 28.3612 17.005 30.736L17.005 66C17.0094 69.8642 20.1408 72.9956 24.005 73L25.915 73C28.595 81.566 37.157 86.529 49.668 86.8L50.802 86.825 62.363 86.825C65.1244 86.825 67.363 84.5864 67.363 81.825 67.363 79.0636 65.1244 76.825 62.363 76.825L56.458 76.825C59.8835 71.9664 59.3576 65.3559 55.207 61.1 52.8766 58.7225 49.6881 57.382 46.359 57.38L46.264 57.38C44.2672 57.3963 42.3081 57.9248 40.574 58.915 40.303 59.061 40.039 59.178 39.898 59.244 39.3885 59.4272 39.1012 59.9671 39.234 60.492 39.395 61.0202 39.9537 61.318 40.482 61.157 40.8422 61.031 41.1895 60.8706 41.519 60.678 42.9708 59.833 44.6192 59.3847 46.299 59.378L46.378 59.378C49.163 59.3829 51.8293 60.5064 53.778 62.496 57.7619 66.5797 57.681 73.1198 53.5973 77.1037 53.5972 77.1038 53.5971 77.1039 53.597 77.104 53.2016 77.4895 53.1935 78.1227 53.5791 78.5181 53.7678 78.7116 54.0267 78.8205 54.297 78.82L62.368 78.82C64.0249 78.82 65.368 80.1631 65.368 81.82 65.368 83.4769 64.0248 84.82 62.368 84.82L50.74 84.82 49.623 84.8C33.423 84.448 28.88 76.506 27.612 71.743 27.4922 71.3096 27.0946 71.0119 26.645 71.019Z" class="MsftOfcThm_Background1_Fill_v2" fill="#FFFFFF"/><path d="M89.414 25.464C89.3763 24.9988 89.2024 24.555 88.914 24.188L85.887 20.388C85.706 13.134 79.832 7.893 71.8 7.87L71.532 7.87C63.9427 7.88311 57.7544 13.9573 57.6 21.545 57.5911 22.0526 57.6095 22.5604 57.655 23.066L57.655 23.081C57.6847 23.4698 57.4434 23.8282 57.072 23.947 29.965 33.413 25.5 54.634 25.248 66.462L25.248 68.056C25.248 68.6083 25.6957 69.056 26.248 69.056 26.8003 69.056 27.248 68.6083 27.248 68.056L27.248 66.483C27.486 55.2 31.765 34.9 57.72 25.839 57.8469 25.7946 57.9705 25.7415 58.09 25.68 58.1911 26.0719 58.316 26.4573 58.464 26.834 58.6887 27.3385 59.2799 27.5653 59.7844 27.3406 60.2713 27.1237 60.5025 26.563 60.31 26.066 59.9401 25.0589 59.7178 24.0037 59.65 22.933L59.65 22.925C59.6505 22.92 59.6505 22.915 59.65 22.91 59.0452 16.3396 63.8813 10.523 70.4517 9.91829 70.8168 9.88468 71.1833 9.8679 71.55 9.868L71.78 9.868C78.8 9.89 83.9 14.461 83.9 20.741 83.9006 20.9673 83.9774 21.1867 84.118 21.364L87.348 25.42C87.3884 25.472 87.4142 25.5338 87.423 25.599 87.49 26.771 87.477 30.735 84.465 32.499 84.1096 32.7016 83.709 32.8113 83.3 32.818L73.015 32.818C71.7618 32.8197 70.7462 33.8348 70.744 35.088 70.7444 35.1668 70.7535 35.2452 70.771 35.322 71.3351 37.6447 71.4272 40.057 71.042 42.416 69.76 47.8 66.542 50.531 62.475 53.988 61.726 54.623 60.953 55.281 60.161 55.979 59.7479 56.3455 59.7101 56.9776 60.0767 57.3907 60.1572 57.4814 60.2535 57.5568 60.361 57.613L72.527 64.04C73.4854 64.5834 74.0698 65.6075 74.05 66.709L74.05 72C74.05 73.6569 72.7069 75 71.05 75 69.3932 75 68.05 73.6569 68.05 72L68.05 69.123C68.0501 68.7525 67.8454 68.4124 67.518 68.239L61.59 65.105C61.1018 64.8465 60.4965 65.0328 60.238 65.521 59.9795 66.0092 60.1658 66.6145 60.654 66.873L66.044 69.725 66.044 72C66.044 74.7614 68.2826 77 71.044 77 73.8054 77 76.044 74.7614 76.044 72L76.044 66.727C76.0688 64.8889 75.0846 63.1849 73.48 62.288L62.58 56.529C62.98 56.1837 63.3763 55.846 63.769 55.516 67.946 51.967 71.554 48.903 73.001 42.816 73.4349 40.2252 73.351 37.5741 72.754 35.016 72.786 34.8981 72.8929 34.8162 73.015 34.816L83.309 34.816C84.065 34.8061 84.8059 34.6037 85.462 34.228 89.464 31.886 89.5 26.942 89.414 25.464Z" class="MsftOfcThm_Background1_Fill_v2" fill="#FFFFFF"/><circle cx="79.005" cy="19" r="2" class="MsftOfcThm_Background1_Fill_v2" fill="#FFFFFF"/></g></svg>