<?xml version="1.0" encoding="UTF-8"?><svg xmlns="http://www.w3.org/2000/svg" xmlns:xlink="http://www.w3.org/1999/xlink" contentScriptType="text/ecmascript" fill="#000000" width="452" zoomAndPan="magnify" contentStyleType="text/css" viewBox="0.0 0.0 452.0 500.1" height="500.1" preserveAspectRatio="xMidYMid meet" version="1"><defs><clipPath id="a"><path d="M 0 0 L 452.019531 0 L 452.019531 488 L 0 488 Z M 0 0"/></clipPath></defs><g><g id="change1_1"><path fill="#f6b737" d="M 359.03125 225.179688 C 351.832031 256.773438 335.574219 283.34375 314.316406 307.382812 C 303.484375 319.632812 292.226562 331.761719 284.441406 346.269531 C 280.378906 353.84375 277.414062 361.960938 275.5625 370.347656 C 273.710938 378.738281 274.164062 387.128906 272.914062 395.53125 C 270.785156 409.867188 257.179688 412.203125 244.902344 412.128906 C 227.519531 412.019531 210.109375 410.265625 193.042969 406.945312 C 191.570312 407.519531 189.558594 407.058594 189.289062 405.261719 C 188.074219 397.132812 186.890625 388.984375 185.261719 380.921875 C 181.902344 364.292969 176.402344 348.234375 165.847656 334.734375 C 156.398438 322.652344 144.597656 312.695312 134.308594 301.375 C 114.484375 279.574219 103.058594 251.320312 100.636719 222.050781 C 98.433594 195.464844 103.789062 167.679688 117.820312 144.796875 C 132.769531 120.421875 156.933594 104.691406 183.976562 96.527344 C 213.808594 87.527344 247.988281 84.890625 278.820312 89.140625 C 308.449219 93.226562 338.113281 107.4375 352.273438 135.078125 C 366.167969 162.207031 365.652344 196.105469 359.03125 225.179688"/></g><g id="change2_1"><path fill="#f59a3d" d="M 272.753906 322.136719 C 261.804688 318.253906 259.941406 302.695312 249.65625 314.121094 C 248.554688 315.347656 239.175781 364.265625 239.757812 366.484375 C 248.230469 398.746094 289.300781 328.003906 272.753906 322.136719 Z M 259.558594 121.101562 C 265.886719 117.480469 286.878906 120.292969 291.957031 112.910156 C 300.039062 101.160156 281.945312 96.613281 272.957031 95.5625 C 246.464844 92.46875 249.988281 126.570312 259.558594 121.101562 Z M 345.191406 171.425781 C 345.253906 211.554688 332.027344 260.613281 304.808594 291.234375 C 296.949219 300.074219 280.992188 315.222656 270.902344 301.300781 C 265.105469 293.308594 272.882812 254.867188 272.566406 245.652344 C 271.738281 221.363281 266.3125 198.25 263.527344 174.253906 C 261.210938 154.261719 264.113281 147.785156 282.730469 139.761719 C 317.609375 124.722656 345.125 127.632812 345.191406 171.425781"/></g><g id="change3_1"><path fill="#c49261" d="M 286.070312 439.472656 C 285.730469 446.949219 281.375 454.3125 274.136719 455.714844 C 276.707031 462.976562 272.632812 470.753906 266.363281 475.199219 C 266.539062 482.054688 264.769531 488.3125 258.777344 492.992188 C 251.890625 498.367188 242.5625 499.933594 234.042969 500 C 221.9375 500.09375 195.914062 494.332031 197.042969 478.457031 C 192.898438 477.421875 188.816406 475.898438 185.757812 473.003906 C 182.597656 470.011719 181.070312 465.757812 182.855469 461.601562 C 184.039062 458.851562 186.148438 457.003906 188.59375 455.613281 C 181.421875 452.335938 175.574219 446.621094 174.472656 438.28125 C 173.523438 431.117188 177.324219 424.164062 183.691406 421.347656 C 178.230469 414.867188 173.289062 407.464844 174.292969 398.613281 C 174.949219 392.824219 178.71875 387.847656 183.902344 385.949219 C 184.199219 385.433594 184.710938 385.078125 185.410156 385.164062 C 185.769531 385.207031 186.132812 385.25 186.488281 385.292969 C 187.492188 385.140625 188.53125 385.085938 189.597656 385.167969 C 190.246094 385.21875 190.757812 385.472656 191.140625 385.835938 C 202.1875 387.066406 213.265625 387.871094 224.394531 387.773438 C 237.085938 387.660156 249.386719 385.867188 261.960938 384.492188 C 270.300781 383.582031 279.71875 385.742188 282.175781 394.882812 C 284.328125 402.90625 282.0625 411.238281 277.511719 417.925781 C 283.472656 423.339844 286.4375 431.351562 286.070312 439.472656"/></g><g id="change4_1" clip-path="url(#a)"><path fill="#2e2e30" d="M 262.445312 476.996094 C 253.808594 482.929688 244.261719 483.441406 234.078125 483.421875 C 222.78125 483.402344 212.417969 481.847656 201.53125 478.972656 C 199.929688 478.546875 198.824219 480.914062 200.375 481.710938 C 211.035156 487.210938 224.285156 487.261719 235.996094 487.363281 C 245.75 487.449219 257.332031 487.289062 264.605469 479.792969 C 265.964844 478.394531 264.164062 475.8125 262.445312 476.996094 Z M 269.09375 453.96875 C 263.171875 454.773438 257.375 457.027344 251.460938 458.117188 C 245.050781 459.296875 238.554688 459.972656 232.039062 460.167969 C 219.402344 460.542969 206.941406 458.808594 194.671875 455.871094 C 192.515625 455.355469 191.632812 458.546875 193.757812 459.191406 C 206.46875 463.03125 219.78125 464.605469 233.046875 464.339844 C 244.917969 464.105469 259.972656 463.257812 270.667969 457.703125 C 272.910156 456.539062 271.195312 453.683594 269.09375 453.96875 Z M 232.164062 427.15625 C 244.410156 426.554688 259.382812 425.996094 270.652344 420.828125 C 272.1875 420.121094 271.4375 417.507812 269.785156 417.632812 C 263.847656 418.070312 257.984375 419.992188 252.097656 420.96875 C 245.160156 422.117188 238.15625 422.90625 231.132812 423.222656 C 217.929688 423.816406 205.21875 422.011719 192.113281 421.167969 C 190.257812 421.046875 189.933594 423.894531 191.679688 424.363281 C 204.515625 427.816406 218.980469 427.808594 232.164062 427.15625 Z M 294.953125 220.28125 C 294.734375 219.199219 293.285156 218.4375 291.070312 218.246094 C 290.757812 218.21875 290.441406 218.203125 290.125 218.203125 C 285.128906 218.203125 280.074219 221.492188 276.644531 224.902344 C 279.058594 225.742188 281.5625 226.179688 283.964844 226.179688 C 286.757812 226.179688 289.28125 225.597656 291.46875 224.441406 C 294.167969 223.015625 295.164062 221.324219 294.953125 220.28125 Z M 265.082031 226.015625 L 264.90625 225.953125 L 264.777344 225.84375 C 263.316406 224.601562 261.953125 223.21875 260.726562 221.738281 C 258.59375 219.1875 256.761719 216.234375 255.277344 212.949219 C 251.546875 215.507812 247.296875 216.855469 242.910156 216.855469 C 236.027344 216.855469 229.46875 213.488281 225.109375 207.78125 C 220.011719 214.207031 213.820312 217.726562 207.5625 217.726562 C 205.277344 217.726562 202.988281 217.257812 200.738281 216.328125 C 199.921875 220.734375 198.902344 224.300781 197.5625 227.46875 C 197.289062 228.109375 196.839844 228.886719 196.363281 229.710938 C 195.71875 230.816406 194.644531 232.664062 194.71875 233.300781 C 194.824219 234.214844 196.59375 236.273438 197.882812 237.777344 C 199.011719 239.089844 200.074219 240.332031 200.613281 241.328125 C 202.164062 244.199219 203.519531 247.492188 204.753906 251.394531 C 209.378906 266.03125 210.152344 281.90625 210.515625 295.636719 C 210.910156 310.617188 210.527344 325.863281 210.152344 340.613281 C 210.066406 344.054688 209.980469 347.492188 209.902344 350.929688 C 209.710938 359.515625 209.453125 368.449219 209.144531 377.476562 C 209.128906 377.992188 209.148438 378.925781 209.175781 380.101562 C 209.203125 381.433594 209.226562 382.761719 209.230469 384.0625 C 216.28125 384.421875 223.332031 384.71875 230.441406 384.550781 C 239.15625 384.347656 247.753906 383.542969 256.363281 382.613281 C 255.640625 378.695312 255.507812 373.507812 255.488281 368.257812 C 255.484375 366.769531 255.480469 365.484375 255.433594 364.71875 C 254.421875 347.878906 254.417969 329.679688 255.414062 307.4375 C 255.601562 303.296875 255.757812 299.136719 255.917969 294.96875 C 256.433594 281.390625 256.96875 267.351562 258.511719 253.746094 C 259.082031 248.742188 259.773438 244.722656 260.695312 241.089844 C 260.988281 239.9375 261.628906 238.253906 262.367188 236.304688 C 263.4375 233.503906 265.933594 226.941406 265.082031 226.015625 Z M 195.785156 204.011719 C 195.847656 203.5625 195.917969 203.09375 195.988281 202.609375 C 196.882812 196.472656 198.238281 187.195312 195.703125 182.816406 C 194.894531 181.414062 193.738281 180.578125 192.617188 180.578125 C 191.789062 180.578125 190.972656 181.019531 190.183594 181.890625 C 188.46875 183.777344 189.535156 187.996094 190.171875 190.515625 L 190.304688 191.054688 C 191.648438 196.464844 193.449219 200.730469 195.785156 204.011719 Z M 226.015625 194.070312 C 228.121094 190.554688 230.429688 186.40625 230.816406 182.585938 C 230.984375 180.917969 230.390625 178.1875 229.34375 177.03125 C 229.089844 176.75 228.847656 176.609375 228.617188 176.609375 C 228.398438 176.609375 227.78125 176.75 226.828125 178.054688 C 223.808594 182.171875 224.558594 188.683594 226.015625 194.070312 Z M 258.515625 200.300781 C 263.609375 193.777344 265.871094 188.558594 265.242188 184.777344 C 264.863281 182.507812 262.835938 180.519531 260.898438 180.519531 C 259.328125 180.519531 258.515625 181.875 258.105469 183.015625 C 256.734375 186.824219 256.875 192.636719 258.515625 200.300781 Z M 183.492188 234.023438 C 182.199219 233.578125 180.84375 233.351562 179.492188 233.351562 C 176.949219 233.351562 174.699219 234.152344 173.035156 235.628906 C 174.191406 236.179688 175.410156 236.457031 176.671875 236.457031 C 179.296875 236.457031 181.679688 235.289062 183.492188 234.023438 Z M 301.394531 219.242188 C 301.988281 224.167969 298.238281 230.472656 290.125 232.449219 C 288.347656 232.882812 286.425781 233.101562 284.40625 233.101562 C 283.121094 233.101562 281.78125 233.011719 280.429688 232.835938 C 279.59375 232.726562 278.21875 232.210938 276.621094 231.613281 C 275.066406 231.027344 272.929688 230.226562 272.15625 230.226562 C 270.40625 230.722656 267.972656 234.773438 266.179688 251.238281 L 266.066406 252.242188 C 261.636719 290.628906 260.46875 329.492188 262.597656 367.757812 C 262.617188 368.15625 262.726562 369.035156 262.859375 370.148438 C 263.34375 374.164062 263.785156 378.355469 263.789062 381.789062 C 265.296875 381.621094 266.800781 381.453125 268.3125 381.285156 C 270.6875 381.023438 271.179688 385 268.871094 385.429688 C 256.289062 387.769531 243.214844 388.507812 230.441406 388.75 C 217.746094 388.992188 204.53125 388.914062 192.003906 386.6875 C 190.039062 386.335938 190.542969 383.203125 192.464844 383.265625 C 195.554688 383.363281 198.640625 383.511719 201.71875 383.671875 C 201.734375 377.351562 202.140625 368.601562 202.914062 356.765625 C 203.125 353.578125 203.289062 351.0625 203.308594 349.976562 C 203.570312 335.414062 203.804688 318.234375 203.566406 301.25 C 203.363281 286.820312 202.59375 271.433594 198.351562 256.714844 C 198.214844 256.242188 198.054688 255.644531 197.871094 254.960938 C 196.714844 250.667969 194.007812 240.621094 190.507812 239.148438 C 190.503906 239.144531 190.433594 239.117188 190.261719 239.117188 C 189.222656 239.117188 187.085938 240.003906 185.019531 240.863281 C 182.03125 242.105469 178.644531 243.511719 175.980469 243.511719 C 175.785156 243.511719 175.597656 243.503906 175.414062 243.488281 C 171.566406 243.179688 166.554688 241.59375 165.089844 238.136719 C 164.484375 236.714844 164.277344 234.394531 166.722656 231.417969 C 169.554688 227.980469 173.882812 226.085938 178.914062 226.085938 C 179.449219 226.085938 179.984375 226.105469 180.515625 226.152344 C 181.683594 226.246094 183.078125 226.804688 184.425781 227.34375 C 185.699219 227.855469 187.015625 228.386719 187.828125 228.386719 C 187.878906 228.386719 187.929688 228.382812 187.976562 228.378906 C 189.617188 228.195312 190.5625 225.808594 191.476562 223.5 L 192.015625 222.15625 C 192.890625 220 194.089844 217.046875 194.089844 214.941406 C 194.09375 212.179688 193.527344 211.507812 192.160156 209.890625 C 191.644531 209.28125 191.058594 208.585938 190.382812 207.640625 C 186.511719 202.242188 180.539062 188.605469 183.558594 180.050781 C 184.730469 176.722656 187.113281 174.539062 190.644531 173.5625 C 191.714844 173.265625 192.742188 173.113281 193.695312 173.113281 C 195.964844 173.113281 197.886719 173.941406 199.410156 175.574219 C 203.832031 180.316406 203.628906 190.652344 203.339844 194.875 C 203.269531 195.867188 202.949219 197.574219 202.578125 199.554688 C 202.03125 202.453125 200.898438 208.492188 201.511719 209.472656 C 202.585938 210.992188 204.660156 211.3125 206.214844 211.3125 C 209.273438 211.3125 212.933594 210.074219 214.707031 208.878906 C 216.859375 207.425781 219.417969 205.09375 220.273438 203.167969 C 221.246094 200.980469 220.808594 199.539062 220.144531 197.355469 C 219.871094 196.449219 219.558594 195.421875 219.324219 194.226562 C 217.800781 186.398438 218.3125 180.210938 220.84375 175.84375 C 222.671875 172.691406 226.253906 169.511719 230.132812 169.511719 C 231.640625 169.511719 233.066406 169.984375 234.363281 170.910156 C 240.03125 174.949219 237.984375 183.617188 236.839844 187.152344 C 236.320312 188.765625 234.792969 191.132812 233.175781 193.640625 C 231.339844 196.484375 228.824219 200.378906 228.953125 201.835938 C 229.222656 204.855469 235.675781 208.824219 238.929688 209.738281 C 239.96875 210.03125 241.320312 210.191406 242.734375 210.191406 C 247.148438 210.191406 252.164062 208.707031 252.742188 205.453125 C 253.117188 203.3125 252.332031 200.324219 251.570312 197.4375 C 250.914062 194.949219 250.234375 192.375 250.230469 190.136719 C 250.230469 186.53125 251.417969 182.382812 253.410156 179.042969 C 255.707031 175.195312 258.660156 173.078125 261.726562 173.078125 C 264.507812 173.078125 267.15625 174.777344 269.609375 178.128906 C 273.074219 182.867188 272.859375 189.398438 268.984375 197.011719 L 264.113281 204.414062 C 263.597656 205.0625 263.140625 205.585938 262.75 206.03125 C 261.078125 207.957031 260.976562 208.070312 262.1875 211.359375 C 263.300781 214.371094 265.808594 217.285156 267.203125 218.757812 C 267.996094 219.589844 269.324219 220.984375 269.769531 220.984375 C 269.984375 220.984375 270.46875 220.65625 271.027344 220.273438 C 271.472656 219.96875 272 219.609375 272.667969 219.210938 C 273.984375 218.429688 275.199219 217.597656 276.375 216.792969 C 279.78125 214.464844 283 212.265625 287.917969 211.628906 C 288.863281 211.507812 289.789062 211.445312 290.664062 211.445312 C 297.886719 211.445312 300.941406 215.472656 301.394531 219.242188 Z M 394.574219 347.910156 C 387.425781 341.992188 379.679688 336.835938 372.554688 330.867188 C 365.730469 325.15625 359.542969 318.542969 352.375 313.269531 C 350.101562 311.59375 346.898438 314.890625 348.484375 317.160156 C 353.738281 324.675781 361.175781 330.773438 368.234375 336.546875 C 375.359375 342.371094 382.808594 348.316406 391.03125 352.503906 C 393.816406 353.917969 397.273438 350.144531 394.574219 347.910156 Z M 450.476562 280.375 C 441.40625 273.757812 431.132812 268.664062 421.207031 263.46875 C 412.105469 258.703125 401.730469 251.6875 391.480469 250.058594 C 388.695312 249.613281 385.808594 253.019531 388.421875 255.3125 C 396.277344 262.222656 407.703125 265.96875 416.984375 270.691406 C 427.015625 275.796875 436.800781 281.632812 447.15625 286.050781 C 451.03125 287.703125 453.941406 282.90625 450.476562 280.375 Z M 397.425781 146.707031 C 406.167969 145.300781 414.746094 142.253906 423.238281 139.785156 C 431.730469 137.3125 440.589844 135.238281 448.792969 131.925781 C 452.441406 130.457031 451.113281 125.289062 447.160156 125.996094 C 438.105469 127.617188 429.160156 130.703125 420.324219 133.234375 C 411.878906 135.65625 403.171875 137.691406 395.070312 141.125 C 391.636719 142.578125 394.308594 147.210938 397.425781 146.707031 Z M 367.863281 33.9375 C 370.066406 30.878906 365.058594 28.078125 362.847656 31.007812 C 356.628906 39.246094 350.257812 47.378906 343.738281 55.382812 C 337.820312 62.644531 331.140625 69.574219 325.90625 77.34375 C 324.007812 80.160156 328.105469 82.96875 330.433594 80.839844 C 337.867188 74.035156 344.042969 65.335938 350.242188 57.425781 C 356.28125 49.71875 362.140625 41.878906 367.863281 33.9375 Z M 230.445312 62.628906 C 231.6875 52.953125 230.0625 42.457031 229.855469 32.699219 C 229.640625 22.714844 229.734375 12.734375 229.652344 2.753906 C 229.621094 -0.957031 224.210938 -0.878906 223.945312 2.753906 C 223.191406 13.066406 223.042969 23.429688 223.089844 33.769531 C 223.132812 43.335938 222.394531 54.070312 224.703125 63.40625 C 225.558594 66.871094 230.054688 65.667969 230.445312 62.628906 Z M 95.882812 75.515625 C 89.855469 67.59375 84.132812 58.945312 77.289062 51.703125 C 74.941406 49.21875 70.828125 52.414062 72.574219 55.34375 C 77.886719 64.269531 84.9375 72.472656 91.179688 80.765625 C 97.113281 88.652344 102.714844 97.648438 109.828125 104.527344 C 112.246094 106.863281 116.011719 103.910156 114.4375 100.96875 C 109.578125 91.898438 102.101562 83.691406 95.882812 75.515625 Z M 59.8125 183.109375 C 66.46875 183.949219 73.472656 185.328125 80.183594 184.726562 C 83.804688 184.398438 84.761719 179.417969 81.0625 178.25 C 75.304688 176.4375 68.996094 176.140625 63.027344 175.402344 C 55.886719 174.519531 48.75 173.578125 41.625 172.578125 C 28.84375 170.785156 16.101562 168.382812 3.273438 166.96875 C -0.546875 166.546875 -1.25 172.683594 2.375 173.601562 C 15.222656 176.859375 28.53125 178.683594 41.628906 180.621094 C 47.679688 181.519531 53.742188 182.347656 59.8125 183.109375 Z M 90.277344 291.878906 C 81.980469 297.5625 72.730469 301.890625 64.070312 307.003906 C 56.042969 311.742188 47.925781 318.691406 39.195312 321.859375 C 36.273438 322.921875 34.625 319.007812 36.378906 317.023438 C 39.636719 313.34375 44.308594 310.851562 48.417969 308.214844 C 52.667969 305.488281 56.960938 302.835938 61.304688 300.269531 C 69.867188 295.214844 78.617188 289.867188 88.046875 286.589844 C 91.335938 285.441406 92.8125 290.136719 90.277344 291.878906"/></g><g id="change5_1"><path fill="#ffffff" d="M 139.34375 257.460938 C 137.832031 253.160156 137.265625 248.738281 134.820312 244.847656 C 134.222656 243.890625 132.773438 244.074219 132.445312 245.15625 C 129.71875 254.09375 133.660156 264.914062 138.140625 272.707031 C 141.820312 279.109375 147.652344 289.542969 155.660156 290.464844 C 156.644531 290.574219 157.539062 289.519531 157.519531 288.605469 C 157.339844 281.398438 149.273438 275.363281 145.585938 269.667969 C 143.101562 265.839844 140.863281 261.769531 139.34375 257.460938 Z M 165.382812 144.207031 C 154.578125 150.828125 146.898438 161.519531 142.207031 173.148438 C 136.597656 187.0625 137.046875 201.652344 133.648438 215.980469 C 132.855469 219.332031 127.164062 219.617188 126.574219 215.980469 C 124.0625 200.375 127.828125 182.300781 134.085938 167.949219 C 139.738281 154.984375 148.996094 144.269531 161.503906 137.574219 C 165.867188 135.238281 169.605469 141.621094 165.382812 144.207031"/></g></g></svg>