<?xml version="1.0" encoding="UTF-8"?><svg xmlns="http://www.w3.org/2000/svg" xmlns:xlink="http://www.w3.org/1999/xlink" contentScriptType="text/ecmascript" fill="#000000" width="480.3" zoomAndPan="magnify" contentStyleType="text/css" viewBox="-0.3 -0.5 480.3 98.9" height="98.9" preserveAspectRatio="xMidYMid meet" version="1"><g id="change1_1"><path fill="#000000" d="M478.9,35.2c-1.2,2.5-3.7,4.1-6.5,4.3c-4.7,2.1-9.3,4.4-13.9,6.8c-1.5,0.8-3,1.6-4.5,2.4 c-3.6,2.1-7.1,4.4-10.5,6.8c-1.8,1.4-3.6,2.9-5.3,4.5l-0.2,0.3c-0.7,0.9-1.6,1.6-2.6,2.1c-0.9,0.5-1.9,0.7-2.9,0.8H432 c-0.5,0-1.1-0.1-1.6-0.2c-2-0.4-3.7-1.6-4.8-3.3c-1-1.6-1.4-3.4-1.2-5.3c0-0.2,0.1-0.4,0.1-0.6l0,0c0.2-1,0.6-1.9,1.2-2.7 c0.8-1,1.7-2,2.6-2.8c0.4-0.4,0.9-0.8,1.3-1.2c1-0.9,2.1-1.8,3.2-2.7c2.2-1.8,4.6-3.5,7-5c1-0.7,2.1-1.3,3.2-2c-9-0.6-18-1-27-1.4 c-6.9-0.3-13.9-0.4-20.8-0.5l-14.5-0.1c-4.8,0-9.6-0.1-14.4-0.1c-5.2,0-10.3,0.1-15.5,0.2s-10.6,0.4-15.8,0.7 c-10,0.5-19.9,1.5-29.8,2.4c-10.2,1-20.4,2.1-30.5,3.3c-11.8,1.4-23.6,2.9-35.4,4.4c-9.7,1.2-19.3,2.5-28.9,3.9 c-10.2,1.6-20.4,3.1-30.7,4.7c-10.2,1.6-20.4,3.2-30.6,4.9s-20.6,3.3-31,5c-3.3,0.5-6.7,1.2-10,1.7c-1.8,0.3-3.5,0.7-5.2,1 c-1.4,0.3-2.9,0.6-4.3,0.9c-3.7,0.8-7.5,1.7-11.2,2.6c-3.1,0.8-6.3,1.6-9.4,2.4c-8.6,2.4-17.2,5-25.7,7.5c-4.3,1.2-8.5,2.5-12.8,3.9 c-3.7,1.2-7.3,2.6-10.9,4.1c-2.8,1.2-5.5,2.5-8.2,3.9c-2.4,1.2-4.7,2.3-7.1,3.6c-1.5,1.3-3.4,2-5.4,2H7.2c-4.3-0.3-7.5-4-7.1-8.3 c0.2-2.1,1.1-4,2.7-5.3c0.3-0.3,0.7-0.6,1.1-0.8c0.4-0.3,0.8-0.6,1.2-0.8c1.3-0.8,2.6-1.4,3.9-2l6.6-3.3c4.6-2.2,9.3-4.2,14.1-6 c2.4-0.9,4.9-1.7,7.4-2.5s4.8-1.5,7.2-2.2c4.8-1.4,9.7-2.9,14.5-4.3c4.8-1.4,9.6-2.8,14.3-4.2c5.1-1.4,10.3-2.7,15.5-4 c2.6-0.6,5.2-1.2,7.7-1.8s5.2-1,7.7-1.6c4.6-0.9,9.3-1.7,14-2.4c10.4-1.7,20.7-3.3,31.1-5c10.1-1.6,20.2-3.2,30.2-4.8 c9.8-1.5,19.5-3,29.3-4.5c9.9-1.5,19.9-2.8,29.8-4c20.5-2.6,41-5.1,61.5-7.2c10.2-1,20.5-1.9,30.7-2.6c5.2-0.4,10.3-0.6,15.5-0.8 c4.6-0.2,9.2-0.3,13.8-0.3c9.9,0,19.8,0.1,29.8,0.1c5.6,0,11.2,0.1,16.8,0.2c5,0.1,9.9,0.3,14.9,0.5c3.1,0.1,6.2,0.3,9.3,0.4 l-2.1-1.1c-3.4-1.7-6.8-3.5-10-5.4c-0.9-0.5-1.7-1.1-2.3-1.8c-2.1-2.4-2.4-5.8-1-8.6c0.9-1.8,2.5-3.1,4.4-3.8c2-0.7,4.1-0.5,6,0.5 c4.2,2.5,8.6,4.7,13,6.9s9,4.3,13.6,6.3c3.7,1.6,7.5,3.1,11.2,4.7c2.2,0.9,4.5,1.9,6.7,2.9c0.9,0.4,1.8,0.8,2.6,1.2 c1.9,1,3.9,2,5.2,3.7c0.9,1,1.4,2.3,1.7,3.6C480,31.9,479.7,33.6,478.9,35.2z"/></g></svg>