<?xml version="1.0" encoding="UTF-8"?><svg xmlns="http://www.w3.org/2000/svg" xmlns:xlink="http://www.w3.org/1999/xlink" contentScriptType="text/ecmascript" fill="#001c84" width="526.5" zoomAndPan="magnify" contentStyleType="text/css" viewBox="0.0 0.0 526.5 303.7" height="303.7" preserveAspectRatio="xMidYMid meet" version="1"><g><g id="change1_1"><path fill="#001c84" d="M487.536,230.88l-95.887,0c-3.44,0-6.901,0.794-9.772,2.689c-14.297,9.438-10.651,36.897-7.98,61.895 c0.634,5.933-7.486,8.246-10.055,2.861c-9.939-20.833-22.416-45.722-30.283-56.797c-4.794-6.749-12.648-10.647-20.926-10.647 l-273.702,0C17.43,230.88,0,213.45,0,191.949V38.931C0,17.43,17.43,0,38.931,0h448.605c21.501,0,38.931,17.43,38.931,38.931 v153.018C526.467,213.45,509.037,230.88,487.536,230.88z"/></g><g><g><g id="change2_3"><circle fill="#001c84" r="16.878" cx="424.492" cy="141.384"/></g><g id="change3_2"><path fill="inherit" d="M440.341,135.597c3.199,8.756-1.306,18.447-10.062,21.645l-11.583-31.707 C427.452,122.337,437.143,126.842,440.341,135.597z"/></g></g><g><g id="change2_1"><circle fill="#001c84" r="16.878" cx="476.612" cy="141.384"/></g><g id="change3_1"><path fill="inherit" d="M492.462,135.597c3.199,8.756-1.306,18.447-10.062,21.645l-11.583-31.707 C479.572,122.337,489.263,126.842,492.462,135.597z"/></g></g><g id="change2_2"><path fill="#001c84" d="M473.162,183.414c-0.564-0.8-1.668-0.993-2.468-0.428c-12.096,8.519-28.745,5.889-37.666-5.747 c1.399-1.217,2.443-2.788,2.966-4.63c0.267-0.941-0.279-1.92-1.22-2.187c-0.941-0.268-1.92,0.279-2.187,1.221 c-0.901,3.172-4.299,5.127-8.261,4.753c-0.967-0.09-1.837,0.624-1.929,1.597c-0.092,0.974,0.623,1.838,1.597,1.929 c0.439,0.041,0.873,0.062,1.302,0.062c1.683,0,3.274-0.318,4.701-0.897c6.064,8.11,15.407,12.45,24.898,12.45 c6.178,0,12.417-1.835,17.84-5.655C473.533,185.319,473.725,184.214,473.162,183.414z"/></g></g></g></svg>