<?xml version="1.0" encoding="UTF-8"?><svg xmlns="http://www.w3.org/2000/svg" xmlns:xlink="http://www.w3.org/1999/xlink" contentScriptType="text/ecmascript" fill="#000000" width="525.7" zoomAndPan="magnify" contentStyleType="text/css" viewBox="-0.4 0.0 525.7 162.0" height="162" preserveAspectRatio="xMidYMid meet" version="1"><g id="change1_1"><path fill="#000000" d="M524.4,8.1c-0.3-0.6-0.6-1.1-1-1.6c-1.1-3.6-4.7-5.8-8.4-5.3l0,0c-1.6-0.3-3.1-0.6-4.7-0.8 c-1.3-0.2-2.7-0.2-4-0.2c-2.9-0.1-5.9-0.1-8.8-0.2c-2.5,0-4.9,0-7.4,0.1c-2.8,0.1-5.6,0.3-8.4,0.6c-2.6,0.2-5.1,0.4-7.7,0.6 s-5.2,0.3-7.7,0.5c-2,0.1-3.9,1-5.3,2.4c-3,3.1-2.8,8,0.3,11c1.4,1.3,3.3,2.1,5.2,2.1h0.5c2.4-0.2,4.8-0.3,7.2-0.5 c3.9-0.3,7.9-0.7,11.8-0.9l-7.6,3.1c-4.9,2.1-9.8,4.2-14.6,6.4s-9.6,4.2-14.3,6.3c-4.9,2.2-9.8,4.4-14.8,6.6 c-10.1,4.4-20.2,8.8-30.2,13.4c-5.1,2.3-10.1,4.6-15.1,6.9c-5.1,2.4-10.3,4.8-15.4,7.3c-5.1,2.5-10.4,5.1-15.7,7.7 c-5.1,2.5-10.1,4.9-15.1,7.4c-4.6,2.3-9.1,4.6-13.7,6.8c-5.1,2.5-10.1,5-15.2,7.5s-10.1,5-15.1,7.5c-4.6,2.2-9.2,4.6-13.8,6.8 c-4.9,2.4-9.9,4.8-14.9,7c-2.5,1.1-5,2.2-7.5,3.3c-2.3,1-4.6,1.9-7,2.8c-3.7,1.3-7.3,2.5-11.1,3.7c-2.1,0.7-4.3,1.3-6.4,2 c-1.7,0.5-3.4,0.9-5.1,1.4l-2.2,0.5c-0.6,0.1-1.2,0.3-1.8,0.4c-1.8,0.3-3.5,0.6-5.3,0.8c-1.4,0.1-2.8,0.2-4.2,0.2 c-0.7,0-1.5-0.1-2.2-0.2c-0.2,0-0.5-0.1-0.7-0.2s-0.7-0.3-1.1-0.4l-0.4-0.2c-0.1-0.1-0.3-0.2-0.4-0.3l-0.2-0.2l-0.1-0.1l-0.1-0.1 v-0.1v-0.1v-0.4v-0.4c0.1-0.6,0.2-1.1,0.4-1.7c0.5-1.5,1.1-3,1.8-4.5c1-2.1,2.1-4.2,3.3-6.3c1-1.8,2.2-3.7,3.3-5.4 c2.6-4.2,5.3-8.3,7.9-12.5c1.2-2,2.2-4.1,3.3-6.2c0.6-1.2,1.1-2.5,1.7-3.8c0.5-1.1,0.8-2.2,1.2-3.3c1.7-4.5,2.6-9.3,2.7-14.1 c0-2.1-0.2-4.3-0.6-6.3c-0.2-0.9-0.4-1.8-0.7-2.6c-0.3-0.8-0.6-1.6-1-2.4c-0.7-1.5-1.6-3-2.6-4.3c-1-1.3-2.2-2.5-3.5-3.5 c-3.1-2.4-6.6-4.1-10.3-5.1c-1.6-0.5-3.2-0.9-4.8-1.2c-2-0.4-4.1-0.7-6.1-0.8c-1-0.1-2-0.1-3-0.1c-1.4,0-2.7,0-4.1,0 c-2.9,0.1-5.8,0.3-8.6,0.7c-1.4,0.2-2.8,0.3-4.1,0.6s-2.9,0.5-4.3,0.8c-2.8,0.6-5.6,1.2-8.4,1.9c-1.4,0.3-2.8,0.7-4.2,1 c-1.2,0.3-2.4,0.6-3.6,0.9l-5,1.4c-1.1,0.3-2.2,0.7-3.4,1.1c-2.7,0.9-5.4,1.8-8.1,2.8c-5.3,1.8-10.5,3.9-15.7,6.1 c-2.7,1.2-5.4,2.4-8,3.5c-2.1,1-4.3,1.9-6.4,2.9c-2.6,1.2-5.1,2.4-7.7,3.7c-2.7,1.4-5.4,2.8-8.1,4.2c-4.8,2.5-9.6,5-14.3,7.7 c-2.5,1.4-5,2.8-7.4,4.3s-5.1,3.1-7.7,4.7c-4.3,2.7-8.8,5.3-13.1,8c-2.4,1.5-4.8,3-7.1,4.5s-4.9,3.3-7.3,4.9 c-4.4,3-8.8,5.9-13.2,8.9c-4.6,3.2-9,6.5-13.3,10c-4.1,3.3-8.1,6.7-12.1,10.2c-2.1,1.9-4.2,3.8-6.2,5.7c-0.9,0.9-1.8,1.8-2.7,2.7 c-0.5,0.5-0.9,0.9-1.3,1.4l0.4-0.5c-0.2,0.2-0.3,0.4-0.5,0.6l-0.1,0.2l0.1-0.2c-2.6,3.4-2,8.2,1.4,10.8c1.4,1.1,3,1.6,4.8,1.6H8 c2-0.1,3.9-0.9,5.3-2.4l0.1-0.1c1-1.1,2.1-2,3.1-3s2.3-2.2,3.5-3.3c3.8-3.4,7.7-6.8,11.7-10.1c2-1.6,4-3.3,6.1-4.9s4.4-3.3,6.6-5 c4.4-3,8.8-6,13.3-9c2-1.3,3.8-2.6,5.8-3.9c2.4-1.6,4.8-3.2,7.3-4.7c4.6-2.9,9.3-5.7,13.9-8.6s9.3-5.8,14.1-8.4s9.6-5.2,14.3-7.8 l4.8-2.6c1.7-0.9,3.4-1.7,5.1-2.6c3.1-1.6,6.3-3,9.5-4.4s6.5-3,9.8-4.4c1.8-0.8,3.5-1.6,5.3-2.2l5.1-2c4.4-1.6,8.8-3.2,13.3-4.7 c1-0.3,2.1-0.7,3.1-1l4.3-1.2c2.1-0.6,4.3-1.1,6.4-1.7c1.3-0.3,2.6-0.6,3.9-0.9c1.6-0.3,3.2-0.7,4.8-1l2.6-0.5 c0.7-0.1,1.4-0.3,2.2-0.4l4.1-0.5c1.7-0.2,3.4-0.3,5.2-0.4c0.9,0,1.9-0.1,2.8-0.1h2.6c1.4,0.1,2.8,0.2,4.2,0.4 c1.6,0.3,3.2,0.7,4.8,1.1c0.9,0.3,1.7,0.6,2.5,0.9c0.5,0.2,0.9,0.5,1.4,0.7s0.7,0.5,1,0.7l0.4,0.4c0.2,0.3,0.5,0.6,0.7,0.9 s0.2,0.3,0.3,0.5s0.2,0.4,0.3,0.6c0.2,0.4,0.3,0.9,0.4,1.3s0.2,1.1,0.3,1.6s0.1,1.2,0.1,1.8c-0.1,0.9-0.1,1.9-0.3,2.8 c-0.3,1.7-0.7,3.3-1.2,4.9l-0.5,1.5c-0.2,0.5-0.3,1-0.5,1.4c-0.4,0.9-0.8,1.8-1.2,2.7c-0.8,1.5-1.6,3.1-2.4,4.6s-1.9,3.2-2.8,4.8 c-3.3,5.2-6.7,10.3-9.7,15.6c-1.6,3-3.1,6-4.4,9.1c-0.3,0.7-0.6,1.4-0.9,2.2c-0.7,1.9-1.2,3.8-1.5,5.8c-0.3,2.1-0.2,4.2,0.2,6.2 c0.5,2.2,1.4,4.2,2.7,5.9c1,1.5,2.3,2.7,3.8,3.8c1.4,1,2.9,1.9,4.5,2.5c1.7,0.7,3.5,1.1,5.3,1.4c1.7,0.2,3.4,0.3,5.1,0.3 c2.8-0.1,5.5-0.3,8.2-0.8c1.3-0.2,2.5-0.4,3.8-0.6c1.6-0.3,3.2-0.6,4.7-1c1.4-0.4,2.8-0.7,4.1-1.1c2.7-0.8,5.4-1.6,8.1-2.4 c2.3-0.7,4.6-1.4,6.9-2.2c1.7-0.6,3.4-1.1,5-1.8l4.1-1.6c2.2-0.9,4.3-1.8,6.4-2.7l8.2-3.6c4.7-2.1,9.3-4.3,13.9-6.6 c5.2-2.6,10.5-5.2,15.8-7.8c4.5-2.2,9-4.6,13.5-6.8c4.9-2.4,9.8-4.8,14.7-7.2c5.2-2.6,10.5-5.2,15.7-7.8c5-2.5,10.1-4.9,15.1-7.3 c4.7-2.3,9.4-4.7,14.1-6.9l14.7-6.9c5-2.3,10-4.6,15-6.8c5-2.2,10-4.5,15.1-6.7s10.2-4.5,15.3-6.7s10-4.5,15-6.7 c10.1-4.5,20.2-9,30.4-13.2c3.6-1.5,7.2-3,10.8-4.5c-0.1,0.2-0.2,0.4-0.4,0.6c-0.6,0.9-1.2,1.9-1.9,2.8c-1.5,2.2-3.1,4.5-4.7,6.7 c-0.7,1-1.4,2-2.1,3c-1.3,1.8-2.8,3.7-3.2,5.9c-1,4.2,1.6,8.3,5.8,9.3c0,0,0,0,0,0c0.5,0.1,1.1,0.2,1.7,0.2c3.1,0,6-1.9,7.2-4.8 c1.2-1.8,2.6-3.6,3.9-5.4s2.8-3.8,4.1-5.8c1.6-2.4,3.2-4.8,4.6-7.4c1.3-2.2,2.5-4.4,3.9-6.6c1.1-1.8,2.2-3.5,3.3-5.3 c1.1-2,2.1-4.1,3-6.2C525.3,12.1,525.2,10,524.4,8.1z M214.4,129.6c0-0.2-0.1-0.5-0.1-0.7C214.3,129.1,214.3,129.3,214.4,129.6z"/></g></svg>