<?xml version="1.0" encoding="UTF-8"?><svg xmlns="http://www.w3.org/2000/svg" xmlns:xlink="http://www.w3.org/1999/xlink" contentScriptType="text/ecmascript" fill="#000000" width="396" zoomAndPan="magnify" contentStyleType="text/css" viewBox="-0.4 -1.9 396.0 441.1" height="441.1" preserveAspectRatio="xMidYMid meet" version="1"><defs><clipPath id="a"><path d="M 99 175 L 395.609375 175 L 395.609375 362 L 99 362 Z M 99 175"/></clipPath><clipPath id="b"><path d="M 129 211 L 352 211 L 352 439.21875 L 129 439.21875 Z M 129 211"/></clipPath></defs><g><g><path fill="#ff9c81" d="M 140.511719 267.398438 C 140.683594 267.484375 139.722656 268.660156 139.675781 268.71875 C 136.09375 273.421875 132.410156 278.019531 128.855469 282.757812 C 121.492188 292.566406 114.171875 302.476562 107.40625 312.851562 C 93.6875 333.890625 64.460938 387.898438 71.375 411.835938 C 73.003906 417.472656 77.472656 421.703125 81.75 424.242188 C 96.65625 433.089844 112.066406 413.90625 121.945312 397.875 C 130.277344 384.351562 137.21875 369.96875 144.933594 356.050781 C 160.480469 328.003906 175.570312 300.097656 189.636719 271.175781 L 140.511719 267.398438" fill-rule="evenodd"/></g><g><path fill="#2f2f2f" d="M 255.546875 7.097656 C 260.996094 3.722656 266.972656 1.613281 273.332031 0.785156 C 293.96875 -1.90625 311.695312 1.996094 326.457031 17.128906 C 352.691406 44.019531 362.597656 82.316406 366.824219 118.414062 C 373.328125 173.933594 367.238281 233.5 367.238281 233.5 C 367.238281 233.5 262.734375 226.328125 252.007812 226.273438 C 231.589844 226.160156 208.445312 223.980469 188.585938 230.128906 C 188.390625 230.1875 186.210938 230.636719 186.0625 230.902344 L 186.054688 230.929688 C 186.054688 230.921875 186.058594 230.910156 186.0625 230.902344 L 194.101562 126.617188 C 194.101562 126.617188 192.367188 108.613281 190.734375 107.777344 C 187.976562 106.363281 186.992188 100.703125 186.214844 98.117188 C 180.796875 80.050781 179.644531 60.769531 185.996094 42.707031 C 194.082031 19.695312 217.746094 3.976562 242.011719 4.21875 C 246.601562 4.261719 251.160156 6.359375 255.546875 7.097656" fill-rule="evenodd"/></g><g><path fill="#1d1d1d" d="M 349.171875 79.59375 C 349.394531 80.105469 349.71875 80.882812 349.808594 81.238281 C 353.882812 96.984375 355.570312 113.089844 356.484375 129.28125 C 358.421875 163.480469 356.183594 197.78125 353.746094 231.898438 C 353.683594 232.773438 352.921875 233.4375 352.042969 233.375 C 351.164062 233.3125 350.503906 232.546875 350.566406 231.671875 C 352.992188 197.691406 355.230469 163.527344 353.300781 129.464844 C 352.398438 113.476562 350.742188 97.582031 346.722656 82.035156 C 346.585938 81.503906 346.042969 80.515625 345.882812 79.941406 C 345.746094 79.445312 345.773438 79.035156 345.84375 78.765625 C 345.976562 78.257812 346.273438 77.914062 346.671875 77.695312 C 346.992188 77.519531 347.480469 77.351562 348.183594 77.597656 C 349 77.882812 349.4375 78.773438 349.171875 79.59375 Z M 338.714844 105.28125 C 338.714844 116.75 340.820312 128.171875 340.554688 139.734375 C 339.882812 168.773438 334.753906 201.242188 330 230.019531 C 329.855469 230.886719 330.445312 231.707031 331.3125 231.851562 C 332.179688 231.996094 333.003906 231.40625 333.144531 230.539062 C 337.921875 201.617188 343.066406 168.992188 343.742188 139.808594 C 344.011719 128.222656 341.90625 116.773438 341.90625 105.28125 C 341.90625 104.402344 341.191406 103.6875 340.3125 103.6875 C 339.429688 103.6875 338.714844 104.402344 338.714844 105.28125 Z M 223.238281 150.472656 C 222.875 149.910156 222.894531 149.15625 223.339844 148.605469 C 223.894531 147.921875 224.902344 147.820312 225.585938 148.375 C 225.910156 148.640625 226.257812 149.152344 226.378906 149.914062 C 226.558594 151.035156 226.261719 153.257812 226.261719 153.710938 C 226.261719 176.425781 225.179688 199.117188 223.597656 221.789062 C 223.535156 222.664062 222.773438 223.328125 221.898438 223.269531 C 221.019531 223.207031 220.355469 222.445312 220.417969 221.566406 C 221.992188 198.96875 223.070312 176.351562 223.070312 153.710938 C 223.070312 153.324219 223.371094 151.464844 223.238281 150.472656 Z M 325.046875 117.605469 C 324.898438 116.746094 325.464844 115.921875 326.324219 115.761719 C 326.675781 115.695312 327.050781 115.730469 327.433594 115.957031 C 327.578125 116.046875 327.921875 116.246094 328.117188 116.78125 C 328.125 116.808594 328.175781 116.945312 328.207031 117.179688 C 328.257812 117.554688 328.46875 119.441406 328.476562 119.519531 C 329.71875 130.566406 329.683594 141.960938 329.492188 153.054688 C 329.128906 173.96875 326.113281 194.683594 324.464844 215.507812 C 324.394531 216.386719 323.625 217.042969 322.746094 216.972656 C 321.871094 216.902344 321.214844 216.136719 321.285156 215.257812 C 322.929688 194.496094 325.941406 173.847656 326.304688 152.996094 C 326.492188 142.039062 326.535156 130.789062 325.308594 119.875 C 325.300781 119.800781 325.046875 117.605469 325.046875 117.605469 Z M 237.761719 166.074219 C 237.84375 166.222656 237.867188 166.527344 237.921875 166.945312 C 238.050781 167.925781 238.140625 169.335938 238.195312 171.058594 C 238.59375 182.96875 237.507812 209.320312 237.441406 214.5625 C 237.429688 215.441406 238.132812 216.164062 239.011719 216.175781 C 239.894531 216.1875 240.617188 215.484375 240.628906 214.601562 C 240.699219 209.347656 241.785156 182.902344 241.382812 170.953125 C 241.273438 167.601562 240.949219 165.28125 240.585938 164.585938 C 240.175781 163.808594 239.210938 163.507812 238.429688 163.917969 C 237.652344 164.328125 237.351562 165.292969 237.761719 166.074219 Z M 206.402344 138.835938 C 206.335938 138.730469 206.277344 138.617188 206.234375 138.492188 C 205.945312 137.664062 206.382812 136.753906 207.214844 136.464844 C 207.816406 136.25 208.28125 136.351562 208.628906 136.511719 C 208.964844 136.667969 209.242188 136.914062 209.4375 137.273438 C 209.582031 137.535156 209.699219 137.921875 209.6875 138.410156 C 209.671875 138.957031 209.371094 139.902344 209.371094 140.414062 C 209.375 142.355469 209.40625 144.300781 209.429688 146.242188 C 209.507812 152.160156 209.59375 158.082031 209.410156 164.003906 C 208.898438 180.546875 207.726562 197.03125 206.160156 213.5 C 206.074219 214.378906 205.296875 215.019531 204.421875 214.9375 C 203.542969 214.855469 202.902344 214.074219 202.984375 213.199219 C 204.546875 196.796875 205.714844 180.378906 206.222656 163.902344 C 206.402344 158.03125 206.320312 152.15625 206.242188 146.28125 C 206.214844 144.328125 206.1875 142.375 206.183594 140.421875 C 206.183594 140.085938 206.3125 139.335938 206.402344 138.835938 Z M 312.183594 120.472656 C 311.824219 119.890625 311.867188 119.121094 312.339844 118.582031 C 312.921875 117.921875 313.929688 117.851562 314.589844 118.433594 C 314.789062 118.605469 315.101562 118.992188 315.28125 119.691406 C 315.546875 120.707031 315.769531 123.179688 315.933594 126.636719 C 316.699219 143.140625 316.371094 183.023438 316.140625 188.726562 C 316.105469 189.605469 315.359375 190.289062 314.480469 190.253906 C 313.601562 190.21875 312.917969 189.476562 312.953125 188.597656 C 313.1875 182.917969 313.511719 143.214844 312.746094 126.785156 C 312.601562 123.632812 312.234375 120.859375 312.183594 120.472656 Z M 208.03125 139.535156 C 208.082031 139.527344 208.132812 139.515625 208.1875 139.496094 L 208.109375 139.519531 L 207.992188 139.542969 C 208.003906 139.539062 208.019531 139.539062 208.03125 139.535156 Z M 208.191406 139.496094 C 208.203125 139.492188 208.214844 139.488281 208.230469 139.484375 C 208.242188 139.480469 208.253906 139.476562 208.265625 139.472656 Z M 200.464844 88.398438 C 196.105469 73.140625 198.765625 55.613281 208.285156 42.921875 C 208.8125 42.21875 208.671875 41.21875 207.964844 40.691406 C 207.261719 40.160156 206.261719 40.304688 205.734375 41.007812 C 195.628906 54.480469 192.769531 73.078125 197.398438 89.273438 C 197.640625 90.117188 198.523438 90.609375 199.367188 90.367188 C 200.214844 90.125 200.703125 89.242188 200.464844 88.398438 Z M 218.726562 82.464844 C 219.1875 83.066406 219.164062 83.929688 218.636719 84.507812 C 218.039062 85.15625 217.03125 85.199219 216.382812 84.605469 C 215.953125 84.210938 215.539062 83.292969 215.445312 82.0625 C 215.316406 80.390625 215.566406 77.9375 215.554688 77.269531 C 215.304688 63.367188 216.824219 50.390625 225.539062 39.109375 C 226.078125 38.414062 227.078125 38.285156 227.777344 38.824219 C 228.472656 39.359375 228.601562 40.363281 228.0625 41.058594 C 219.8125 51.734375 218.507812 64.054688 218.742188 77.214844 C 218.75 77.722656 218.601562 79.285156 218.59375 80.734375 C 218.589844 81.359375 218.699219 82.253906 218.726562 82.464844 Z M 272.195312 29.09375 C 271.472656 28.699219 271.164062 27.8125 271.503906 27.050781 C 271.746094 26.503906 272.117188 26.273438 272.4375 26.152344 C 272.769531 26.023438 273.128906 25.996094 273.507812 26.113281 C 273.722656 26.175781 273.980469 26.300781 274.226562 26.535156 C 274.347656 26.65625 274.628906 27.042969 274.71875 27.164062 C 276.148438 28.441406 277.382812 29.984375 278.609375 31.449219 C 281.554688 34.957031 284.035156 38.742188 287.277344 42.019531 C 296.839844 51.675781 308.230469 59.050781 318.261719 68.109375 C 318.914062 68.699219 318.964844 69.710938 318.375 70.363281 C 317.785156 71.015625 316.777344 71.066406 316.121094 70.476562 C 306.050781 61.378906 294.613281 53.960938 285.011719 44.261719 C 281.707031 40.925781 279.167969 37.074219 276.167969 33.5 C 275.015625 32.128906 273.875 30.671875 272.527344 29.484375 C 272.445312 29.414062 272.3125 29.246094 272.195312 29.09375 Z M 295.453125 17.828125 L 297.984375 20.035156 C 314.042969 34.113281 330.636719 47.085938 339.957031 66.925781 C 340.328125 67.722656 339.988281 68.671875 339.191406 69.046875 C 338.394531 69.421875 337.441406 69.078125 337.070312 68.28125 C 327.945312 48.851562 311.609375 36.222656 295.882812 22.433594 C 295.488281 22.089844 294 21.035156 293.179688 20.101562 C 292.46875 19.289062 292.210938 18.429688 292.292969 17.824219 C 292.410156 16.949219 293.210938 16.335938 294.085938 16.453125 C 294.816406 16.550781 295.363281 17.132812 295.453125 17.828125 Z M 258.667969 29.949219 L 259.105469 30.492188 C 261.164062 33.132812 262.78125 36.09375 264.78125 38.777344 C 269.253906 44.78125 274.53125 50.289062 280.566406 54.726562 C 281.273438 55.25 281.429688 56.246094 280.90625 56.957031 C 280.386719 57.664062 279.386719 57.816406 278.675781 57.296875 C 272.386719 52.671875 266.886719 46.9375 262.226562 40.683594 C 260.238281 38.015625 258.636719 35.074219 256.589844 32.457031 C 256.492188 32.332031 255.648438 31.265625 255.515625 30.816406 C 255.347656 30.242188 255.476562 29.789062 255.65625 29.472656 C 255.871094 29.09375 256.207031 28.785156 256.757812 28.664062 C 257.617188 28.476562 258.46875 29.019531 258.65625 29.878906 Z M 258.128906 31.4375 C 258.042969 31.511719 257.949219 31.574219 257.847656 31.628906 C 257.746094 31.683594 257.636719 31.726562 257.523438 31.757812 C 257.773438 31.691406 257.972656 31.578125 258.128906 31.4375 Z M 273.828125 29.03125 C 273.941406 28.96875 274.050781 28.882812 274.148438 28.769531 C 274.25 28.65625 274.339844 28.519531 274.417969 28.34375 C 274.285156 28.636719 274.078125 28.871094 273.828125 29.03125" fill-rule="evenodd"/></g><g><path fill="#ffc8b9" d="M 241.105469 168.230469 C 241.058594 168.261719 241.109375 168.375 241.117188 168.398438 C 242.546875 172.898438 244.71875 177.1875 246.824219 181.394531 C 247.632812 183.015625 254.402344 198.386719 255.386719 198.824219 C 256.484375 199.3125 297.640625 194.015625 301.925781 193.558594 C 308.246094 192.886719 314.460938 191.992188 320.746094 191.160156 C 322.027344 190.992188 324.617188 191.160156 324.617188 191.160156 C 324.617188 191.160156 323.257812 189.019531 322.777344 187.851562 C 320.621094 182.640625 319.089844 177.160156 317.257812 171.832031 C 314.320312 163.277344 311.191406 154.734375 307.605469 146.425781 C 306.757812 144.457031 302.710938 138.042969 302.710938 136.0625 L 241.105469 168.230469" fill-rule="evenodd"/></g><g><path fill="#ff9c81" d="M 250.132812 188.601562 C 248.558594 185.1875 247.164062 182.074219 246.824219 181.394531 C 244.71875 177.1875 242.546875 172.898438 241.117188 168.398438 C 241.109375 168.375 241.058594 168.261719 241.105469 168.230469 L 302.710938 136.0625 C 302.710938 138.042969 306.757812 144.457031 307.605469 146.425781 C 309.25 150.234375 310.796875 154.09375 312.277344 157.980469 C 311.40625 159.367188 310.464844 160.734375 309.445312 162.09375 C 298.015625 177.347656 281.570312 190.488281 262.289062 190 C 257.816406 189.886719 253.785156 189.417969 250.132812 188.601562" fill-rule="evenodd"/></g><g><path fill="#ffc8b9" d="M 199.558594 92.757812 C 208.894531 91.257812 234.15625 85.371094 237.976562 83.925781 C 238.199219 83.839844 238.429688 83.753906 238.644531 83.640625 C 240.027344 82.914062 238.515625 80.621094 238.21875 79.523438 C 235.0625 67.730469 234.988281 57.308594 236.464844 45.261719 C 236.820312 42.359375 237.335938 39.480469 238.085938 36.664062 C 237.308594 48.273438 238.542969 68.953125 256.03125 81.957031 C 256.738281 82.480469 257.738281 82.335938 258.265625 81.628906 C 258.789062 80.921875 258.640625 79.921875 257.9375 79.398438 C 242.160156 67.667969 240.585938 49.253906 241.175781 38.117188 C 241.304688 38.488281 241.449219 38.855469 241.609375 39.21875 C 246.183594 49.574219 255.746094 59.277344 264.421875 66.304688 C 268.089844 69.277344 284.992188 81.136719 289.53125 76.46875 C 291.429688 74.515625 288.808594 67.84375 287.316406 63.671875 C 288.070312 65.113281 288.996094 66.453125 290.15625 67.628906 C 290.59375 68.074219 291.074219 68.507812 291.59375 68.925781 C 291.679688 69.070312 291.757812 69.191406 291.828125 69.292969 C 293.761719 71.964844 312.816406 87.066406 318.722656 89.75 C 318.703125 90.292969 318.679688 90.832031 318.65625 91.367188 C 319.15625 90.933594 319.683594 90.519531 320.234375 90.136719 C 320.25 90.128906 320.265625 90.125 320.277344 90.117188 C 320.46875 90.035156 320.660156 89.898438 320.847656 89.71875 C 326.214844 86.230469 333.460938 85.042969 339.402344 87.207031 C 342.738281 88.421875 344.773438 90.996094 346.140625 94.175781 C 350.875 105.199219 345.589844 117.605469 335.671875 123.738281 C 329.847656 127.339844 321.652344 129.320312 314.765625 128.972656 C 314.554688 128.960938 314.347656 128.929688 314.148438 128.882812 C 312.160156 135.480469 309.308594 141.078125 305.191406 146.570312 C 293.761719 161.820312 270.148438 172.652344 258.039062 174.476562 C 245.183594 176.410156 222.296875 162.511719 213.726562 141.800781 C 213.539062 141.351562 213.355469 140.898438 213.171875 140.445312 C 207.230469 141.578125 200.429688 141.324219 194.96875 139.566406 C 183.867188 135.992188 175.765625 125.21875 177.714844 113.382812 C 178.277344 109.964844 179.636719 106.976562 182.582031 105 C 187.925781 101.40625 195.414062 100.863281 201.523438 103.101562 C 200.90625 100.660156 200.148438 95.183594 199.558594 92.757812" fill-rule="evenodd"/></g><g><path fill="#ff7d5a" d="M 218.957031 122.714844 C 224.1875 122.714844 228.433594 125.558594 228.433594 129.058594 C 228.433594 132.5625 224.1875 135.40625 218.957031 135.40625 C 213.726562 135.40625 209.480469 132.5625 209.480469 129.058594 C 209.480469 125.558594 213.726562 122.714844 218.957031 122.714844" fill-rule="evenodd"/></g><g><path fill="#ff7d5a" d="M 289.320312 114.253906 C 294.550781 114.253906 298.796875 117.097656 298.796875 120.597656 C 298.796875 124.101562 294.550781 126.941406 289.320312 126.941406 C 284.089844 126.941406 279.84375 124.101562 279.84375 120.597656 C 279.84375 117.097656 284.089844 114.253906 289.320312 114.253906" fill-rule="evenodd"/></g><g><path fill="#2f2f2f" d="M 248.804688 141.839844 C 248.835938 141.84375 249.382812 141.945312 249.523438 142.019531 C 249.679688 142.101562 250.097656 142.523438 250.097656 142.523438 C 250.097656 142.523438 250.074219 142.492188 250.054688 142.46875 C 250.613281 143.199219 251.558594 143.542969 252.414062 143.816406 C 256.109375 144.984375 259.453125 144.113281 262.28125 141.527344 C 262.929688 140.933594 263.941406 140.980469 264.535156 141.632812 C 265.128906 142.28125 265.082031 143.289062 264.433594 143.882812 C 260.714844 147.277344 256.308594 148.394531 251.453125 146.855469 C 250.027344 146.402344 248.542969 145.683594 247.585938 144.488281 C 247.3125 144.175781 247.15625 143.757812 247.191406 143.3125 C 247.257812 142.46875 247.96875 141.828125 248.804688 141.839844 Z M 248.808594 141.839844 C 248.839844 141.839844 248.871094 141.839844 248.90625 141.84375 L 248.808594 141.839844 L 248.804688 141.839844 L 248.808594 141.839844" fill-rule="evenodd"/></g><g clip-path="url(#a)"><path fill="#da563d" d="M 248.273438 203.238281 C 247.140625 198.246094 245.746094 191.5625 246.402344 191.234375 C 251.367188 188.75 258.976562 188.972656 264.347656 188.125 C 274.535156 186.515625 284.671875 184.378906 294.761719 182.234375 C 302.25 180.640625 309.746094 179.070312 317.175781 177.195312 C 319.03125 176.726562 324.03125 174.988281 324.347656 175.304688 C 326.214844 177.171875 327.925781 189.351562 329.015625 192.769531 C 329.914062 195.578125 329.933594 198.765625 330.796875 201.628906 C 331.496094 202.386719 332.226562 203.121094 332.984375 203.824219 C 341.683594 211.910156 352.203125 218.1875 362.226562 224.484375 C 372.710938 231.066406 387.765625 236.09375 392.964844 248.335938 C 396.589844 256.863281 395.980469 266.335938 394.1875 275.214844 C 392.96875 281.265625 378.519531 318.59375 368.058594 341.640625 C 363.441406 351.816406 357.734375 361.882812 357.734375 361.882812 L 270.144531 333.417969 C 270.144531 333.417969 275.527344 330.644531 276.226562 327.683594 C 276.070312 327.679688 275.914062 327.671875 275.761719 327.667969 C 247.414062 326.785156 225.589844 322.054688 203.757812 313.785156 C 189.402344 308.347656 170.300781 334.628906 170.300781 334.628906 C 170.300781 334.628906 106.601562 306.335938 99.503906 297.824219 C 98.347656 296.433594 139.410156 258.738281 148.167969 245.359375 C 174.429688 205.238281 180.792969 210.128906 228.4375 206.4375 C 235.054688 205.925781 242.03125 205.746094 248.273438 203.238281" fill-rule="evenodd"/></g><g><path fill="#ffece7" d="M 178.722656 259.570312 C 179.878906 253.628906 181.132812 247.71875 182.46875 241.796875 C 183.371094 237.800781 188.386719 211.574219 189.976562 209.71875 C 190.648438 208.933594 214.398438 204.914062 216.792969 204.605469 C 218.554688 204.378906 233.277344 201.855469 234.125 202.574219 C 234.347656 202.765625 234.195312 203.378906 234.179688 203.609375 C 233.582031 212.261719 234.058594 221.238281 234.230469 229.902344 C 234.421875 239.257812 235.054688 249.082031 236.4375 258.347656 C 236.625 259.597656 236.824219 260.839844 237.027344 262.078125 C 238.539062 263.132812 240.367188 263.832031 242.515625 264.058594 C 254.574219 265.335938 271.957031 256.574219 282.265625 251.039062 C 297.121094 243.058594 308.296875 232.527344 320.664062 221.03125 C 322.957031 218.902344 336.332031 206.789062 337.453125 206.144531 C 337.753906 205.976562 339.554688 207.816406 339.785156 207.976562 C 346.925781 212.976562 354.671875 217.066406 361.769531 222.199219 C 362.113281 222.449219 332.558594 241.847656 325.769531 249.070312 C 306.175781 269.910156 294.628906 299.269531 281.503906 324.578125 C 280.210938 327.078125 276.308594 334.769531 276.308594 334.769531 L 297.714844 343.46875 L 294.265625 356.628906 L 284.398438 402.8125 L 147.371094 402.8125 L 154.1875 370.898438 C 155.480469 363.433594 156.347656 355.902344 157.921875 348.488281 C 159.679688 340.203125 174.859375 267.992188 178.722656 259.570312" fill-rule="evenodd"/></g><g clip-path="url(#b)"><path fill="#ffc8b9" d="M 144.890625 247.585938 L 135.449219 211.21875 C 135.414062 211.199219 135.960938 211.175781 136.175781 211.148438 C 137.113281 211.039062 138.082031 211.121094 138.996094 211.351562 C 141.097656 211.875 142.777344 213.007812 144.363281 214.453125 C 149.113281 218.78125 153.628906 223.933594 156.539062 229.699219 C 158.167969 232.925781 165.296875 255.046875 168.0625 269.230469 L 244.367188 361.238281 C 248.292969 365.164062 253.804688 372.734375 258.644531 381.074219 C 261.371094 376.78125 264.453125 372.265625 264.996094 371.484375 C 268.628906 366.292969 272.421875 361.21875 276.28125 356.191406 C 278.566406 353.214844 280.847656 350.234375 283.148438 347.273438 C 285.238281 344.582031 288.566406 339.601562 288.566406 339.601562 L 351.703125 359.546875 C 351.703125 359.546875 347.464844 366.054688 347.152344 366.539062 C 341.421875 375.554688 335.484375 384.371094 328.914062 392.882812 C 309.941406 417.464844 290.410156 438.277344 257.613281 439.191406 C 249.449219 439.421875 242.550781 438.296875 236.195312 434.839844 C 227.636719 432.472656 219.398438 426.1875 213.152344 419.191406 C 196.992188 401.09375 185.558594 377.9375 174.304688 356.640625 C 167.738281 344.226562 160.703125 332.074219 154.980469 319.238281 C 150.394531 308.957031 147.03125 298.128906 142.367188 287.921875 C 139.101562 280.78125 134.054688 274.511719 130.660156 267.457031 C 127.046875 259.953125 138.832031 251.597656 144.890625 247.585938" fill-rule="evenodd"/></g><g><path fill="#ff9c81" d="M 276.261719 356.21875 C 277.804688 369.6875 277.484375 381.511719 271.429688 396.214844 C 269.300781 401.382812 266.667969 406.324219 263.867188 411.152344 C 261.789062 414.734375 259.699219 418.019531 259.605469 417.882812 C 258.402344 416.195312 260.914062 399.21875 260.777344 395.9375 C 260.597656 391.566406 260.007812 385.878906 258.648438 381.070312 C 261.375 376.777344 264.453125 372.265625 264.996094 371.484375 C 268.621094 366.300781 272.410156 361.234375 276.261719 356.21875" fill-rule="evenodd"/></g><g><path fill="#ffc8b9" d="M 76.015625 305.640625 C 76.210938 305.644531 75.820312 306.746094 75.804688 306.800781 C 74.492188 311.117188 73.050781 315.390625 71.78125 319.722656 C 69.152344 328.691406 66.597656 337.71875 64.746094 346.882812 C 60.992188 365.476562 56.804688 411.347656 73.023438 425.503906 C 76.84375 428.839844 82.664062 430.332031 87.609375 430.734375 C 104.84375 432.132812 110.910156 414.277344 113.246094 400.289062 C 115.222656 388.488281 115.566406 376.539062 116.8125 364.65625 C 119.324219 340.726562 121.480469 317.027344 122.28125 292.957031 L 76.015625 305.640625" fill-rule="evenodd"/></g><g><path fill="#ee9232" d="M 68.523438 88.378906 L 2.679688 172.699219 L 37.214844 323.132812 L 103.058594 238.8125 L 68.523438 88.378906" fill-rule="evenodd"/></g><g><path fill="#ffe3db" d="M 4.875 178.90625 C 5.375 176.542969 13.769531 167.746094 15.53125 165.414062 C 21.230469 157.863281 26.65625 150.066406 31.925781 142.214844 C 37.136719 134.453125 42.363281 126.6875 47.835938 119.109375 C 51.027344 114.695312 54.273438 110.328125 57.632812 106.039062 C 58.703125 104.667969 64.085938 97.421875 65.78125 97.210938 C 67.46875 97 69.769531 97.726562 71.542969 97.726562 C 76.648438 97.726562 78.039062 97.484375 78.476562 102.542969 C 78.855469 106.960938 79.621094 111.28125 80.550781 115.617188 C 81.75 121.203125 83.25 126.738281 84.078125 132.398438 C 85.730469 143.714844 86.222656 155.246094 88.300781 166.488281 L 4.875 178.90625" fill-rule="evenodd"/></g><g><path fill="#ffeae4" d="M 14.328125 185.644531 C 14.804688 183.316406 30.023438 167.363281 32.136719 164.914062 C 37.023438 159.257812 41.742188 153.464844 46.273438 147.523438 C 54.8125 136.320312 62.195312 124.503906 69.546875 112.519531 C 70.351562 111.210938 76.078125 100.34375 77.257812 99.90625 C 77.785156 99.710938 78.109375 100.03125 78.214844 100.476562 C 79.722656 106.84375 81.832031 113.066406 83.265625 119.453125 C 84.628906 125.515625 84.355469 131.742188 85.117188 137.878906 C 86.9375 152.539062 90.195312 167.234375 89.683594 182.050781 L 14.328125 185.644531" fill-rule="evenodd"/></g><g><path fill="#fff7f4" d="M 25.132812 176.210938 C 25.0625 176.546875 25.230469 175.507812 25.398438 175.21875 C 25.742188 174.632812 26.15625 174.117188 26.613281 173.640625 C 27.683594 172.511719 28.84375 171.492188 30.039062 170.542969 C 34.269531 167.199219 39.023438 164.636719 43.789062 162.414062 C 57.59375 155.988281 72.582031 153.046875 86.964844 148.65625 C 91.132812 147.382812 115.789062 139.3125 119.132812 139.9375 C 119.304688 139.96875 123.355469 149.550781 123.765625 150.546875 C 124.074219 151.300781 125.613281 155.421875 125.125 155.203125 L 25.132812 176.210938" fill-rule="evenodd"/></g><g><path fill="#f49838" d="M 124.804688 144.660156 L 2.679688 172.699219 L 37.214844 323.132812 L 159.34375 295.09375 L 124.804688 144.660156" fill-rule="evenodd"/></g><g><path fill="#db8221" d="M 0.09375 176.132812 L 32.035156 321.339844 C 32.515625 323.515625 34.667969 324.894531 36.847656 324.417969 C 39.027344 323.9375 40.40625 321.78125 39.925781 319.601562 L 7.984375 174.398438 C 7.507812 172.222656 5.351562 170.84375 3.171875 171.320312 C 0.996094 171.800781 -0.382812 173.957031 0.09375 176.132812" fill-rule="evenodd"/></g><g><path fill="#ffc8b9" d="M 150.957031 246.546875 L 156.78125 246.972656 C 157.902344 248.144531 158.5 249.554688 158.441406 251.316406 C 158.359375 253.617188 156.84375 254.800781 154.898438 255.449219 C 156.253906 259.25 156.367188 261.363281 154.222656 262.886719 C 156.132812 266.519531 171.175781 299.777344 170.109375 302.628906 C 169.480469 304.308594 155.585938 305.09375 153.886719 305.601562 C 149.960938 306.769531 136.425781 280.691406 132.367188 280.851562 C 126.953125 281.0625 104.242188 277.9375 100.628906 274.933594 C 95.847656 270.957031 101.902344 267.566406 105.457031 266.691406 C 104.46875 266.378906 103.496094 266.0625 102.550781 265.757812 C 99.105469 264.640625 95.035156 263.921875 92.015625 261.710938 C 90.867188 260.867188 89.863281 259.507812 89.875 257.878906 C 89.914062 252.472656 98.296875 253.261719 101.203125 253.402344 C 101.417969 253.414062 101.691406 253.417969 102.003906 253.417969 C 95.898438 250.84375 89.675781 247.734375 88.96875 245.808594 C 87.292969 241.234375 96.367188 241.019531 100.769531 242.140625 C 97.761719 240.453125 95.851562 238.667969 96.011719 236.933594 C 96.742188 229.1875 113.316406 236.859375 115.996094 237.613281 C 120.726562 238.941406 125.804688 240.589844 130.707031 241.097656 C 132.59375 241.292969 134.886719 240.214844 136.683594 239.710938 C 140.300781 238.699219 143.820312 237.296875 147.382812 236.082031 C 147.675781 235.984375 148.277344 236.164062 148.269531 235.828125 L 150.957031 246.546875" fill-rule="evenodd"/></g><g><path fill="#ff9c81" d="M 106.480469 268.648438 C 105.855469 268.769531 105.191406 268.511719 104.824219 267.945312 C 104.351562 267.203125 104.566406 266.214844 105.308594 265.742188 C 105.476562 265.636719 105.773438 265.484375 106.234375 265.460938 C 106.59375 265.4375 107.398438 265.519531 108.496094 265.703125 C 113.132812 266.480469 124.050781 269.019531 126.128906 269.347656 C 127 269.488281 127.59375 270.304688 127.457031 271.171875 C 127.320312 272.042969 126.503906 272.636719 125.632812 272.5 C 123.304688 272.132812 109.828125 268.972656 106.660156 268.660156 C 106.601562 268.65625 106.53125 268.652344 106.480469 268.648438 Z M 103.6875 256.230469 C 103.265625 256.210938 102.851562 256.027344 102.554688 255.6875 C 101.976562 255.023438 102.042969 254.015625 102.703125 253.4375 C 102.917969 253.25 103.28125 253.023438 103.832031 253.027344 C 104.183594 253.035156 105.414062 253.46875 105.539062 253.511719 C 112.625 255.859375 119.789062 257.871094 126.960938 259.933594 C 127.804688 260.175781 128.292969 261.058594 128.050781 261.90625 C 127.808594 262.75 126.925781 263.238281 126.078125 262.996094 C 118.867188 260.925781 111.660156 258.898438 104.539062 256.539062 C 104.484375 256.519531 103.902344 256.308594 103.6875 256.230469 Z M 102.867188 241.621094 L 103.160156 241.671875 C 103.621094 241.757812 104.082031 241.863281 104.535156 241.980469 C 106.441406 242.464844 108.328125 243.054688 110.203125 243.648438 C 115.4375 245.300781 120.585938 246.898438 125.957031 248.050781 C 126.816406 248.234375 127.367188 249.085938 127.183594 249.945312 C 126.996094 250.804688 126.148438 251.355469 125.289062 251.171875 C 119.816406 249.996094 114.574219 248.371094 109.242188 246.6875 C 107.425781 246.113281 105.59375 245.539062 103.746094 245.070312 C 103.363281 244.972656 102.976562 244.882812 102.585938 244.808594 C 102.367188 244.769531 101.808594 244.652344 101.730469 244.617188 C 100.707031 244.195312 100.71875 243.320312 100.746094 243.011719 C 100.757812 242.851562 100.875 241.542969 102.367188 241.542969 C 102.542969 241.542969 102.710938 241.570312 102.867188 241.621094 Z M 102.449219 244.730469 L 102.367188 244.730469 C 102.398438 244.730469 102.425781 244.730469 102.449219 244.730469 Z M 102.523438 244.722656 L 102.472656 244.726562 L 102.523438 244.722656" fill-rule="evenodd"/></g><g><path fill="#2f2f2f" d="M 230.851562 115.867188 C 230.34375 116.808594 229.636719 117.160156 229.03125 117.257812 C 228.289062 117.378906 227.390625 117.113281 226.609375 116.269531 C 225.503906 115.070312 224.441406 112.328125 224.519531 109.980469 C 224.582031 108.046875 225.378906 106.414062 226.988281 105.648438 C 229.199219 104.597656 231.019531 106.046875 231.65625 108.882812 C 232.101562 110.855469 231.960938 113.441406 231.367188 114.933594 C 231.222656 115.292969 231.050781 115.601562 230.851562 115.867188" fill-rule="evenodd"/></g><g><path fill="#2f2f2f" d="M 277.863281 112.621094 C 277.351562 113.5625 276.648438 113.914062 276.042969 114.011719 C 275.300781 114.132812 274.402344 113.871094 273.621094 113.023438 C 272.511719 111.824219 271.453125 109.085938 271.53125 106.734375 C 271.59375 104.800781 272.390625 103.167969 274.003906 102.402344 C 276.210938 101.355469 278.03125 102.804688 278.667969 105.636719 C 279.113281 107.609375 278.972656 110.195312 278.378906 111.6875 C 278.234375 112.046875 278.058594 112.359375 277.863281 112.621094" fill-rule="evenodd"/></g><g><path fill="#2f2f2f" d="M 266.351562 87.859375 C 266.269531 88.269531 266.035156 88.644531 265.664062 88.894531 C 265.101562 89.277344 264.621094 89.210938 264.296875 89.121094 C 263.882812 89.007812 263.519531 88.757812 263.28125 88.3125 C 263.203125 88.160156 263.125 87.964844 263.097656 87.722656 C 263.074219 87.523438 263.148438 87.007812 263.234375 86.789062 C 263.699219 85.648438 264.644531 84.585938 265.445312 83.679688 C 267.15625 81.746094 269.199219 80.058594 271.628906 79.113281 C 275.40625 77.644531 280.539062 77.246094 284.917969 78.511719 C 287.992188 79.398438 290.6875 81.09375 292.394531 83.722656 C 292.890625 84.484375 292.671875 85.5 291.914062 85.992188 C 291.152344 86.488281 290.136719 86.269531 289.640625 85.511719 C 288.363281 83.546875 286.308594 82.328125 284.007812 81.664062 C 280.320312 80.601562 276 80.9375 272.820312 82.175781 C 270.878906 82.929688 269.273438 84.3125 267.902344 85.855469 C 267.375 86.453125 266.710938 87.117188 266.351562 87.859375 Z M 264.949219 85.90625 C 264.667969 85.863281 264.308594 85.878906 263.902344 86.128906 C 264.226562 85.929688 264.597656 85.863281 264.949219 85.90625" fill-rule="evenodd"/></g><g><path fill="#2f2f2f" d="M 215.109375 99.296875 C 215.027344 99.707031 214.789062 100.082031 214.421875 100.335938 C 213.855469 100.714844 213.375 100.648438 213.050781 100.558594 C 212.636719 100.445312 212.277344 100.195312 212.035156 99.746094 C 211.957031 99.597656 211.882812 99.402344 211.851562 99.160156 C 211.828125 98.964844 211.902344 98.445312 211.988281 98.226562 C 212.453125 97.089844 213.398438 96.023438 214.199219 95.117188 C 215.910156 93.183594 217.953125 91.496094 220.382812 90.550781 C 224.160156 89.082031 229.296875 88.683594 233.671875 89.949219 C 236.746094 90.835938 239.445312 92.53125 241.148438 95.160156 C 241.644531 95.921875 241.425781 96.9375 240.667969 97.433594 C 239.90625 97.925781 238.890625 97.710938 238.394531 96.949219 C 237.117188 94.984375 235.0625 93.769531 232.761719 93.105469 C 229.074219 92.039062 224.753906 92.375 221.574219 93.613281 C 219.632812 94.367188 218.027344 95.75 216.660156 97.296875 C 216.128906 97.894531 215.464844 98.554688 215.109375 99.296875 Z M 213.703125 97.347656 C 213.421875 97.300781 213.0625 97.316406 212.65625 97.566406 C 212.980469 97.367188 213.351562 97.300781 213.703125 97.347656" fill-rule="evenodd"/></g><g><path fill="#ff9c81" d="M 322.1875 111.820312 C 322.460938 111.632812 322.984375 111.488281 323.523438 111.308594 C 324.324219 111.042969 325.15625 110.761719 325.71875 110.464844 C 329.4375 108.503906 332.59375 105.128906 334.648438 101.492188 C 335.09375 100.703125 334.816406 99.699219 334.027344 99.253906 C 333.238281 98.808594 332.234375 99.085938 331.789062 99.875 C 330.035156 102.980469 327.363281 105.886719 324.1875 107.558594 C 323.648438 107.84375 322.789062 108.085938 322.054688 108.335938 C 321.339844 108.582031 320.710938 108.851562 320.328125 109.113281 C 319.582031 109.625 319.390625 110.648438 319.902344 111.394531 C 320.414062 112.144531 321.4375 112.335938 322.1875 111.820312" fill-rule="evenodd"/></g><g><path fill="#ff9c81" d="M 189.097656 118.9375 C 189.40625 119.066406 189.8125 119.425781 190.253906 119.78125 C 190.910156 120.308594 191.597656 120.859375 192.152344 121.171875 C 195.816406 123.230469 200.363281 124.050781 204.535156 123.804688 C 205.4375 123.753906 206.128906 122.972656 206.078125 122.070312 C 206.023438 121.164062 205.246094 120.472656 204.339844 120.527344 C 200.78125 120.734375 196.890625 120.066406 193.761719 118.308594 C 193.230469 118.007812 192.566406 117.417969 191.949219 116.9375 C 191.359375 116.46875 190.792969 116.085938 190.367188 115.90625 C 189.53125 115.558594 188.566406 115.949219 188.214844 116.785156 C 187.867188 117.621094 188.261719 118.585938 189.097656 118.9375" fill-rule="evenodd"/></g><g><path fill="#ff9c81" d="M 254.09375 108.039062 C 254.191406 107.523438 254.042969 106.96875 253.644531 106.570312 C 253.09375 106.019531 252.5625 106.035156 252.261719 106.066406 C 251.707031 106.121094 251.203125 106.386719 250.90625 107.042969 C 250.839844 107.191406 250.773438 107.394531 250.757812 107.65625 C 250.742188 107.867188 250.863281 108.464844 250.882812 108.726562 C 250.929688 109.339844 250.953125 109.953125 250.976562 110.570312 C 251.054688 112.394531 250.992188 114.246094 250.808594 116.0625 C 250.679688 117.324219 249.609375 121.691406 249.117188 124.628906 C 248.84375 126.257812 248.804688 127.554688 248.953125 128.046875 C 249.070312 128.433594 249.320312 128.824219 249.699219 129.15625 C 250.125 129.527344 250.773438 129.832031 251.140625 129.976562 C 251.953125 130.292969 252.800781 130.40625 253.648438 130.492188 C 254.230469 130.550781 254.8125 130.585938 255.359375 130.769531 C 256.222656 131.058594 257.152344 130.59375 257.4375 129.730469 C 257.726562 128.871094 257.261719 127.941406 256.398438 127.65625 C 255.753906 127.441406 255.085938 127.339844 254.40625 127.269531 C 253.710938 127.195312 253.003906 127.175781 252.335938 126.914062 C 252.296875 126.898438 252.226562 126.867188 252.15625 126.832031 C 252.191406 126.425781 252.257812 125.761719 252.355469 125.175781 C 252.863281 122.164062 253.941406 117.6875 254.074219 116.394531 C 254.273438 114.421875 254.34375 112.410156 254.257812 110.433594 C 254.230469 109.78125 254.207031 109.128906 254.160156 108.480469 C 254.152344 108.390625 254.121094 108.207031 254.09375 108.039062" fill-rule="evenodd"/></g><g><path fill="#ffdad0" d="M 231.894531 214.871094 C 231.875 213.054688 231.863281 211.652344 231.855469 210.808594 C 231.839844 208.933594 231.804688 207.066406 231.855469 205.191406 C 231.863281 204.902344 232.011719 204.320312 232.125 203.917969 C 232.007812 203.679688 231.953125 203.40625 231.972656 203.121094 C 232.03125 202.246094 232.792969 201.582031 233.671875 201.640625 C 234.578125 201.703125 235.046875 202.175781 235.292969 202.8125 C 235.425781 203.148438 235.480469 203.636719 235.355469 204.195312 C 235.285156 204.527344 235.066406 205.238281 235.042969 205.316406 C 234.992188 207.140625 235.027344 208.953125 235.046875 210.777344 C 235.085938 215.496094 235.203125 237.847656 236.894531 251.789062 C 237.3125 255.265625 237.824219 258.199219 238.472656 260.167969 C 238.65625 260.726562 238.84375 261.195312 239.054688 261.558594 C 239.089844 261.582031 239.113281 261.597656 239.121094 261.601562 C 239.167969 261.640625 239.335938 261.78125 239.480469 262.007812 C 240.308594 262.414062 241.488281 262.535156 242.921875 262.511719 C 245.6875 262.464844 249.273438 261.78125 253.289062 260.699219 C 269.261719 256.402344 291.832031 245.804688 296.925781 241.730469 C 306.035156 234.441406 314.71875 226.429688 323.160156 218.382812 C 325.023438 216.605469 327.914062 213.183594 330.773438 210.394531 C 332.859375 208.359375 334.957031 206.667969 336.667969 205.984375 C 337.484375 205.65625 338.414062 206.054688 338.742188 206.871094 C 339.070312 207.6875 338.671875 208.617188 337.855469 208.945312 C 336.429688 209.515625 334.734375 210.988281 333 212.679688 C 332.308594 213.355469 331.613281 214.066406 330.929688 214.785156 C 333.539062 217.207031 338.320312 221.890625 341.207031 223.332031 C 341.304688 223.378906 341.394531 223.4375 341.476562 223.503906 C 343.976562 221.421875 346.273438 219.152344 347.746094 216.570312 C 348.183594 215.808594 349.160156 215.542969 349.925781 215.980469 C 350.6875 216.414062 350.953125 217.390625 350.515625 218.15625 C 347.289062 223.804688 340.441406 228.152344 335.554688 232.128906 C 313.429688 250.132812 289.769531 268.714844 262.34375 277.914062 C 257.574219 279.515625 244.507812 282.476562 235.0625 281.867188 C 230.609375 281.582031 226.9375 280.433594 224.980469 278.273438 C 217.6875 270.214844 215.15625 259.742188 214.636719 248.839844 C 214.132812 238.253906 215.519531 227.261719 216.03125 217.820312 C 216.214844 214.414062 217.289062 209.945312 217.027344 206.726562 C 216.957031 205.851562 217.609375 205.082031 218.488281 205.007812 C 219.363281 204.9375 220.132812 205.589844 220.207031 206.46875 C 220.449219 209.449219 219.621094 213.476562 219.304688 216.824219 C 221.597656 216.589844 225.726562 216.28125 228.628906 215.800781 C 229.675781 215.628906 230.90625 215.25 231.011719 215.214844 C 231.273438 215.007812 231.582031 214.894531 231.894531 214.871094 Z M 249.011719 264.976562 C 246.753906 265.414062 244.714844 265.671875 242.976562 265.699219 C 241.21875 265.730469 239.734375 265.519531 238.585938 265.085938 C 238.425781 265.339844 238.28125 265.578125 238.191406 265.742188 C 237.441406 267.113281 236.703125 268.496094 235.945312 269.863281 C 235.234375 271.140625 233.617188 273.332031 232.4375 275.460938 C 231.902344 276.425781 231.433594 277.359375 231.296875 278.148438 C 232.488281 278.429688 233.832031 278.59375 235.265625 278.683594 C 239.328125 278.945312 244.09375 278.515625 248.519531 277.820312 C 248.480469 277.335938 248.460938 276.769531 248.46875 276.144531 C 248.496094 273.472656 248.863281 269.507812 248.996094 266.714844 C 249.023438 266.117188 249.019531 265.46875 249.011719 264.976562 Z M 262.78125 261.085938 C 259.78125 262.121094 256.855469 263.042969 254.117188 263.777344 C 253.46875 263.953125 252.828125 264.117188 252.203125 264.273438 C 252.222656 264.558594 252.230469 264.894531 252.230469 265.265625 C 252.214844 267.78125 251.742188 272.484375 251.664062 275.695312 C 251.652344 276.300781 251.640625 276.839844 251.65625 277.277344 C 255.769531 276.496094 259.320312 275.566406 261.328125 274.894531 C 262.628906 274.457031 263.917969 274 265.199219 273.523438 C 265.167969 273.449219 265.140625 273.371094 265.121094 273.292969 C 264.132812 269.332031 264.203125 264.992188 262.800781 261.140625 C 262.796875 261.121094 262.789062 261.101562 262.78125 261.085938 Z M 234.40625 256.796875 C 234.160156 257.007812 233.863281 257.246094 233.527344 257.503906 C 230.304688 259.960938 222.683594 264.648438 221.140625 265.917969 L 221.113281 265.941406 C 222.5625 269.632812 224.578125 273.074219 227.347656 276.136719 C 227.628906 276.445312 227.957031 276.71875 228.328125 276.964844 C 228.597656 276.011719 229.066406 274.964844 229.648438 273.914062 C 230.828125 271.785156 232.445312 269.59375 233.15625 268.316406 C 233.914062 266.953125 234.644531 265.578125 235.394531 264.210938 C 235.546875 263.933594 235.882812 263.398438 236.175781 262.941406 C 235.570312 261.792969 235.023438 259.988281 234.574219 257.699219 C 234.515625 257.40625 234.460938 257.105469 234.40625 256.796875 Z M 276.515625 255.75 C 273.015625 257.242188 269.375 258.699219 265.785156 260.011719 C 265.789062 260.027344 265.796875 260.039062 265.800781 260.050781 C 267.21875 263.957031 267.199219 268.34375 268.179688 272.371094 C 272.488281 270.644531 276.703125 268.691406 280.832031 266.558594 C 279.546875 263.972656 278.726562 261.148438 277.65625 258.472656 C 277.300781 257.582031 276.9375 256.691406 276.542969 255.816406 C 276.539062 255.808594 276.53125 255.785156 276.515625 255.75 Z M 291.898438 248.484375 C 288.441406 250.320312 284.121094 252.410156 279.4375 254.480469 L 279.453125 254.515625 C 279.863281 255.429688 280.246094 256.359375 280.617188 257.289062 C 281.644531 259.859375 282.425781 262.578125 283.652344 265.066406 C 288.222656 262.59375 292.695312 259.902344 297.070312 257.058594 C 295.832031 254.996094 294.550781 252.945312 293.316406 250.871094 C 292.894531 250.160156 292.488281 249.445312 292.054688 248.738281 C 292.015625 248.671875 291.960938 248.585938 291.898438 248.484375 Z M 232.996094 244.433594 C 232.03125 244.8125 231.066406 245.191406 230.089844 245.535156 C 227.289062 246.519531 224.53125 247.589844 221.777344 248.6875 C 220.828125 249.0625 219.875 249.4375 218.914062 249.773438 C 218.761719 249.824219 218.34375 249.894531 217.890625 249.949219 C 218.167969 254.367188 218.804688 258.695312 220.027344 262.78125 C 222.257812 261.21875 227.113281 258.15625 230.242188 255.953125 C 231.351562 255.171875 232.453125 254.246094 232.605469 254.117188 C 232.867188 253.644531 233.351562 253.34375 233.871094 253.300781 C 233.523438 250.632812 233.234375 247.609375 232.996094 244.433594 Z M 305.683594 238.625 C 303.453125 240.527344 301.195312 242.398438 298.914062 244.222656 C 298.007812 244.949219 296.554688 245.882812 294.695312 246.945312 C 294.726562 246.996094 294.753906 247.039062 294.773438 247.074219 C 295.214844 247.789062 295.628906 248.519531 296.058594 249.238281 C 297.265625 251.269531 298.519531 253.28125 299.738281 255.304688 L 299.816406 255.25 C 301.679688 254.003906 303.527344 252.730469 305.359375 251.4375 C 307.558594 249.886719 309.734375 248.300781 311.894531 246.695312 L 312.023438 246.597656 C 309.917969 244.089844 308.078125 241.367188 305.921875 238.882812 C 305.878906 238.835938 305.785156 238.738281 305.683594 238.625 Z M 217.867188 249.5625 C 218.023438 249.394531 218.105469 249.214844 218.152344 249.070312 C 218.085938 249.242188 217.988281 249.402344 217.867188 249.542969 Z M 232.261719 230.628906 C 228.992188 231.757812 225.496094 232.554688 222.148438 233.296875 C 220.574219 233.644531 218.761719 234.085938 218.054688 234.261719 C 217.796875 238.390625 217.640625 242.601562 217.75 246.765625 L 217.917969 246.742188 C 218.820312 246.425781 219.710938 246.074219 220.597656 245.722656 C 223.394531 244.613281 226.191406 243.523438 229.03125 242.527344 C 230.046875 242.171875 231.039062 241.773438 232.039062 241.382812 C 232.070312 241.371094 232.425781 241.253906 232.769531 241.152344 C 232.550781 237.664062 232.386719 234.074219 232.261719 230.628906 Z M 318.859375 226.820312 C 315.324219 230.113281 311.742188 233.367188 308.097656 236.542969 L 308.308594 236.769531 C 310.523438 239.3125 312.40625 242.113281 314.578125 244.679688 C 318.652344 241.59375 322.65625 238.433594 326.609375 235.261719 C 324.527344 232.175781 321.097656 229.875 318.859375 226.820312 Z M 232.257812 243.535156 C 232.160156 243.402344 232.082031 243.253906 232.03125 243.09375 C 231.976562 242.9375 231.945312 242.765625 231.945312 242.589844 C 231.945312 242.945312 232.054688 243.261719 232.257812 243.535156 Z M 328.757812 217.117188 C 327.460938 218.527344 326.285156 219.808594 325.363281 220.6875 C 323.984375 222.003906 322.597656 223.316406 321.207031 224.625 C 321.234375 224.660156 321.261719 224.691406 321.285156 224.730469 C 323.46875 227.859375 326.929688 230.179688 329.101562 233.257812 C 330.585938 232.054688 332.066406 230.855469 333.539062 229.65625 C 335.136719 228.355469 336.964844 227.027344 338.800781 225.625 C 335.691406 223.675781 331.25 219.421875 328.757812 217.117188 Z M 231.941406 218.246094 C 231.230469 218.511719 230.269531 218.761719 229.152344 218.945312 C 225.914062 219.484375 221.160156 219.808594 219.089844 220.050781 C 218.867188 223.511719 218.554688 227.152344 218.28125 230.882812 C 219.160156 230.679688 220.273438 230.445312 221.460938 230.183594 C 225.007812 229.394531 228.738281 228.554688 232.148438 227.28125 C 232.050781 223.96875 231.984375 220.875 231.941406 218.246094 Z M 233.355469 204.8125 L 233.363281 204.8125 L 233.355469 204.8125" fill-rule="evenodd"/></g><g><path fill="#2f2f2f" d="M 141.636719 293.375 C 141.722656 293.300781 141.808594 293.230469 141.863281 293.195312 C 143.050781 292.492188 144.335938 291.964844 145.554688 291.320312 C 147.886719 290.089844 150.101562 288.765625 152.253906 287.234375 C 158.714844 282.644531 164.367188 277.246094 169.308594 271.070312 C 169.859375 270.382812 170.863281 270.273438 171.550781 270.820312 C 172.238281 271.371094 172.347656 272.375 171.800781 273.0625 C 166.671875 279.472656 160.804688 285.070312 154.097656 289.835938 C 151.835938 291.445312 149.5 292.84375 147.042969 294.140625 C 145.917969 294.734375 144.730469 295.21875 143.628906 295.859375 C 143.601562 295.886719 143.566406 295.914062 143.535156 295.9375 C 142.585938 296.648438 141.820312 296.078125 141.671875 295.976562 C 141.527344 295.875 140.382812 294.871094 141.324219 293.675781 C 141.347656 293.644531 141.492188 293.5 141.636719 293.375 C 142.183594 292.976562 142.898438 292.976562 143.4375 293.320312 C 143.21875 293.167969 142.503906 292.738281 141.636719 293.375 L 141.621094 293.386719 Z M 144.074219 294.109375 C 144.253906 294.59375 144.183594 295.140625 143.890625 295.566406 C 144.289062 295.011719 144.242188 294.5 144.074219 294.109375" fill-rule="evenodd"/></g></g></svg>