<?xml version="1.0" encoding="UTF-8"?><svg xmlns="http://www.w3.org/2000/svg" xmlns:xlink="http://www.w3.org/1999/xlink" contentScriptType="text/ecmascript" fill="#000000" width="200" zoomAndPan="magnify" contentStyleType="text/css" viewBox="-0.0 -0.3 200.0 151.2" height="151.2" preserveAspectRatio="xMidYMid meet" version="1"><g fill="#333333" id="change1_1"><path fill="inherit" d="M199.5259,102.709c-0.001-0.0635-0.001-0.1279-0.0234-0.1973c-0.0693-0.2148-0.1338-0.4287-0.2031-0.6426 c0.0029-0.1309-0.0361-0.2539-0.1152-0.3633c-10.7295-33.3564-17.8203-67.71-29.04-100.9492 c-0.2998-0.8877-1.668-0.6592-1.4688,0.2969c-0.1348-0.123-0.3125-0.2002-0.5117-0.1631 c-14.2715,2.709-28.541,5.8594-42.6504,9.3281c-7.1953,1.7676-14.3125,3.8193-21.3232,6.2148 c-6.1411,2.0947-12.9014,4.3193-18.3101,8.0166c-0.1265-0.0586-0.2686-0.0967-0.4375-0.083 c-15.2012,1.3359-30.0347,3.5879-44.7607,7.6494c-13.48,3.7168-27.4917,7.877-40.2539,13.6064 c-0.2002,0.0898-0.2944,0.2715-0.3096,0.4619c-0.0791,0.1221-0.1299,0.2725-0.1157,0.4561 C0.6289,54.1787,3.27,61.9854,5.5693,69.4629c2.6377,8.5742,5.2134,17.1602,7.6758,25.7861 c4.9414,17.3047,9.0269,34.9326,14.4746,52.0791c0.0176,0.0508,0.0454,0.0869,0.0737,0.127 c0.0381,0.1367,0.0845,0.2705,0.1299,0.4062c-0.0767,0.126-0.1699,0.2451-0.2441,0.373c-0.2856,0.4902,0.2852,0.9971,0.7344,0.8662 c0.0908,0.2051,0.1807,0.4004,0.2651,0.582c-0.1587,0.1963-0.3228,0.3877-0.4741,0.5898c-0.2554,0.3379,0.2681,0.623,0.542,0.4121 c0.2241-0.1719,0.4424-0.3359,0.666-0.5059c0.0308-0.0029,0.064-0.001,0.0942-0.0078c0.1079,0.0234,0.2236,0.0205,0.3413-0.043 c14.123-7.585,28.5171-10.5234,44.2744-12.6133c13.542-1.7969,27.791-3.6504,39.9297-10.3643 c0.3848,0.0703,0.8525-0.2139,0.9004-0.6709c14.084,0.4775,28.5674-6.6279,41.3594-11.6416 c13.8057-5.4102,27.7354-9.9072,42.6562-10.6797C199.7983,104.1143,199.9487,103.1904,199.5259,102.709z M197.6714,100.9971 c-12.3516-2.8115-25.834,1.8076-37.041,6.666c-7.1064,3.0801-13.9941,6.6416-21.084,9.7607 c-2.2129,0.9717-4.4561,1.7793-6.7119,2.5225c5.6904-2.4561,11.252-5.1924,16.8242-7.9033 c14.7607-7.1816,30.6797-13.9395,47.4404-12.7695C197.2896,99.8477,197.4819,100.4219,197.6714,100.9971z M29.5796,148.6426 c-0.0786-0.1816-0.1484-0.3682-0.2241-0.5518c8.3032-10.4307,21.5488-15.8477,34.3896-18.251 c11.7466-2.1982,23.6045-1.2422,35.4028-1.6299c-3.3574,0.5986-6.729,1.1494-10.1543,1.4951 c-7.686,0.7725-15.3779,1.3799-23.0068,2.6299c-7.0972,1.1641-13.9565,3.2002-20.4824,6.2148 C39.9219,141.1279,33.8252,144.0322,29.5796,148.6426z M90.5127,133.1465c-7.0898,1.4385-14.2974,2.2949-21.4536,3.3301 c-10.2905,1.4902-21.2329,3.2627-30.8887,7.6074c2.5464-1.5732,5.188-3.0264,8.0767-4.3613 c8.0093-3.7021,16.4644-5.6201,25.1699-6.8252c6.999-0.9697,14.063-1.4424,21.0869-2.1914 c3.8618-0.4111,7.981-0.791,11.9717-1.5527C99.9438,130.7734,95.3613,132.1631,90.5127,133.1465z M113.0972,125.833 c-2.2344,0.2979-4.4492,0.666-6.6602,1.0566c-14.1377-0.9932-29.1289-0.6758-43.021,1.6338 c-11.8652,1.9746-27.3257,7.5283-34.6318,18.0186c-0.0845-0.2373-0.1704-0.4736-0.2812-0.6934 c-3.5645-17.1895-8.8975-34.0781-13.7856-50.9189C10.0195,78.7432,5.5269,62.6348,1.3652,46.3164 c13.4048-3.4375,26.314-8.9648,39.6602-12.709c7.1587-2.0068,14.4136-3.6455,21.7354-4.9336 c7.4365-1.3086,15.0186-1.5215,22.4434-2.8018c9.3613,33.293,18.7764,66.5762,28.1138,99.8711 C113.2437,125.7734,113.1714,125.8018,113.0972,125.833z M114.6948,125.1309c-0.0234,0.0117-0.0312,0.0352-0.0488,0.0527 c-4.6562-16.6289-9.4731-33.1943-13.9419-49.8828C96.248,58.6611,92.1709,41.5078,86.333,25.29 c0.0117-0.0352,0.0283-0.0674,0.0352-0.1045c6.2114-2.0273,12.1274-5.1201,18.3076-7.3027 c7.5562-2.6709,15.3179-4.7471,23.0942-6.6611c7.2227-1.7773,14.501-3.3242,21.7676-4.9053 c6.3291-1.377,13.0391-2.0625,19.0605-4.5381c0.1201-0.0498,0.1914-0.126,0.2412-0.2109 c3.9062,17.1299,10.6172,33.6211,14.9277,50.6777c3.8955,15.4189,7.9199,30.5488,12.8633,45.6152 c-13.8965-0.8516-27.2939,3.7402-39.8281,9.3262c-6.7363,3.0039-13.334,6.3066-20.041,9.375 C129.5747,119.8467,121.8022,121.8076,114.6948,125.1309z M137.9038,119.7363c6.0059-2.5732,11.834-5.749,17.2012-8.2441 c13.3555-6.208,27.7373-11.5908,42.6631-9.0352c-13.3643,0.3643-26.3506,4.5645-38.7246,9.2764 C151.9995,114.415,145.0249,117.2646,137.9038,119.7363z"/><path fill="inherit" d="M92.1514,119.6104c-10.4404-0.1113-21.2466,1.2783-31.5078,3.1455 c-9.1045,1.6572-19.4756,4.7656-26.394,11.1924c-0.397,0.3701,0.1685,0.8936,0.5835,0.667c4.481-2.4453,8.6118-5,13.4268-6.833 c5.6675-2.1562,11.7168-3.2773,17.6958-4.1465c8.5146-1.2373,18.1006-0.5098,26.2817-3.207 C92.6655,120.2871,92.647,119.6143,92.1514,119.6104z"/><path fill="inherit" d="M95.8262,112.8887c-11.4067,0.2568-23.022,0.335-34.3657,1.6729 c-10.2681,1.21-22.5962,3.7158-29.6699,11.9922c-0.2563,0.2988,0.0884,0.7529,0.439,0.542 c4.8755-2.9297,9.3921-5.7461,14.8164-7.5684c5.2129-1.749,10.7427-2.5664,16.1914-3.126 c10.8823-1.1182,22.084-0.1445,32.8071-2.4736C96.6616,113.793,96.3975,112.876,95.8262,112.8887z"/><path fill="inherit" d="M93.4258,103.1377c-11.9922,0.7129-24.3604,1.3584-36.2627,3.0986 c-9.5664,1.3975-20.209,4.5508-27.1323,11.627c-0.3545,0.3623,0.1367,0.9297,0.5557,0.6699 c4.2563-2.6309,8.2817-5.2773,12.9648-7.1562c5.4282-2.1758,11.248-3.0986,17.0171-3.8076 c5.4097-0.665,10.875-0.9082,16.3115-1.2441c5.5601-0.3438,11.626,0.0088,16.8013-2.2881 C94.1914,103.8105,93.9458,103.1064,93.4258,103.1377z"/><path fill="inherit" d="M78.4761,93.5742c-8.5688-1.04-18.583,0.6367-27.0747,2.167c-7.5547,1.3623-15.4268,4.2246-20.4346,10.2939 c-0.3701,0.4482,0.3013,0.9648,0.7188,0.6445c6.6201-5.0547,13.3774-7.9316,21.5815-9.415 c8.2837-1.498,17.2388-0.6621,25.3076-2.9561C78.959,94.1992,78.8325,93.6172,78.4761,93.5742z"/><path fill="inherit" d="M149.3843,19.668c-12.8027-0.7305-29.8076,2.5742-40.2676,10.4346 c-0.4316,0.3242-0.0137,1.0137,0.4766,0.8047c6.3848-2.7354,12.498-5.4727,19.2852-7.1465 c6.7656-1.6699,13.7402-2.0059,20.5332-3.4766C149.7485,20.2119,149.7485,19.6895,149.3843,19.668z"/><path fill="inherit" d="M166.0044,27.0312c-11.5264,1.5625-23.0693,3.7119-34.3955,6.3623 c-10.0742,2.3564-21.8574,5.3926-30.0293,12.0742c-0.2891,0.2363,0.0254,0.6699,0.3486,0.5283 c10.5967-4.5947,20.5283-8.8682,31.8369-11.5c5.4385-1.2656,10.9375-2.2646,16.4277-3.2705 c5.3369-0.9785,10.8711-1.3379,16.0352-3.0664C166.9175,27.9287,166.7563,26.9297,166.0044,27.0312z"/><path fill="inherit" d="M172.2788,38.8906c-6.9121,0.0078-13.876,1.4795-20.7051,2.4766 c-6.1914,0.9023-12.3682,1.8799-18.4902,3.1846c-8.8125,1.8779-22.582,4.7676-28.0181,12.7676 c-0.2383,0.3496,0.1108,0.7432,0.4854,0.543c4.2505-2.2773,7.9263-5.0918,12.4507-6.9854 c6.2637-2.624,12.9902-4.1641,19.625-5.4736c11.4043-2.2549,23.4414-2.5674,34.665-5.4043 C172.853,39.8564,172.9556,38.8896,172.2788,38.8906z"/><path fill="inherit" d="M178.0151,51.5576c-12.582,2.4277-25.0547,4.8877-37.7129,6.9414 c-11.4766,1.8633-24.083,4.0781-33.9824,10.54c-0.3799,0.248-0.1553,0.96,0.3164,0.7773 c12.3984-4.7559,24.3584-8.0684,37.5059-10.0781c11.1855-1.71,23.8877-2.4609,34.2148-7.3965 C178.8296,52.1152,178.4614,51.4717,178.0151,51.5576z"/><path fill="inherit" d="M70.3477,59.4902c-2.7729-7.7402-12.0151-11.2617-19.7324-9.7637 c-0.0527-0.0801-0.1284-0.1426-0.2422-0.123c-0.6865,0.123-1.3613,0.2861-2.021,0.4824c-0.1978-0.1396-0.4839-0.0293-0.5942,0.1914 c-9.2261,3.0869-15.562,13.1562-12.5088,22.8145c1.5371,4.8613,5.9858,10.0918,10.8389,11.8799 c5.3135,1.959,9.9839,1.2832,15.1206-0.2461c0.0522,0.0146,0.1108,0.0195,0.1763-0.0068c0.0889-0.0361,0.166-0.084,0.2544-0.123 c0.2925-0.0879,0.5869-0.1787,0.8833-0.2725c0.1069-0.0352,0.1313-0.124,0.1172-0.2061 C71.646,79.5381,73.5625,68.4629,70.3477,59.4902z M35.9385,71.2891c-2.6211-8.3496,4.168-16.332,11.4482-19.8799 c-4.0786,6.1777-8.6357,13.0342-11.4448,19.8896C35.9399,71.2959,35.9395,71.292,35.9385,71.2891z M48.0669,52.1631 c0.7554,3.4014,2.0317,6.7012,3.1587,10.0332c-2.9326,1.1572-5.7163,4.3438-5.2935,7.6523 c-3.1348,0.8018-6.3179,1.4473-9.4028,2.418C39.9956,65.5186,45.2124,59.2256,48.0669,52.1631z M52.856,67.834 c-1.6587,0.0166-4.0503,1.2441-5.4805,1.6416c-0.1133,0.0303-0.228,0.0566-0.3403,0.0879c0.2725-3.0918,1.856-4.8496,4.4673-6.5264 C52.0225,64.6211,52.5015,66.2148,52.856,67.834z M61.1626,84.2734C55.7959,85.6338,50.2173,86,45.1284,83.376 c-3.9707-2.0449-6.8853-6.1768-8.541-10.3203c3.7109-0.7725,7.4194-1.6367,11.0879-2.5879 c1.7197-0.4453,4.3398-0.8184,5.8257-1.917c0.0459-0.0342,0.0576-0.0791,0.0811-0.1191c0.2388-0.083,0.4287-0.3008,0.3237-0.5977 c-1.9551-5.5439-2.8193-11.6211-5.1782-17.0107c8.7959-0.8896,16.9282,1.6006,20.7197,10.4395 C73.3145,70.2744,68.6167,79.3105,61.1626,84.2734z"/><path fill="inherit" d="M58.8794,64.3789c-0.1157-0.6396-0.7881-1.0576-1.4517-1.1191c-0.0342-0.0674-0.0864-0.126-0.1689-0.1582 c-1.1299-0.4365-2.2202,1.1045-2.4492,2.0244c-0.3511,1.3994,0.9878,2.5127,2.2324,2.624 C58.5752,67.8916,59.082,65.4844,58.8794,64.3789z M57.8052,65.7852c-0.1455,0.5146-0.4453,0.8457-0.9849,0.7432 c-1.1382-0.2168-1.0898-1.3828-0.5308-2.1484c0.0566,0.04,0.1265,0.0664,0.2095,0.0723c0.436,0.0312,1.0708-0.2061,1.3813,0.2129 C58.083,64.9375,57.8799,65.5215,57.8052,65.7852z"/><path fill="inherit" d="M49.4067,43.3838c0.5244-0.5283,0.7153-1.2744,0.1689-2.0664c-0.4209-0.6113-2.3022-0.4727-2.7275,0.2568 c-0.1685-0.2422-0.5615-0.1963-0.6357,0.1182c-0.2041,0.8779,0.1221,1.8936,0.3931,2.7344 c0.1196,0.374,0.2104,0.8477,0.3779,1.2656c-0.0024,0.002-0.0039,0.002-0.0063,0.002c-0.5796,0.0947-0.4985,0.915,0.0889,0.9043 c1.1182-0.0195,3.1626-0.1338,3.5962-1.457C51.0435,43.9785,50.2998,43.5547,49.4067,43.3838z M48.9199,42.2129 c0.0493,0.5605-0.7432,0.9248-1.1011,1.0547c-0.1802,0.0664-0.2725,0.2334-0.2876,0.4014 c-0.1548-0.5254-0.3169-1.0479-0.4849-1.5674c0.3145-0.0205,0.585-0.0684,0.9185-0.1318 C48.3071,41.8447,48.6255,41.9268,48.9199,42.2129z M49.2656,45.335c-0.1963,0.0781-0.3994,0.1348-0.6069,0.1709 c-0.189,0.0381-0.3833,0.0518-0.5762,0.0684c-0.0493-0.3164-0.1636-0.6396-0.2461-0.8984 c-0.0737-0.2246-0.1372-0.4521-0.2061-0.6787c0.0703,0.0742,0.1714,0.124,0.3115,0.1113c0.499-0.043,0.9761-0.0537,1.4697,0.042 C49.8442,44.7822,49.7964,45.1777,49.2656,45.335z"/><path fill="inherit" d="M30.6401,72.5459c-0.5034-0.6494-1.1758-1.0986-1.7046-1.7207l-0.001-0.001 c-0.1201-0.1807-0.4111-0.2217-0.5337-0.0156c-0.457,0.7725-0.499,1.7891-0.6772,2.6602 c-0.1582,0.7773-0.4302,1.7002,0.1235,2.3555c0.0869,0.1035,0.2729,0.0947,0.3608,0c0.2222-0.2432,0.3433-0.5654,0.4316-0.9072 c0.3008-0.0684,0.604-0.1953,0.8853-0.2705c0.3901-0.1055,0.8032-0.1807,1.1797-0.3301c0.2788,0.3154,0.6001,0.5654,0.9888,0.5928 c0.1606,0.0117,0.2476-0.1504,0.2573-0.2842C32.0098,73.8643,31.0767,73.1084,30.6401,72.5459z M29.8477,73.6543 c-0.3604,0.0781-0.6992,0.2148-1.0312,0.3613c0.0273-0.1816,0.0532-0.3613,0.0864-0.5254c0.0791-0.3838,0.1802-0.8047,0.23-1.2236 c0.2461,0.3164,0.5234,0.6152,0.7759,0.957c0.0806,0.1104,0.166,0.2354,0.2539,0.3643 C30.0571,73.6104,29.9526,73.6309,29.8477,73.6543z"/><path fill="inherit" d="M151.1821,66.5195c-0.041-0.0957-0.1982-0.1172-0.2646-0.0371c-0.6367,0.7773-1.0664,1.4365-2.1357,1.6572 c-1.0928,0.2246-2.3369-0.3066-2.9053-1.2646c-1.2881-2.1777,2.2197-4.5732,3.9736-3.0547 c0.165,0.1426,0.4561,0.0244,0.4756-0.1934c0.126-1.5273-2.1729-1.6289-3.1895-1.3174c-1.9805,0.6113-3.1992,2.332-2.873,4.4131 c0.3066,1.9463,2.4922,2.9756,4.2617,2.9258C150.1431,69.6035,151.9722,68.2998,151.1821,66.5195z"/><path fill="inherit" d="M173.8101,86.6025c-3.5312-1.9023-6.2559-5.1221-10.0527-6.7285 c-4.998-2.1162-9.3965-8.6113-14.8691-9.4873c-0.0635-0.1846-0.2168-0.3359-0.4648-0.3184 c-2.9297,0.2031-5.9219,1.334-8.7188,2.1719c-3.4414,1.0312-6.8701,1.9736-10.3213,2.9814 c-0.0752-0.0771-0.1855-0.0938-0.292-0.0811c0.9121-0.5273,1.6162-1.3018,1.5449-2.1221c-0.123-1.4062-1.1719-2.2627-2.5625-2.2998 c0.2285-0.5176,0.2998-1.0781,0.1035-1.54c-0.7188-1.6885-2.4043-1.3447-3.707-0.584c-0.2217,0.1279-0.1055,0.4648,0.1367,0.3965 c-0.4121,1.1943,0.3037,2.709,0.5557,3.8965c0.208,0.9844,0.2549,2.3496,0.7764,3.2188c0.2822,0.4727,0.9512,0.1846,0.9541-0.2891 c0.6025-0.0156,1.3018-0.2129,1.9307-0.5312c-0.0283,0.043-0.0566,0.0879-0.0625,0.1445 c-0.1064,0.0859-0.1748,0.2217-0.1367,0.3994c0.0283,0.1348,0.0605,0.2676,0.0889,0.4014 c-1.8984,2.0391-2.1729,9.3525-2.4746,11.5459c-0.5752,4.1738-1.8623,8.3799-2.2295,12.5498 c-0.0195,0.2158,0.1211,0.3574,0.2832,0.4023c0.0957,0.1006,0.2412,0.1582,0.4082,0.1055 c3.2305-1.0205,6.4707-2.0098,9.7129-2.9883c0.1875,0.0586,0.3994-0.0225,0.5439-0.165c4.7178-1.4209,9.4463-2.8174,14.1768-4.2188 c1.5332-0.4541,3.0801-0.8555,4.6328-1.2402c0.04,0.0889,0.0771,0.1816,0.1182,0.2676c0.2744,0.5762,1.1729,0.1123,0.8779-0.4561 c-0.0098-0.0176-0.0156-0.0361-0.0254-0.0527c6.2529-1.5049,12.6074-2.6553,18.7539-4.585 c0.0195-0.0068,0.0312-0.0205,0.0488-0.0283C173.9497,87.3936,174.2417,86.8359,173.8101,86.6025z M125.1558,68.7988 c-0.0098-0.0176-0.0283-0.0234-0.042-0.0361c0.8721-0.2988,1.5146,0.2822,1.9209,1.7598 c-0.0625,0.1211-0.1797,0.2764-0.3164,0.4199c-0.2461,0.0889-0.4746,0.2012-0.6602,0.3457 C125.8706,70.418,125.6069,69.5742,125.1558,68.7988z M126.647,74.7031c-0.1631-0.7988-0.2705-1.623-0.4072-2.4395 c0.3545-0.0303,0.7012-0.2031,1.0117-0.4629c0.2207-0.0508,0.418-0.084,0.4434-0.0879c1.3535-0.2549,2.3516,1.1816,1.3721,2.0527 C128.605,74.1768,127.4116,74.6592,126.647,74.7031z M130.6538,98.0166c-1.9492,0.6523-3.9033,1.2979-5.8398,1.9727 c1.2012-7.2988,3.2461-14.5488,4.3184-21.8682c1.0938,4.9697,2.335,9.9209,3.6924,14.8311 c-0.6201,0.4375-1.1006,1.252-1.5127,1.7832c-0.6963,0.8994-0.6934,2.0068-0.6982,3.0977 C130.6128,97.9023,130.6284,97.9639,130.6538,98.0166z M131.4585,97.7441c-0.0303-1.0928-0.0459-1.8643,0.6621-2.7607 c0.3115-0.3955,0.6289-0.7607,0.9629-1.1133c0.2852,1.0117,0.5654,2.0264,0.8594,3.0342 C133.1108,97.1768,132.2876,97.4678,131.4585,97.7441z M148.9214,92.3398c-4.8291,1.3359-9.6367,2.8213-14.418,4.3789 c0.9082-1.5449-1.9883-9.1396-2.5098-10.8955c-0.8691-2.9287-0.8877-6.8564-2.2793-9.6562 c6.0684-1.3232,12.0879-4.5107,18.2559-5.1211c0.0771,3.3145,1.583,7.2412,2.4199,10.417 c0.8125,3.0859,1.6729,6.6855,2.9199,9.7266C151.8433,91.5596,150.3784,91.9355,148.9214,92.3398z M154.2456,90.9561 c-0.3955-0.877-0.7314-1.7803-1.0312-2.7012c1.1621,0.125,2.1543,0.0381,3.2471,0.6152c0.4824,0.2539,1.0869,0.4473,1.3525,0.9688 c0.043,0.084,0.0771,0.1523,0.1113,0.2109C156.6987,90.3516,155.4722,90.6523,154.2456,90.9561z M163.4038,88.665 c-1.5205,0.4023-3.0469,0.7861-4.5752,1.1631c-0.2393-0.4893-0.3174-0.8047-0.7412-1.2119 c-0.3965-0.3818-0.9551-0.5957-1.4297-0.8555c-1.123-0.6172-2.3887-0.5918-3.6445-0.4189 c-0.0293,0.0039-0.0508,0.0166-0.0771,0.0254c-1.5791-5.3457-1.9756-11.2041-3.9941-16.3086 c3.8672,2.6748,7.7549,5.2432,11.5176,8.0898c2.1455,1.624,4.6377,2.5596,6.9365,3.9619c1.6465,1.0039,3.0996,2.4697,4.7393,3.5244 C169.2163,87.0312,166.2026,87.9277,163.4038,88.665z"/><path fill="inherit" d="M124.6265,103.4326c-0.6738-1.0947-1.5293-2.0303-2.373-2.9951c-0.2832-0.3232-1.4941-2.1348-2.2803-1.7129 c-0.7744,0.416-0.5908,1.9189-0.6904,2.6016c-0.1953,1.3389-0.585,2.6719-0.7344,4.0088c-0.043,0.3945,0.4307,0.5859,0.6533,0.2432 c0.3291-0.5098,0.4639-1.083,0.5635-1.6699c0.1387,0.0576,0.3066,0.0527,0.3984-0.082c0.1953-0.2852,0.5469-0.3809,0.8652-0.4795 c0.5312-0.168,1.0352-0.3926,1.5723-0.542c0.04-0.0107,0.0879-0.0322,0.1387-0.0566c0.3105,0.3789,0.6143,0.7646,0.8877,1.1768 c0.0283,0.0732,0.0693,0.1436,0.1357,0.2021c0.0293,0.0254,0.0566,0.0518,0.0859,0.0762 C124.355,104.6475,124.9321,103.9307,124.6265,103.4326z M121.8325,101.9238c-0.5068,0.1631-0.9922,0.4092-1.4873,0.6055 c-0.125,0.0488-0.2617,0.126-0.3916,0.2197c0.1338-0.7998,0.2725-1.624,0.2754-2.4238c0.0039-0.7529-0.1826-0.8643,0.21-0.3848 c0.4043,0.4922,0.8154,0.9834,1.2139,1.4814c0.1191,0.1504,0.2412,0.2949,0.3643,0.4414 C121.9546,101.8848,121.8882,101.9053,121.8325,101.9238z"/><path fill="inherit" d="M139.4409,104.0186c-0.1562-1.1514-0.7871-1.5566-1.5732-1.6162c0.501-0.5635,0.7119-1.2578,0.2207-2.0928 c-0.4541-0.7715-1.6592-0.6279-2.373-0.499c-0.7744,0.1396-2.1221,0.3369-2.5811,1.0439c-0.043,0.0645-0.0566,0.1318-0.0508,0.1943 c-0.083,0.0254-0.166,0.0566-0.2422,0.0869c-0.084,0.0039-0.168,0.0352-0.2656,0.0996c-0.0244,0.0146-0.0254,0.0381-0.0391,0.0566 c-0.0039,0.0068-0.0098,0.0127-0.0146,0.0215c-0.0166,0.0352-0.0244,0.0693-0.0146,0.1064c0,0.0107,0.0039,0.0166,0.0068,0.0273 c0.0088,0.0244,0.0166,0.0459,0.0332,0.0664c0.0146,0.0176,0.0312,0.0283,0.0527,0.0391c0.0254,0.0166,0.0488,0.0215,0.0791,0.0225 c0.0029,0,0.0039,0.002,0.0078,0.002c0.4043-0.0605,0.2363-0.1729,0.3984,0.2197c0.21,0.5059,0.3203,1.0703,0.46,1.5977 c0.3486,1.3291,0.6992,2.7451,1.3936,3.9365c0.1309,0.2266,0.4922,0.2002,0.6016-0.0293 C137.2749,106.9443,139.7339,106.1816,139.4409,104.0186z M135.5151,106.3574c-0.0938-0.3926-0.2461-0.7744-0.3594-1.1865 c-0.2256-0.8164-0.4141-1.6328-0.7002-2.4307c-0.1982-0.5479-0.3877-1.0146-0.7412-1.4316c0.7871-0.1123,1.5547-0.29,2.3252-0.498 c0.3857,0.2549,0.7705,0.5117,1.1562,0.7666c-0.1514,0.3389-0.3975,0.5898-0.7354,0.7568 c-0.4043,0.2744-0.9004,0.4395-1.3457,0.6309c-0.5078,0.2207-0.2246,1.0488,0.3105,0.916c0.9297-0.2285,2.625-1.0947,3.0078,0.2861 C138.7837,105.4355,136.5093,106.1191,135.5151,106.3574z"/><path fill="inherit" d="M142.4448,104.8154c-0.209-0.5771-0.2119-1.2109-0.4766-1.7676c-0.165-0.3477-0.6904-0.4043-0.8535-0.0146 c-0.457,1.0986,0.1152,2.3945,0.543,3.4189c0.2109,0.5029,1.0039,0.4014,1.0625-0.1484 C142.7788,105.7686,142.6255,105.3154,142.4448,104.8154z"/><path fill="inherit" d="M159.0034,98.9551c-1.1514,1.8945-3.5049,2.416-4.9395,0.4941c-0.54-0.7217-0.5361-1.6572-0.1289-2.4287 c0.8711-1.6465,3.207-1.4277,4.6328-0.8906c0.5576,0.2109,0.8672-0.626,0.4004-0.9248c-2.9941-1.9229-7.4893,0.5068-6.3262,4.1963 c0.4355,1.376,1.9707,2.4316,3.3789,2.4961c1.8164,0.085,3.1113-0.8018,3.9238-2.3857 C160.228,98.959,159.3296,98.4199,159.0034,98.9551z"/><path fill="inherit" d="M163.5522,99.8506c-0.2207-0.8311-0.6729-1.6025-0.7275-2.4717c-0.0342-0.5215-0.7334-0.5918-1.0107-0.2422 c-0.3652,0.4619-0.5098,0.9941-0.709,1.5312c-0.1074,0.29,0.293,0.5381,0.5254,0.377c0.1367-0.0957,0.248-0.1924,0.3477-0.293 c0.0391,0.1133,0.0723,0.2266,0.1133,0.3428c0.2227,0.625,0.3691,1.2578,0.5469,1.8955c0.0488,0.1738,0.2295,0.3135,0.4023,0.3447 C163.7886,101.4658,163.6812,100.3379,163.5522,99.8506z"/><path fill="inherit" d="M180.4663,80.832c-0.6445-1.6689-2.084-2.3193-3.8057-2.4043c-0.8662-0.0439-1.9639,0.2061-2.5205,0.9111 c-0.1475-0.1162-0.4102-0.0732-0.4648,0.1201c-0.1816,0.6504,0.0293,1.1006,0.2539,1.7305c0.252,0.71,0.3965,1.4404,0.5576,2.1738 c0.2275,1.0322,0.4854,2.1445,1.0537,3.0547c0.1328,0.2129,0.4648,0.3506,0.7051,0.2412c0.2969-0.1348,0.3867-0.3672,0.3848-0.6357 C178.9468,85.4922,181.5112,83.5488,180.4663,80.832z M176.312,84.9707c-0.1104-0.2412-0.2188-0.4658-0.2754-0.6416 c-0.4922-1.541-0.7148-2.9678-1.4688-4.3418c1.498-0.4434,3.5615-0.3945,4.4102,1.0674 C180.0444,82.8848,177.8413,84.4531,176.312,84.9707z"/><path fill="inherit" d="M163.7485,5.3125c-2.8662,0.6514-5.6338,1.6943-8.4619,2.4961c-2.6016,0.7402-5.2676,1.1279-7.9199,1.6367 c-0.2188,0.042-0.2148,0.3799,0.0234,0.3574c5.7285-0.5107,11.0908-2.0791,16.4668-4.082 C164.1089,5.6289,164.02,5.25,163.7485,5.3125z"/><path fill="inherit" d="M163.2378,7.4414c-2.3096,0.7969-4.5801,1.5752-6.957,2.1465c-1.668,0.4023-3.4453,0.627-5.0166,1.3428 c-0.2129,0.0996-0.1133,0.3857,0.1123,0.3418c4.0479-0.7861,8.4199-1.377,12.0586-3.4346 C163.6606,7.7119,163.4722,7.3613,163.2378,7.4414z"/><path fill="inherit" d="M163.0962,10.3105c-2.6396,0.7549-5.2891,2.2852-8.0283,2.6055c-0.1816,0.0215-0.1592,0.3174,0.0215,0.3174 c1.6582-0.002,3.1191-0.6484,4.6855-1.124c1.1797-0.3564,2.4141-0.8896,3.4551-1.5469 C163.3755,10.4717,163.2456,10.2686,163.0962,10.3105z"/><path fill="inherit" d="M161.6177,13.4307c-1.3857,0.3828-2.6846,0.9375-3.958,1.6025c-0.2109,0.1084-0.0908,0.4502,0.1348,0.3496 c0.6777-0.3037,1.3691-0.5781,2.0469-0.8867c0.6387-0.2891,1.3213-0.4111,1.9102-0.8125 C161.8921,13.5869,161.7681,13.3906,161.6177,13.4307z"/><path fill="inherit" d="M162.1538,15.6045c-0.6699,0.0293-1.2852,0.3105-1.8809,0.6064c-0.1953,0.0957-0.0312,0.3877,0.1621,0.2939 c0.5801-0.2793,1.2041-0.4395,1.7793-0.7246C162.3042,15.7344,162.2427,15.6006,162.1538,15.6045z"/><path fill="inherit" d="M108.5679,19.2773c-1.1992,0.1504-2.2324,0.8672-3.3447,1.3232c-1.6631,0.6846-3.3823,1.207-5.0469,1.8857 c-2.79,1.1377-5.4663,2.4727-7.6382,4.5928c-0.1558,0.1523,0.0874,0.3906,0.2559,0.2715c2.6479-1.8701,5.2627-3.3486,8.2734-4.5781 c2.4556-0.999,5.0806-2.3193,7.5962-3.0928C108.9233,19.6006,108.8296,19.2432,108.5679,19.2773z"/><path fill="inherit" d="M107.9321,22.9385c-2.1738,0.1396-4.709,1.707-6.5229,2.8135c-2.6104,1.5938-5.6421,2.4141-7.7031,4.8047 c-0.1245,0.1445,0.0913,0.2969,0.2266,0.2109c2.3145-1.4785,4.5903-2.8398,7.0488-4.0645c2.2822-1.1377,4.5293-2.752,7.0044-3.458 C108.1792,23.1895,108.1343,22.9248,107.9321,22.9385z"/><path fill="inherit" d="M103.9678,28.2129c-3.207,1.2139-6.8486,2.7969-9.1543,5.4424c-0.1577,0.1807,0.1338,0.4033,0.3042,0.2656 c2.7471-2.2188,5.7568-3.9512,8.9497-5.4385C104.2339,28.4053,104.1431,28.1455,103.9678,28.2129z"/><path fill="inherit" d="M102.5024,31.8018c-1.4658,0.1543-2.9653,1.415-4.1333,2.2471c-0.9795,0.6973-2.0273,1.4229-2.708,2.4248 c-0.0928,0.1367,0.0845,0.3223,0.2241,0.2324c1.1367-0.7197,2.1221-1.6807,3.2124-2.4775 c0.9907-0.7217,2.2593-1.8594,3.4771-2.1074C102.7861,32.0781,102.7075,31.7803,102.5024,31.8018z"/><path fill="inherit" d="M100.1221,35.7178c-0.4136,0.25-0.7944,0.5322-1.1641,0.8418c-0.3799,0.3184-0.7104,0.7441-1.123,1.0186 c-0.6138,0.4062-1.2632,0.9902-1.1846,1.7842c0.0176,0.1699,0.231,0.1602,0.2764,0.0156c0.2417-0.7637,1.0049-1.1211,1.522-1.6514 c0.5894-0.6055,1.1958-1.1777,1.9072-1.6377C100.5957,35.9355,100.3638,35.5713,100.1221,35.7178z"/><path fill="inherit" d="M99.022,39.999c-0.7227,0.3809-1.7769,1.2451-1.6821,2.1602c0.0098,0.0898,0.1411,0.1299,0.1929,0.0488 c0.2158-0.3242,0.3638-0.6865,0.603-0.9971c0.27-0.3516,0.6318-0.6514,1.021-0.8623C99.3662,40.2354,99.2363,39.8857,99.022,39.999 z"/><path fill="inherit" d="M98.2783,43.4727c-0.2896,0.3223-0.5449,0.6787-0.7793,1.0439c-0.0811,0.1289,0.0547,0.3145,0.1943,0.21 c0.3555-0.2646,0.5864-0.6387,0.8926-0.9531C98.7812,43.5732,98.4634,43.2637,98.2783,43.4727z"/><path fill="inherit" d="M81.1855,28.9551c-4.9971-0.3066-10.8086,0.6309-15.3608,2.6914c-0.1782,0.0801-0.0503,0.377,0.1323,0.3154 c4.9014-1.6807,10.0957-2.0811,15.2285-2.583C81.4541,29.3535,81.4629,28.9736,81.1855,28.9551z"/><path fill="inherit" d="M82.9907,32.1172c-5.3403-0.5615-10.8833,0.915-15.6558,3.1543c-0.144,0.0664-0.0986,0.3262,0.0718,0.2852 c2.1758-0.542,4.311-1.502,6.5312-2.0371c2.9805-0.7217,6.0356-0.6855,9.0576-1.0596 C83.2168,32.4326,83.2114,32.1387,82.9907,32.1172z"/><path fill="inherit" d="M83.0024,35.5781c-4.1406-0.5059-7.7114,1.3584-11.6968,1.9775c-0.1714,0.0264-0.1665,0.3125,0.0132,0.3076 c1.4214-0.0391,2.8887-0.4189,4.2627-0.7705c2.4922-0.6377,4.9048-0.8887,7.4424-1.1992 C83.2129,35.8711,83.1738,35.5986,83.0024,35.5781z"/><path fill="inherit" d="M84.1997,38.2275c-1.4619-0.4736-2.999-0.043-4.4658,0.207c-1.23,0.2129-2.7031,0.5205-3.6489,1.3926 c-0.2109,0.1914,0.0459,0.543,0.2944,0.4014c1.0537-0.6055,2.251-0.8721,3.436-1.0762c1.4214-0.2471,3.0225-0.2041,4.3818-0.6494 C84.3169,38.4639,84.3208,38.2686,84.1997,38.2275z"/><path fill="inherit" d="M84.6553,40.7393c-1.9688-0.5557-3.8179,0.2451-5.6587,0.8701c-0.2554,0.0869-0.1592,0.4795,0.1094,0.4092 c0.8403-0.2197,1.6665-0.4893,2.5063-0.7148c1.0137-0.2705,2.0479-0.1055,3.0498-0.3877 C84.7539,40.8906,84.7407,40.7627,84.6553,40.7393z"/><path fill="inherit" d="M84.5884,42.9785c-0.4976-0.3174-1.0576-0.1123-1.6074-0.0479c-0.6763,0.0791-1.397,0.2217-2.0415,0.4404 c-0.3262,0.1113-0.1621,0.5781,0.1646,0.501c0.5752-0.1338,1.1719-0.1133,1.7515-0.2256c0.583-0.1133,1.2231-0.0029,1.7314-0.3652 C84.6812,43.2148,84.6929,43.043,84.5884,42.9785z"/><path fill="inherit" d="M84.2891,44.7881c-0.2637,0.0586-0.5146,0.1191-0.7847,0.1182c-0.252-0.0029-0.2876,0.3945-0.0391,0.3877 c0.3452-0.0068,0.6411-0.0469,0.9297-0.2402C84.5137,44.9746,84.4341,44.7568,84.2891,44.7881z"/><path fill="inherit" d="M125.6323,108.8496c-3.0166,1.124-6.0898,2.7002-9.334,3.1025c-0.1875,0.0225-0.1504,0.3164,0.0312,0.3232 c1.4766,0.0537,3.2949-0.5732,4.7305-0.9697c1.6523-0.4561,3.2988-1.2725,4.7354-2.1953 C125.9526,109.0107,125.7876,108.791,125.6323,108.8496z"/><path fill="inherit" d="M129.4243,110.5283c-2.3525,0.874-4.7139,1.6875-7.0908,2.4834c-2.209,0.7422-4.2715,1.0166-6.5234,1.4395 c-0.125,0.0244-0.125,0.2256,0,0.249c2.0039,0.3701,3.8623-0.0947,5.7734-0.7217c2.7266-0.8916,5.459-1.7734,7.9404-3.2402 C129.6528,110.6611,129.5659,110.4775,129.4243,110.5283z"/><path fill="inherit" d="M132.3511,112.0986c-2.4648,1.0752-4.8691,2.2705-7.3809,3.2412c-2.7461,1.0654-5.0781,1.584-7.9824,1.8965 c-0.1387,0.0146-0.1855,0.2422-0.0273,0.2588c5.3887,0.5811,10.9775-2.4531,15.5508-5.04 C132.7261,112.333,132.5864,111.9951,132.3511,112.0986z"/><path fill="inherit" d="M136.4614,113.4443c-3.0986,1.6826-6.292,3.1436-9.5537,4.4854c-3.2148,1.3252-6.4971,1.9512-9.7979,2.9492 c-0.1064,0.0332-0.0742,0.2119,0.0352,0.2129c3.1631,0.0371,6.2627-1.0312,9.1826-2.1328 c3.5723-1.3477,7.2637-2.9346,10.3203-5.248C136.7974,113.5977,136.6226,113.3574,136.4614,113.4443z"/><path fill="inherit" d="M27.6328,41.1465c-3.6597,0.4932-7.2275,1.6602-10.7988,2.5771c-3.729,0.96-7.5908,2.0254-10.8257,4.1807 c-0.1836,0.1211-0.0088,0.417,0.188,0.3301c6.9468-3.0811,14.2705-4.5088,21.4946-6.7451 C27.877,41.4326,27.8364,41.1201,27.6328,41.1465z"/><path fill="inherit" d="M24.6572,45.1768c-1.9038,0.542-3.8511,0.7637-5.7603,1.2266c0.1035-0.3135,0.2036-0.6318,0.2876-0.9531 c0.0298-0.1113-0.1309-0.1465-0.1704-0.042c-0.1387,0.3662-0.3013,0.7227-0.4497,1.083c-0.5063,0.1328-1.0098,0.2764-1.5088,0.457 c-0.7148,0.2588-1.4351,0.5039-2.1562,0.7461c0.3657-0.8389,0.7085-1.6885,1.0161-2.5527c0.0454-0.1309-0.144-0.2061-0.2012-0.0801 c-0.4263,0.9443-0.8711,1.876-1.3242,2.8047c-2.2314,0.751-4.4565,1.5146-6.5195,2.6777 c-0.1699,0.0967-0.0684,0.3398,0.1191,0.2793c2.0308-0.6504,4.0166-1.4424,6.0181-2.1875 c-0.4614,0.9316-0.9263,1.8613-1.3989,2.7871c-1.4478,0.5674-2.8057,1.2354-3.9292,2.1025 c-0.1172,0.0898-0.0415,0.2998,0.1123,0.2451c1.0869-0.3818,2.1636-0.7949,3.2397-1.2129c-0.4258,0.833-0.8501,1.667-1.2705,2.5039 c-0.0225,0.042-0.019,0.0811-0.0039,0.1133c-0.3428,0.2197-0.6812,0.4648-1.0039,0.7783c-0.1738,0.168,0.0415,0.4521,0.252,0.335 c1.5952-0.8838,3.1802-1.4541,4.8389-2.1299c-0.3013,0.5645-0.6016,1.1279-0.9028,1.6924c-0.752,0.3232-1.4609,0.7236-2.0522,1.252 c-0.1914,0.1729,0.0454,0.4268,0.252,0.335c0.4272-0.1885,0.8467-0.3828,1.2646-0.5791c-1.5352,2.8867-3.0112,5.8047-4.1064,8.8994 c-0.0425,0.1221,0.1406,0.2207,0.2056,0.1025c1.6484-2.9834,2.978-6.1572,4.4395-9.2529c1.0049-0.4717,2.0117-0.9287,3.0928-1.2773 c0.2773-0.0898,0.1294-0.4922-0.147-0.4229c-0.8057,0.2031-1.6611,0.4375-2.4819,0.751c0.2397-0.4951,0.4717-0.9961,0.7246-1.4863 c0.0278-0.0547,0.0591-0.1104,0.0879-0.165c0.7153-0.2969,1.3789-0.6416,2.1187-0.8828c0.6235-0.2041,1.5361-0.7568,2.2222-0.9004 c-1.0405,1.6729-2.0615,3.3574-2.9893,5.0977c-0.0684,0.1289-0.1299,0.2607-0.1982,0.3896 c-0.0527-0.0215-0.1133-0.0234-0.1777,0.0146c-0.4912,0.292-1.0342,0.4395-1.5752,0.6045 c-0.5444,0.168-1.0386,0.5361-1.4277,0.9424c-0.1436,0.1494,0.0708,0.3662,0.2358,0.2959c0.5308-0.2256,0.9321-0.6436,1.4873-0.833 c0.4067-0.1367,0.8022-0.2861,1.1807-0.4785c-0.4175,0.8096-0.8296,1.624-1.2261,2.4482c-0.0874-0.0195-0.1885,0.0127-0.2134,0.125 c-0.0503,0.0547-0.1152,0.0791-0.1943,0.0752c-0.1279,0.0264-0.1221,0.2344,0.0063,0.2539 c0.0664,0.0107,0.1265,0.0166,0.1821,0.0156c-1.2568,2.6455-2.4263,5.3428-3.583,8.0176 c-0.0693,0.1602,0.1914,0.2979,0.2739,0.1416c1.8862-3.5879,3.4233-7.3545,5.2192-10.9883 c1.5908-3.2158,3.4897-6.2705,5.2603-9.3936c0.0132-0.0166,0.0244-0.0293,0.0264-0.0498c0.3101-0.5459,0.6245-1.0898,0.9224-1.6406 c0.0352-0.0645-0.0723-0.126-0.1099-0.0645c-0.3091,0.5225-0.6304,1.04-0.9487,1.5566c-0.0063,0.002-0.0112-0.002-0.0176-0.001 c-1.3184,0.3916-2.79,0.7539-4.2896,1.1533c0.46-0.9102,0.8784-1.835,1.2329-2.7783c2.0449-0.5459,4.125-1.0049,6.0723-1.7764 C24.8193,45.3096,24.772,45.1426,24.6572,45.1768z M11.1543,54.9297c0.4893-0.8574,0.9692-1.7178,1.4385-2.5869 c1.0337-0.4023,2.0664-0.8066,3.103-1.1943c0.2905-0.1074,0.5854-0.2041,0.8789-0.3047c-0.4082,0.8115-0.8257,1.6182-1.2515,2.4189 C13.8828,53.9268,12.4575,54.2119,11.1543,54.9297z M21.4951,49.1123c-0.5625,0.9102-1.1289,1.8203-1.6958,2.7295 c-0.0176-0.0049-0.0288-0.0205-0.0493-0.0205c-1.2588-0.0127-2.8745,0.7061-4.0454,1.2695 c0.4263-0.7891,0.8628-1.5859,1.2861-2.3906C18.5044,50.2012,20.0386,49.749,21.4951,49.1123z M16.9771,50.0254 c-1.2671,0.3418-2.5469,0.709-3.7705,1.1553c0.4717-0.9023,0.9204-1.8164,1.3452-2.7422c0.5723-0.21,1.1455-0.4189,1.7231-0.6133 c0.6523-0.2197,1.3154-0.4111,1.9829-0.5938C17.853,48.1719,17.4277,49.1045,16.9771,50.0254z"/><path fill="inherit" d="M21.9653,54.915c-1.2549,2.7578-3.1802,5.2686-4.6626,7.9121c-1.8091,3.2246-3.5942,6.4121-5.0684,9.8096 c-0.0757,0.1729,0.1719,0.2754,0.2612,0.1172c1.8125-3.1875,3.4199-6.4795,5.2388-9.6641 c1.5107-2.6465,3.3037-5.2432,4.4121-8.0918C22.1924,54.8779,22.0186,54.7959,21.9653,54.915z"/><path fill="inherit" d="M20.5903,62.2285c-3.1113,4.9189-5.999,9.9805-7.3379,15.7041c-0.0259,0.1113,0.1475,0.1641,0.1885,0.0596 c2.123-5.4072,4.4849-10.5078,7.4521-15.5273C21.0161,62.2578,20.7231,62.0186,20.5903,62.2285z"/><path fill="inherit" d="M20.7603,67.8135c-2.9282,4.3613-6.6836,10.2305-6.3735,15.7422c0.0063,0.1143,0.2002,0.1289,0.2227,0.0166 c1.1704-5.71,3.4531-10.6318,6.4688-15.5635C21.187,67.8291,20.8779,67.6387,20.7603,67.8135z"/><path fill="inherit" d="M19.2461,75.8711c-2.1133,3.5059-4.1626,7.9102-4.0801,12.085c0.0034,0.1611,0.2622,0.252,0.3022,0.0664 c0.9146-4.1963,2.0488-8.1445,4.1411-11.9346C19.7412,75.8496,19.3867,75.6377,19.2461,75.8711z"/><path fill="inherit" d="M19.2466,83.3906c-1.3853,2.0635-2.1113,4.9248-1.979,7.3975c0.0112,0.2188,0.3594,0.2109,0.3794-0.002 c0.2183-2.3809,0.6411-5.0625,1.9619-7.1055C19.7681,83.4326,19.4141,83.1416,19.2466,83.3906z"/><path fill="inherit" d="M19.4048,89.6709c-0.2456,0.3506-0.4014,0.7354-0.5269,1.1426c-0.1309,0.4248-0.3208,0.9883-0.2432,1.4336 c0.0239,0.1338,0.1812,0.1748,0.2573,0.0527c0.1914-0.3086,0.2192-0.7148,0.3062-1.0654c0.1187-0.4824,0.2925-0.9434,0.582-1.3516 C19.9395,89.6572,19.5615,89.4443,19.4048,89.6709z"/></g></svg>