<?xml version="1.0" encoding="UTF-8"?><svg xmlns="http://www.w3.org/2000/svg" xmlns:xlink="http://www.w3.org/1999/xlink" contentScriptType="text/ecmascript" fill="#000000" width="1169.5" zoomAndPan="magnify" contentStyleType="text/css" viewBox="-0.9 -2.7 1169.5 1818.6" height="1818.6" preserveAspectRatio="xMidYMid meet" version="1"><defs><clipPath id="a"><path d="M 1010 242 L 1168.648438 242 L 1168.648438 568 L 1010 568 Z M 1010 242"/></clipPath><clipPath id="b"><path d="M 605 1737 L 677 1737 L 677 1815.898438 L 605 1815.898438 Z M 605 1737"/></clipPath></defs><g><g><path fill="#12100e" d="M 553.421875 481.347656 C 480.203125 487.863281 424.335938 457.160156 380.769531 400.511719 C 366.097656 381.425781 355.242188 360.148438 347.074219 337.535156 C 345.539062 333.289062 343.582031 331.574219 338.824219 330.816406 C 305.058594 325.433594 279.480469 306.917969 259.898438 279.636719 C 240.605469 252.753906 230.902344 222.375 228.410156 189.542969 C 225.609375 152.703125 232.558594 117.84375 250.386719 85.425781 C 263.078125 62.363281 280.3125 43.414062 303.894531 31.011719 C 338.207031 12.964844 372.398438 13.757812 406.242188 32.496094 C 409.058594 34.042969 411.988281 35.582031 414.375 37.6875 C 418.039062 40.917969 420.730469 40.5625 424.625 37.574219 C 451.929688 16.730469 482.679688 3.988281 516.9375 0.789062 C 554.140625 -2.675781 589.105469 5.269531 621.421875 24.027344 C 665.15625 49.40625 694.964844 86.917969 714.636719 132.90625 C 732.648438 175.003906 738.59375 219.085938 735.4375 264.5625 C 735.246094 267.226562 734.523438 269.84375 734.050781 272.472656 C 731.566406 270.734375 730.113281 268.09375 728.183594 265.878906 C 717.753906 253.902344 705.539062 245.347656 688.835938 245.421875 C 680.125 235.964844 669.363281 229.238281 658.421875 222.765625 C 649.738281 216.335938 639.84375 212.15625 630.074219 207.824219 C 598.941406 194 566.566406 184.832031 532.421875 182.734375 C 515.824219 181.722656 499.210938 181.855469 482.601562 182.414062 C 473.996094 182.703125 465.472656 183.917969 457.210938 186.34375 C 449.152344 188.707031 448.054688 191.402344 451.296875 199.035156 C 458.054688 214.933594 463 231.453125 464.0625 248.65625 C 464.839844 261.121094 462.464844 273.308594 451.324219 281.785156 C 448.378906 284.035156 446.003906 287.078125 443.570312 289.929688 C 432.09375 303.398438 426.371094 319.484375 422.714844 336.464844 C 421.472656 342.257812 421.570312 342.277344 415.574219 340.988281 C 414.785156 340.808594 413.988281 340.675781 413.210938 340.464844 C 404.0625 337.980469 394.734375 337.210938 385.289062 337.554688 C 373.417969 337.988281 369.386719 342.601562 371.050781 354.476562 C 372.53125 365.050781 377.171875 374.410156 382.964844 383.253906 C 386.09375 388.042969 389.824219 392.246094 394.546875 395.441406 C 400.839844 399.699219 406.570312 399.308594 411.933594 394.003906 C 417.28125 388.722656 422.292969 383.109375 427.445312 377.628906 C 430.992188 373.863281 431 373.839844 434.535156 377.960938 C 436.457031 380.203125 438.234375 382.574219 440.203125 384.769531 C 448.589844 394.136719 456.269531 404.175781 466.070312 412.21875 L 465.996094 412.128906 C 466.164062 413.109375 466.722656 413.734375 467.695312 413.96875 C 470.359375 417.710938 474.21875 420.195312 477.503906 423.269531 C 499.65625 443.992188 523.714844 461.996094 551.460938 474.683594 C 552.394531 475.105469 553.15625 475.910156 554 476.542969 C 553.804688 478.148438 553.613281 479.753906 553.421875 481.347656"/></g><g><path fill="#f5819a" d="M 654.917969 833.316406 C 655.023438 837.832031 658.738281 841.355469 663.25 841.214844 C 667.613281 841.078125 671.183594 837.230469 671.128906 832.714844 C 671.078125 828.125 667.539062 824.894531 662.710938 825.03125 C 657.898438 825.167969 654.8125 828.453125 654.917969 833.316406 Z M 669.046875 770.300781 C 673.53125 770.199219 677.304688 766.601562 677.398438 762.328125 C 677.496094 757.769531 673.355469 753.898438 668.550781 754.078125 C 664.421875 754.230469 660.339844 758.46875 660.507812 762.441406 C 660.683594 766.511719 664.898438 770.378906 669.046875 770.300781 Z M 673.691406 699.050781 C 677.523438 699.199219 681.8125 695.050781 682.09375 690.921875 C 682.375 686.828125 677.761719 681.980469 673.597656 681.980469 C 669.828125 681.980469 665.320312 686.328125 665.117188 690.148438 C 664.898438 694.25 669.363281 698.890625 673.691406 699.050781 Z M 530.96875 955.132812 C 533.65625 962.929688 534.113281 970.398438 534.179688 977.921875 C 534.191406 979.519531 534.445312 981.128906 534.734375 982.703125 C 535.308594 985.835938 536.890625 986.667969 539.828125 985.039062 C 544.988281 982.175781 550.210938 979.417969 555.46875 976.738281 C 581.058594 963.699219 606.734375 950.820312 632.238281 937.613281 C 641.84375 932.640625 641.667969 932.304688 636.714844 922.824219 C 633.625 916.910156 633.585938 916.8125 626.890625 919.257812 C 610.773438 925.148438 594.679688 931.097656 578.605469 937.109375 C 563.050781 942.929688 547.535156 948.859375 530.96875 955.132812 Z M 496.574219 656.199219 C 492.019531 655.25 491.363281 659.230469 489.953125 661.789062 C 483.359375 673.78125 477.890625 686.320312 472.554688 698.910156 C 458.4375 732.21875 444.796875 765.730469 429.28125 798.429688 C 428.832031 799.371094 428.144531 800.191406 427.566406 801.070312 C 425.855469 798.640625 424.519531 800.230469 422.984375 801.390625 C 417.464844 805.578125 412.210938 810.171875 405.960938 813.320312 C 399.246094 816.707031 395.59375 816.167969 389.984375 811.070312 C 383.78125 805.429688 378.828125 798.949219 375.011719 791.398438 C 364.582031 770.78125 357.582031 748.878906 350.390625 727.039062 C 349.316406 723.78125 349.019531 720.261719 348.363281 716.859375 C 352.710938 714.300781 357.054688 711.738281 361.402344 709.179688 C 361.492188 711.289062 362.9375 712.421875 364.417969 713.660156 C 374.070312 721.78125 383.667969 729.960938 393.277344 738.128906 C 398.367188 742.460938 399.125 742.339844 401.382812 736.019531 C 407.523438 718.839844 413.546875 701.609375 419.664062 684.421875 C 420.667969 681.609375 421.671875 678.851562 420.96875 675.808594 C 423.296875 674.519531 425.628906 673.25 427.945312 671.960938 C 463.960938 651.78125 499.972656 631.609375 535.976562 611.421875 C 538.3125 610.109375 540.683594 608.820312 542.859375 607.269531 C 545.191406 605.609375 546.070312 602.898438 543.507812 601.289062 C 539.28125 598.621094 536.5625 593.589844 530.953125 593.101562 C 530.730469 586.148438 532.898438 579.738281 535.464844 573.429688 C 543.023438 584.058594 550.574219 594.710938 558.15625 605.328125 C 559.175781 606.75 559.855469 608.851562 562.933594 607.800781 C 562.652344 602.929688 564.523438 598.140625 564.882812 593.101562 C 566.082031 594.011719 566.085938 595.351562 566.332031 596.671875 C 567.980469 605.589844 569.164062 614.589844 572.351562 623.191406 C 576.703125 634.941406 585.167969 639.550781 597.597656 636.960938 C 601.96875 636.039062 606.0625 633.808594 610.707031 633.808594 C 611.003906 634.839844 611.429688 635.609375 611.40625 636.359375 C 611.113281 645.75 613.519531 654.960938 613.167969 664.378906 C 612.960938 670.019531 614.328125 670.910156 619.964844 669.699219 C 622.332031 669.191406 624.675781 668.828125 627.070312 668.539062 C 640.054688 667 652.894531 664.429688 665.953125 663.429688 C 669.90625 663.128906 672.550781 661.070312 673.832031 656.789062 C 677.050781 646.019531 680.570312 635.320312 684.417969 624.761719 C 685.761719 621.078125 685.203125 618.640625 682.402344 616.289062 C 681.378906 615.429688 680.496094 614.410156 679.550781 613.460938 C 670.089844 603.980469 669.777344 603.851562 675.171875 591.800781 C 677.203125 587.261719 676.574219 583.96875 674.507812 579.871094 C 671.988281 574.871094 667.597656 570.941406 666.34375 565.269531 C 669.46875 565.109375 671.863281 564.480469 669.414062 560.628906 C 666.09375 555.421875 662.839844 550.179688 659.449219 545.019531 C 653.566406 536.050781 646.605469 527.878906 640.035156 519.429688 C 647.601562 519.28125 653.851562 523.359375 660.242188 526.371094 C 670.925781 531.410156 680.878906 537.878906 690.3125 545.039062 C 698.035156 550.910156 705.359375 557.28125 710.828125 565.378906 C 716.269531 573.441406 724.511719 578.070312 732.082031 583.53125 C 766.289062 608.179688 800.484375 632.839844 835.222656 656.738281 C 842.835938 661.980469 848.578125 661.199219 855.605469 657.101562 C 874.902344 645.859375 893.152344 633.070312 911.164062 619.929688 C 922.222656 611.851562 933.140625 603.589844 944.152344 595.460938 C 949.738281 591.328125 949.871094 591.390625 956.507812 598.148438 C 958.769531 603.96875 963.976562 607.890625 966.519531 613.53125 C 957.511719 627.511719 947.144531 640.480469 936.09375 652.828125 C 926.464844 663.578125 916.707031 674.21875 905.652344 683.679688 C 890.328125 696.808594 872.898438 703.621094 852.886719 704.109375 C 831.417969 704.628906 810.824219 700.089844 791.105469 692.050781 C 779.4375 687.300781 768.359375 681.21875 759.253906 672.058594 C 748.09375 660.839844 741.003906 647.039062 733.933594 633.199219 C 732.714844 630.808594 731.902344 628.171875 730.449219 625.949219 C 729.1875 624.019531 729.945312 620.691406 725.859375 619.449219 C 730.894531 636.671875 734.226562 653.359375 737.367188 670.089844 C 734.332031 675.179688 735.488281 681.058594 734.71875 686.5 C 731.753906 707.410156 725.023438 727.160156 717.640625 746.761719 C 710.539062 765.589844 703.035156 784.28125 696.109375 803.179688 C 692.214844 813.800781 689.773438 824.785156 690.285156 836.28125 C 690.527344 841.773438 691.769531 846.730469 694.5 851.578125 C 706.367188 872.667969 720.242188 892.5 732.96875 913.046875 C 734.476562 915.488281 737.015625 917.460938 736.765625 920.777344 C 726.929688 919.582031 718.574219 913.496094 708.722656 911.875 C 708.722656 917.570312 708.566406 922.890625 708.765625 928.195312 C 708.949219 933.261719 711.519531 936.230469 716.605469 937.914062 C 730.566406 942.527344 744.347656 947.683594 758.195312 952.625 C 762.613281 956.648438 765.050781 962.089844 768.433594 966.851562 C 770.382812 969.585938 769.507812 972.378906 768.921875 975.3125 C 765.144531 994.148438 755.148438 1008.691406 739.15625 1019.230469 C 736.269531 1021.140625 733.546875 1023.289062 730.746094 1025.328125 C 723.675781 1029.140625 716.667969 1033.078125 709.515625 1036.730469 C 704.851562 1039.121094 704.394531 1038.789062 703.605469 1033.449219 C 701.84375 1021.519531 700.21875 1009.570312 698.453125 997.652344 C 696.34375 983.414062 694.144531 969.195312 691.945312 954.738281 C 688.671875 956.371094 688.640625 959.425781 687.722656 961.757812 C 676.675781 989.96875 665.542969 1018.140625 655.050781 1046.558594 C 652.707031 1052.898438 649.199219 1055.570312 642.972656 1055.738281 C 641.09375 1055.800781 639.214844 1055.859375 637.339844 1055.910156 C 620.59375 1056.351562 604.238281 1053.480469 587.964844 1050.011719 C 568.796875 1045.929688 550.445312 1039.21875 532.132812 1032.398438 C 532.203125 1028.789062 530.519531 1025.691406 529.335938 1022.429688 C 521.71875 1001.449219 515.871094 980.167969 516.144531 957.519531 C 516.304688 943.945312 520.246094 931.730469 527.027344 920.214844 C 528.519531 917.675781 530.046875 915.148438 531.429688 912.550781 C 546.453125 884.257812 558.347656 854.707031 566.9375 823.835938 C 571.898438 806.011719 574.332031 787.738281 575.796875 769.378906 C 576.472656 760.898438 575.714844 752.339844 574.644531 743.75 C 573.25 732.570312 569.921875 722.191406 564.65625 712.589844 C 550.511719 686.789062 529.242188 667.820312 504.585938 652.398438 C 502.636719 651.179688 500.613281 649.558594 497.996094 650.039062 C 496.234375 651.851562 497.160156 654.199219 496.574219 656.199219"/></g><g><path fill="#12100e" d="M 532.132812 1032.398438 C 550.445312 1039.21875 568.796875 1045.929688 587.964844 1050.011719 C 604.238281 1053.480469 620.59375 1056.351562 637.339844 1055.910156 C 639.214844 1055.859375 641.09375 1055.800781 642.972656 1055.738281 C 649.199219 1055.570312 652.707031 1052.898438 655.050781 1046.558594 C 665.542969 1018.140625 676.675781 989.96875 687.722656 961.757812 C 688.640625 959.425781 688.671875 956.371094 691.945312 954.738281 C 694.144531 969.195312 696.34375 983.414062 698.453125 997.652344 C 700.21875 1009.570312 701.84375 1021.519531 703.605469 1033.449219 C 704.394531 1038.789062 704.851562 1039.121094 709.515625 1036.730469 C 716.667969 1033.078125 723.675781 1029.140625 730.746094 1025.328125 C 728.945312 1037.019531 724.902344 1048.140625 721.878906 1059.511719 C 716.570312 1079.460938 709.292969 1098.851562 704.980469 1119.078125 C 696.863281 1157.148438 695.269531 1195.691406 696.492188 1234.449219 C 697.296875 1259.980469 699.253906 1285.398438 703.230469 1310.628906 C 704.019531 1315.628906 702.871094 1319.210938 699.191406 1322.738281 C 692.816406 1328.859375 686.941406 1335.5 680.855469 1341.929688 C 668.21875 1353.398438 655.304688 1364.558594 642.054688 1375.320312 C 637.980469 1376.828125 634.808594 1379.828125 631.097656 1381.941406 C 621.480469 1387.410156 611.746094 1392.488281 600.179688 1391.929688 C 594.035156 1390.871094 588.351562 1388.429688 582.632812 1386.078125 C 568.136719 1377.160156 555.714844 1365.878906 544.921875 1352.761719 C 540.859375 1347.828125 536.808594 1342.890625 532.753906 1337.941406 C 536.769531 1320.441406 542.578125 1303.460938 547.667969 1286.261719 C 551.546875 1273.160156 555.640625 1260.128906 559.792969 1247.109375 C 561.554688 1241.589844 561.730469 1236.121094 560.621094 1230.460938 C 556.265625 1208.21875 547.6875 1187.378906 539.429688 1166.441406 C 525.679688 1131.550781 510.769531 1097.128906 497.816406 1061.921875 C 492.078125 1046.320312 487.46875 1030.371094 482.386719 1014.558594 C 483.210938 1013.480469 484 1012.46875 485.644531 1013.261719 C 487.804688 1014.289062 490.027344 1015.199219 492.230469 1016.148438 C 505.414062 1021.851562 518.398438 1028.039062 532.132812 1032.398438"/></g><g><path fill="#edcaae" d="M 616.738281 454.628906 C 621.46875 446.648438 621.582031 438.011719 620.644531 428.660156 C 609.972656 434.25 600.777344 432.589844 592.636719 423.128906 C 591.046875 429.621094 589.847656 435.210938 591.730469 441 C 592.039062 448.421875 593.785156 455.308594 599.425781 460.609375 C 603.851562 464.769531 609.441406 464.578125 613.570312 460.140625 C 615.019531 458.578125 616.214844 456.769531 616.738281 454.628906 Z M 658.421875 222.769531 C 669.363281 229.238281 680.121094 235.960938 688.835938 245.429688 C 683.089844 245.96875 677.234375 245.078125 671.566406 246.679688 C 670.316406 239.371094 667.414062 233.210938 659.472656 231.351562 C 652.636719 229.761719 645.972656 233.289062 641.425781 240.578125 C 650.492188 240.710938 658.199219 243.960938 664.808594 249.878906 C 660.078125 252.46875 655.789062 255.628906 651.824219 259.320312 C 635.417969 274.621094 628.4375 294.238281 625.980469 315.839844 C 625.578125 319.378906 625.03125 321.261719 621.023438 321.269531 C 616.378906 321.269531 612.1875 323.261719 608.035156 325.25 C 605.742188 326.339844 603.703125 328.539062 600.554688 327.578125 C 600.488281 326.191406 600.40625 324.871094 600.359375 323.539062 C 599.519531 299.679688 591.003906 279.269531 573.691406 262.5 C 558.625 247.898438 533.457031 245.191406 516.84375 254.21875 C 500.488281 263.121094 490.355469 277.179688 483.726562 294.28125 C 477.84375 309.441406 477.226562 325.160156 477.871094 341.050781 C 478.855469 365.441406 487.628906 386.289062 505.558594 403.339844 C 520.3125 417.359375 547.378906 419.359375 562.671875 410.261719 C 586.34375 396.191406 597.046875 373.941406 599.984375 347.761719 C 600.796875 340.46875 603.265625 336.601562 609.261719 333.679688 C 612.402344 332.148438 615.449219 330.480469 618.828125 329.519531 C 625.4375 327.640625 626.015625 327.839844 625.785156 334.539062 C 625.484375 343.25 626.832031 351.628906 629.242188 359.929688 C 629.664062 361.390625 630.628906 362.929688 629.589844 364.539062 C 626.417969 370.859375 625.050781 378.199219 619.050781 382.929688 C 618.230469 383.570312 618.203125 384.769531 619.070312 385.761719 C 621.078125 388.039062 625.664062 388.058594 630.382812 386.21875 C 633.78125 384.890625 633.351562 382.890625 632.972656 379.890625 C 632.4375 375.699219 630.289062 371.699219 631.277344 367.320312 C 636.445312 378.929688 642.761719 389.761719 652.429688 398.289062 C 661.964844 406.699219 672.558594 412.480469 685.828125 411.671875 C 687.9375 411.539062 690.082031 411.980469 692.210938 412.148438 C 692.269531 413.789062 692.085938 415.371094 691.273438 416.828125 C 680.222656 436.648438 667.472656 455.070312 649.21875 469.128906 C 633.753906 481.050781 616.464844 487.058594 596.890625 486.25 C 592.925781 486.109375 588.886719 486.421875 585.019531 485.71875 C 574.363281 483.808594 563.917969 481.03125 554 476.539062 C 553.15625 475.910156 552.394531 475.109375 551.460938 474.691406 C 523.714844 461.988281 499.65625 443.988281 477.503906 423.269531 C 474.21875 420.191406 470.355469 417.710938 467.695312 413.96875 C 467.515625 413 466.953125 412.378906 465.996094 412.128906 L 466.070312 412.21875 C 466.597656 409.371094 465.1875 407.03125 464.148438 404.550781 C 457.867188 389.53125 455.550781 373.589844 455.203125 357.578125 C 454.988281 347.578125 456.773438 337.390625 459.222656 327.53125 C 464.589844 305.96875 473.976562 286.359375 487.390625 268.539062 C 490.152344 264.871094 495.039062 262.269531 495.148438 256.761719 C 495.277344 255.890625 495.898438 255.570312 496.660156 255.410156 C 497.648438 255.03125 498.191406 254.320312 498.257812 253.261719 C 503.9375 245.351562 511.867188 241.589844 521.375 240.839844 C 526.082031 240.46875 522.941406 238.308594 522.390625 236.71875 C 523.109375 234.890625 524.507812 233.800781 526.15625 232.75 C 532.726562 228.570312 539.667969 225.210938 546.921875 222.398438 C 563.046875 216.148438 579.554688 215.519531 596.53125 217.890625 C 612.328125 220.101562 628.019531 223.519531 644.105469 223.210938 C 646.539062 223.160156 648.835938 223.621094 651.1875 224.308594 C 653.699219 225.039062 656.527344 225.660156 658.421875 222.769531"/></g><g><path fill="#e3e0df" d="M 404.886719 542.671875 C 407.632812 540.039062 411.066406 540.910156 414.0625 541.441406 C 424.019531 543.199219 434.273438 543.921875 443.460938 548.859375 C 444.328125 549.320312 445.566406 549.089844 446.636719 549.179688 C 455.585938 554.421875 464.472656 559.761719 473.496094 564.859375 C 484.925781 571.320312 496.867188 574.660156 510.304688 572.199219 C 515.460938 571.261719 520.730469 569.949219 526.097656 570.050781 C 518.597656 576.621094 509.679688 581.070312 501.367188 586.398438 C 467.5625 608.089844 433.578125 629.5 399.6875 651.050781 C 380.9375 662.980469 362.214844 674.960938 343.539062 687.011719 C 339.679688 689.5 335.613281 690.761719 331.375 688.941406 C 326.96875 687.050781 322.488281 685.351562 318.191406 683.078125 C 302.5 674.78125 288.46875 663.980469 273.6875 654.308594 C 258.019531 644.070312 241.382812 636.519531 222.488281 634.828125 C 223.492188 630.269531 227.558594 630.488281 230.730469 630.019531 C 238.480469 628.859375 246.003906 627.140625 252.625 622.800781 C 267.851562 612.820312 282.601562 602.171875 297.324219 591.460938 C 310.339844 582 323.605469 572.929688 339.015625 567.628906 C 356.753906 561.539062 374.496094 555.460938 392.21875 549.320312 C 396.765625 547.75 401.300781 546.101562 404.886719 542.671875"/></g><g><path fill="#e3e0df" d="M 12.703125 598.988281 C 12.914062 595.890625 15.601562 595.300781 17.695312 594.390625 C 36.574219 586.160156 55.515625 578.078125 74.398438 569.859375 C 88.875 563.558594 103.296875 557.140625 117.734375 550.75 C 132.167969 544.359375 146.589844 537.941406 161.019531 531.550781 C 162.695312 530.808594 164.269531 529.628906 166.253906 530.980469 C 174.773438 536.78125 184.421875 535.089844 193.570312 534.179688 C 206.789062 532.871094 219.949219 530.621094 233.003906 528.078125 C 242.960938 526.140625 253.019531 524.949219 263.039062 523.851562 C 271.996094 522.871094 281.117188 522.640625 290.210938 524.550781 C 297.484375 526.078125 303.226562 529.589844 307.609375 535.210938 C 311.875 540.660156 315.519531 546.609375 319.4375 552.339844 C 305.011719 558.261719 291.132812 565.25 277.953125 573.589844 C 242.171875 596.25 208.589844 621.929688 175.191406 647.878906 C 173.578125 649.128906 172.515625 650.460938 172.519531 652.53125 C 164.574219 656.511719 164.570312 656.511719 161.929688 649.019531 C 161.574219 648.011719 161.398438 646.921875 160.949219 645.960938 C 154.777344 632.691406 146.46875 621.390625 131.785156 616.789062 C 125.488281 614.820312 118.972656 614.308594 112.175781 614.949219 C 103.664062 615.769531 94.949219 615.929688 86.460938 615.03125 C 69.773438 613.269531 53.003906 611.5 36.75 607.109375 C 28.609375 604.910156 19.941406 603.96875 12.703125 598.988281"/></g><g><path fill="#fce0d5" d="M 582.632812 1386.078125 C 588.351562 1388.429688 594.035156 1390.871094 600.179688 1391.929688 C 599.96875 1395.121094 600.007812 1398.28125 599.398438 1401.5 C 596.730469 1415.640625 594.472656 1429.859375 592.070312 1444.050781 C 589.492188 1459.28125 586.546875 1474.46875 584.484375 1489.769531 C 583.238281 1499.019531 580.433594 1508.070312 580.773438 1517.519531 C 578.03125 1521.441406 578.449219 1526.210938 577.808594 1530.53125 C 574.984375 1549.5 572.425781 1568.519531 569.925781 1587.539062 C 568.402344 1599.140625 567.265625 1610.878906 565.929688 1622.519531 C 564.160156 1637.898438 563.609375 1653.371094 561.769531 1668.738281 C 560.828125 1676.601562 561.082031 1684.691406 562.359375 1692.769531 C 563.867188 1702.28125 563.546875 1712.03125 562.457031 1721.648438 C 561.226562 1732.488281 559.699219 1743.300781 558.300781 1754.128906 C 555.265625 1755.128906 552.207031 1756.050781 549.207031 1757.140625 C 523.699219 1766.417969 500.757812 1757.371094 487.054688 1740.648438 C 487.09375 1737.710938 487.277344 1734.769531 487.152344 1731.839844 C 486.296875 1712.238281 490.898438 1693.910156 499.65625 1676.480469 C 502.160156 1671.488281 504.230469 1666.28125 506.5 1661.171875 C 510.109375 1661.421875 513.441406 1660.640625 516.347656 1658.410156 C 526.195312 1650.871094 532.117188 1640.839844 533.863281 1628.679688 C 536.183594 1612.539062 537.484375 1596.300781 537.289062 1579.929688 C 537.007812 1556.019531 537.257812 1532.109375 537.207031 1508.191406 C 537.171875 1491.859375 538.453125 1475.640625 540.308594 1459.421875 C 542.027344 1444.46875 544.753906 1429.941406 551.320312 1416.171875 C 557.445312 1403.320312 565.605469 1393.019531 579.617188 1388.46875 C 580.96875 1388.03125 582.0625 1387.429688 582.632812 1386.078125"/></g><g><path fill="#fce0d5" d="M 642.054688 1375.320312 C 655.304688 1364.558594 668.21875 1353.398438 680.855469 1341.929688 C 681.09375 1348.480469 678.480469 1354.519531 677.199219 1360.761719 C 671.886719 1386.648438 665.6875 1412.351562 660.25 1438.210938 C 656.023438 1458.308594 652.320312 1478.53125 648.617188 1498.738281 C 645.304688 1516.828125 641.933594 1534.921875 639.261719 1553.121094 C 636.667969 1570.800781 633.785156 1588.429688 630.976562 1606.070312 C 628.519531 1621.488281 628.457031 1637.128906 629.40625 1652.609375 C 630.511719 1670.519531 636.046875 1687.160156 647.628906 1701.429688 C 654.183594 1709.511719 661.589844 1717.050781 665.421875 1727.058594 C 666.757812 1730.558594 668.289062 1733.980469 669.730469 1737.441406 C 664.1875 1759.039062 646.089844 1770.890625 625.007812 1766.890625 C 618.085938 1765.570312 611.648438 1763.019531 605.308594 1760.101562 C 602.039062 1753.800781 598.910156 1747.410156 595.414062 1741.230469 C 594.3125 1739.289062 593.589844 1737.488281 593.746094 1735.300781 C 594.882812 1734.398438 595.375 1733.167969 595.289062 1731.769531 C 594.238281 1714.871094 597.363281 1698.070312 596.824219 1681.21875 C 596.324219 1665.640625 599.480469 1650.238281 598.582031 1634.679688 C 598.550781 1634.148438 598.578125 1633.601562 598.6875 1633.078125 C 601.21875 1621.25 600.644531 1609.148438 601.492188 1597.191406 C 602.230469 1586.820312 603.378906 1576.441406 603.84375 1566.019531 C 604.128906 1559.710938 604.042969 1553.140625 605.355469 1546.898438 C 607.175781 1538.21875 607.128906 1529.390625 608.007812 1520.660156 C 609.148438 1509.25 609.816406 1497.691406 612.03125 1486.519531 C 618.90625 1451.910156 627.597656 1417.71875 640.386719 1384.71875 C 641.542969 1381.71875 642.585938 1378.640625 642.054688 1375.320312"/></g><g><path fill="#f26e89" d="M 532.132812 1032.398438 C 518.398438 1028.039062 505.414062 1021.851562 492.230469 1016.148438 C 490.027344 1015.199219 487.804688 1014.289062 485.644531 1013.261719 C 484 1012.46875 483.210938 1013.480469 482.386719 1014.558594 C 465.042969 1010.199219 465.273438 1010.03125 464.628906 993.472656 C 463.515625 964.757812 471.898438 938.210938 483.972656 912.796875 C 498.503906 882.207031 514.101562 852.121094 529.050781 821.730469 C 534.980469 809.679688 539.816406 797.140625 544.804688 784.660156 C 550.898438 769.410156 550.105469 754.300781 545.277344 739.109375 C 538.445312 717.609375 526.902344 698.578125 514.078125 680.230469 C 508.398438 672.101562 501.6875 664.730469 496.574219 656.199219 C 497.160156 654.199219 496.234375 651.851562 497.996094 650.039062 C 500.613281 649.558594 502.636719 651.179688 504.585938 652.398438 C 529.242188 667.820312 550.511719 686.789062 564.65625 712.589844 C 569.921875 722.191406 573.25 732.570312 574.644531 743.75 C 575.714844 752.339844 576.472656 760.898438 575.796875 769.378906 C 574.332031 787.738281 571.898438 806.011719 566.9375 823.835938 C 558.347656 854.707031 546.453125 884.257812 531.429688 912.550781 C 530.046875 915.148438 528.519531 917.675781 527.027344 920.214844 C 520.246094 931.730469 516.304688 943.945312 516.144531 957.519531 C 515.871094 980.167969 521.71875 1001.449219 529.335938 1022.429688 C 530.519531 1025.691406 532.203125 1028.789062 532.132812 1032.398438"/></g><g><path fill="#b4b1af" d="M 12.703125 598.988281 C 19.941406 603.96875 28.609375 604.910156 36.75 607.109375 C 53.003906 611.5 69.773438 613.269531 86.460938 615.03125 C 94.949219 615.929688 103.664062 615.769531 112.175781 614.949219 C 118.972656 614.308594 125.488281 614.820312 131.785156 616.789062 C 146.46875 621.390625 154.777344 632.691406 160.949219 645.960938 C 161.398438 646.921875 161.574219 648.011719 161.929688 649.019531 C 164.570312 656.511719 164.574219 656.511719 172.519531 652.519531 C 177.277344 651.640625 181.476562 649.289062 185.90625 647.511719 C 194.507812 644.058594 202.441406 639.019531 211.628906 636.910156 C 215.234375 636.089844 219.179688 637.089844 222.488281 634.828125 C 241.382812 636.519531 258.019531 644.070312 273.6875 654.308594 C 288.46875 663.980469 302.5 674.78125 318.191406 683.078125 C 322.488281 685.351562 326.96875 687.050781 331.375 688.941406 C 335.613281 690.761719 339.679688 689.5 343.539062 687.011719 C 362.214844 674.960938 380.9375 662.980469 399.6875 651.050781 C 433.578125 629.5 467.5625 608.089844 501.367188 586.398438 C 509.679688 581.070312 518.597656 576.621094 526.09375 570.058594 C 527.691406 568.929688 529.984375 568.828125 530.925781 566.738281 C 536.894531 565.949219 535.210938 570.351562 535.464844 573.429688 C 532.898438 579.738281 530.730469 586.148438 530.953125 593.101562 C 532.675781 597.820312 529.484375 599.53125 526.128906 601.46875 C 467.078125 635.609375 408.035156 669.761719 349.097656 704.089844 C 344.746094 706.628906 341 706.898438 336.265625 705.601562 C 244.90625 680.53125 153.511719 655.609375 62.117188 630.671875 C 43.769531 625.660156 25.414062 620.671875 7.207031 615.710938 C 5.914062 617.488281 6.191406 619.140625 6.097656 620.730469 C 5.988281 622.601562 5.820312 624.460938 5.675781 626.320312 C 4.109375 624.140625 5 621.648438 4.792969 619.300781 C 4.648438 617.691406 4.75 615.960938 3.222656 614.949219 C 1.132812 613.578125 -0.886719 612.398438 0.40625 609.28125 C 2.03125 605.359375 2.703125 600.890625 6.558594 598.28125 C 8.695312 596.839844 10.582031 599.328125 12.703125 598.988281"/></g><g><path fill="#fbccbb" d="M 582.632812 1386.078125 C 582.0625 1387.429688 580.96875 1388.03125 579.617188 1388.46875 C 565.605469 1393.019531 557.445312 1403.320312 551.320312 1416.171875 C 544.753906 1429.941406 542.027344 1444.46875 540.308594 1459.421875 C 538.453125 1475.640625 537.171875 1491.859375 537.207031 1508.191406 C 537.257812 1532.109375 537.007812 1556.019531 537.289062 1579.929688 C 537.484375 1596.300781 536.183594 1612.539062 533.863281 1628.679688 C 532.117188 1640.839844 526.195312 1650.871094 516.347656 1658.410156 C 513.441406 1660.640625 510.109375 1661.421875 506.5 1661.171875 C 508.824219 1652.011719 513.714844 1643.910156 517.347656 1635.300781 C 519.6875 1629.738281 520.03125 1624.320312 519.007812 1618.808594 C 517.144531 1608.761719 518.730469 1598.570312 517.433594 1588.589844 C 515.902344 1576.839844 516.660156 1565.070312 515.992188 1553.328125 C 515.652344 1547.28125 514.8125 1541.238281 514.773438 1535.191406 C 514.625 1511.828125 514.097656 1488.449219 514.921875 1465.121094 C 515.421875 1451.011719 515.78125 1436.839844 517.480469 1422.738281 C 518.496094 1414.289062 518.289062 1405.671875 519.457031 1397.171875 C 522.21875 1377.039062 525.058594 1356.949219 532.75 1337.941406 C 536.808594 1342.890625 540.859375 1347.828125 544.921875 1352.761719 C 555.714844 1365.878906 568.136719 1377.160156 582.632812 1386.078125"/></g><g><path fill="#ed222a" d="M 5.675781 626.320312 C 5.820312 624.460938 5.988281 622.601562 6.097656 620.730469 C 6.191406 619.140625 5.914062 617.488281 7.207031 615.710938 C 25.414062 620.671875 43.769531 625.660156 62.117188 630.671875 C 153.511719 655.609375 244.90625 680.53125 336.265625 705.601562 C 341 706.898438 344.746094 706.628906 349.097656 704.089844 C 408.035156 669.761719 467.078125 635.609375 526.128906 601.46875 C 529.484375 599.53125 532.675781 597.820312 530.953125 593.101562 C 536.5625 593.589844 539.28125 598.621094 543.507812 601.289062 C 546.070312 602.898438 545.191406 605.609375 542.859375 607.269531 C 540.683594 608.820312 538.3125 610.109375 535.976562 611.421875 C 499.972656 631.609375 463.960938 651.78125 427.945312 671.960938 C 425.628906 673.25 423.296875 674.519531 420.96875 675.808594 C 401.113281 686.929688 381.257812 698.050781 361.402344 709.179688 C 357.054688 711.738281 352.710938 714.300781 348.363281 716.859375 C 344.253906 719.421875 340.070312 719.550781 335.410156 718.140625 C 324.902344 714.980469 314.328125 711.949219 303.652344 709.429688 C 297.210938 707.910156 291.0625 704.738281 284.15625 705.429688 L 284.085938 705.410156 C 283.859375 704.199219 282.996094 704.101562 282.011719 704.21875 C 271.09375 699.648438 259.460938 697.511719 248.113281 694.441406 C 169.738281 673.289062 91.320312 652.289062 12.945312 631.128906 C 10.195312 630.390625 6.03125 631.011719 5.675781 626.320312"/></g><g><path fill="#ed222a" d="M 484.644531 330.941406 C 484.980469 353.121094 490.332031 372.199219 502.757812 388.921875 C 510.769531 399.699219 521.546875 406.761719 534.890625 408.519531 C 548.59375 410.320312 560.066406 404.480469 569.875 395.351562 C 579.992188 385.921875 585.574219 373.820312 589.488281 360.789062 C 598.011719 332.378906 594.015625 305.601562 578.738281 280.488281 C 571.484375 268.570312 560.9375 260.179688 547.140625 257.359375 C 530.3125 253.921875 516.410156 260.53125 505.519531 272.96875 C 490.710938 289.878906 485.351562 310.398438 484.644531 330.941406 Z M 637.261719 299.808594 C 635.34375 303.050781 634.515625 306.609375 634.265625 310.320312 C 634.019531 311.789062 633.769531 313.25 633.523438 314.710938 C 632.550781 315.808594 632.722656 317.058594 633.015625 318.328125 C 632.15625 322.648438 632.382812 326.96875 632.867188 331.300781 C 631.761719 338.949219 633.9375 346.199219 635.820312 353.421875 C 639.589844 367.878906 645.390625 381.46875 656.714844 391.671875 C 669.175781 402.898438 683.40625 408.441406 700.265625 402.039062 C 710.082031 398.921875 717.613281 392.660156 723.773438 384.640625 C 730.398438 376.019531 734.597656 366.21875 737.628906 355.839844 C 744.351562 332.808594 742.902344 310.410156 732.703125 288.640625 C 726.390625 271.449219 715.332031 259.109375 697.210938 254.011719 C 692.578125 252.730469 687.957031 251.941406 683.070312 252.71875 C 668.351562 255.070312 656.949219 262.429688 648.777344 274.859375 C 644.207031 280.75 640.800781 287.210938 639.070312 294.5 C 637.617188 295.980469 637.144531 297.800781 637.261719 299.808594 Z M 692.210938 412.148438 C 690.082031 411.980469 687.9375 411.539062 685.828125 411.671875 C 672.558594 412.480469 661.964844 406.699219 652.429688 398.289062 C 642.761719 389.761719 636.445312 378.929688 631.277344 367.328125 C 631.277344 367.328125 631.070312 366.960938 631.070312 366.960938 C 630.9375 365.960938 630.953125 364.859375 629.503906 364.820312 L 629.589844 364.539062 C 630.628906 362.929688 629.664062 361.390625 629.242188 359.929688 C 626.832031 351.628906 625.484375 343.25 625.785156 334.539062 C 626.015625 327.839844 625.4375 327.640625 618.828125 329.519531 C 615.449219 330.480469 612.402344 332.148438 609.261719 333.679688 C 603.265625 336.601562 600.796875 340.46875 599.984375 347.761719 C 597.046875 373.941406 586.34375 396.191406 562.671875 410.261719 C 547.378906 419.359375 520.3125 417.359375 505.558594 403.339844 C 487.628906 386.289062 478.855469 365.441406 477.871094 341.050781 C 477.226562 325.160156 477.84375 309.441406 483.726562 294.28125 C 490.355469 277.179688 500.488281 263.121094 516.84375 254.21875 C 533.457031 245.191406 558.625 247.898438 573.691406 262.5 C 591.003906 279.269531 599.519531 299.679688 600.359375 323.539062 C 600.40625 324.871094 600.488281 326.191406 600.554688 327.578125 C 603.703125 328.539062 605.742188 326.339844 608.035156 325.25 C 612.1875 323.261719 616.378906 321.269531 621.023438 321.269531 C 625.03125 321.261719 625.578125 319.378906 625.980469 315.839844 C 628.4375 294.238281 635.417969 274.621094 651.824219 259.320312 C 655.789062 255.628906 660.078125 252.46875 664.808594 249.871094 C 667.265625 249.238281 669.613281 248.378906 671.566406 246.679688 C 677.234375 245.078125 683.089844 245.96875 688.835938 245.429688 C 705.539062 245.339844 717.753906 253.898438 728.183594 265.878906 C 730.113281 268.101562 731.566406 270.738281 734.050781 272.46875 C 740.488281 284.03125 745.765625 296.070312 747.332031 309.308594 C 750.390625 335.101562 749.097656 360.320312 734.460938 382.980469 C 724.476562 398.421875 711.265625 409.628906 692.210938 412.148438"/></g><g><path fill="#fbccbb" d="M 642.054688 1375.320312 C 642.585938 1378.640625 641.542969 1381.71875 640.386719 1384.71875 C 627.597656 1417.71875 618.90625 1451.910156 612.03125 1486.519531 C 609.816406 1497.691406 609.148438 1509.25 608.007812 1520.660156 C 607.128906 1529.390625 607.175781 1538.21875 605.355469 1546.898438 C 604.042969 1553.140625 604.128906 1559.710938 603.84375 1566.019531 C 603.378906 1576.441406 602.230469 1586.820312 601.492188 1597.191406 C 600.644531 1609.148438 601.21875 1621.25 598.6875 1633.078125 C 598.578125 1633.601562 598.550781 1634.148438 598.582031 1634.679688 C 599.480469 1650.238281 596.324219 1665.640625 596.824219 1681.21875 C 597.363281 1698.070312 594.238281 1714.871094 595.289062 1731.769531 C 595.375 1733.167969 594.882812 1734.398438 593.746094 1735.300781 C 592.078125 1732.667969 592.03125 1729.71875 592.097656 1726.761719 C 592.480469 1710.460938 591.535156 1694.148438 593.019531 1677.828125 C 594.679688 1659.578125 592.308594 1641.300781 591.742188 1623.050781 C 591.292969 1608.441406 589.78125 1593.800781 588.609375 1579.191406 C 587.695312 1567.828125 586.429688 1556.429688 584.566406 1545.109375 C 583.453125 1538.320312 583.429688 1531.308594 582.492188 1524.429688 C 582.164062 1522.019531 582.070312 1519.648438 580.773438 1517.519531 C 580.433594 1508.070312 583.238281 1499.019531 584.484375 1489.769531 C 586.546875 1474.46875 589.492188 1459.28125 592.070312 1444.050781 C 594.472656 1429.859375 596.730469 1415.640625 599.398438 1401.5 C 600.007812 1398.28125 599.96875 1395.121094 600.179688 1391.929688 C 611.746094 1392.488281 621.480469 1387.410156 631.097656 1381.941406 C 634.808594 1379.828125 637.980469 1376.828125 642.054688 1375.320312"/></g><g><path fill="#f26e89" d="M 737.367188 670.089844 C 734.226562 653.359375 730.894531 636.671875 725.859375 619.449219 C 729.945312 620.691406 729.1875 624.019531 730.449219 625.949219 C 731.902344 628.171875 732.714844 630.808594 733.933594 633.199219 C 741.003906 647.039062 748.09375 660.839844 759.253906 672.058594 C 768.359375 681.21875 779.4375 687.300781 791.105469 692.050781 C 810.824219 700.089844 831.417969 704.628906 852.886719 704.109375 C 872.898438 703.621094 890.328125 696.808594 905.652344 683.679688 C 916.707031 674.21875 926.464844 663.578125 936.09375 652.828125 C 947.144531 640.480469 957.511719 627.511719 966.519531 613.53125 C 969.371094 615.109375 971.046875 617.789062 973.027344 620.230469 C 976.136719 624.050781 978.714844 628.339844 982.578125 631.53125 C 982.660156 632.058594 982.710938 632.589844 982.835938 633.121094 C 983.539062 636.050781 987.703125 637.578125 986.976562 640.570312 C 986.230469 643.640625 982.738281 645.179688 980.324219 647.238281 C 953.726562 669.898438 926.265625 691.429688 896.652344 710.058594 C 885.976562 716.78125 874.886719 722.738281 863.242188 727.78125 C 848.605469 734.109375 834.726562 733.128906 820.632812 726.320312 C 804.605469 718.570312 789.5 709.339844 775.179688 698.859375 C 762.398438 689.511719 749.960938 679.691406 737.367188 670.089844"/></g><g clip-path="url(#a)"><path fill="#524540" d="M 1015.46875 541.621094 C 1027.078125 517.75 1038.71875 493.878906 1050.300781 469.988281 C 1080.371094 407.910156 1110.410156 345.820312 1142.621094 284.808594 C 1148.25 274.128906 1154.238281 263.628906 1160.238281 253.148438 C 1162.308594 249.53125 1164.5 245.890625 1168.449219 242.28125 C 1169.328125 247.988281 1167.179688 252.039062 1165.699219 256.089844 C 1157.628906 278.300781 1148.148438 299.929688 1138.578125 321.519531 C 1104.121094 399.300781 1067.671875 476.160156 1030.371094 552.628906 C 1028.859375 555.71875 1026.351562 558.371094 1026.03125 562.019531 C 1020.710938 563.679688 1015.378906 565.351562 1010.058594 567.019531 C 1010.25 565.089844 1011.148438 563.648438 1012.730469 562.449219 C 1017.738281 558.621094 1018.480469 553.441406 1017.128906 547.691406 C 1016.648438 545.648438 1016.03125 543.640625 1015.46875 541.621094"/></g><g><path fill="#d8d4d3" d="M 222.488281 634.828125 C 219.179688 637.089844 215.234375 636.089844 211.628906 636.910156 C 202.441406 639.019531 194.507812 644.058594 185.90625 647.511719 C 181.476562 649.289062 177.277344 651.640625 172.519531 652.519531 C 172.515625 650.460938 173.578125 649.128906 175.191406 647.878906 C 208.589844 621.929688 242.171875 596.25 277.953125 573.589844 C 291.132812 565.25 305.011719 558.261719 319.4375 552.339844 C 329.695312 551 339.945312 549.570312 350.222656 548.359375 C 357.074219 547.550781 363.816406 545.570312 370.785156 545.980469 C 375.414062 546.261719 379.832031 544.878906 384.179688 544.011719 C 391.109375 542.621094 397.980469 542.929688 404.886719 542.671875 C 401.300781 546.101562 396.765625 547.75 392.21875 549.320312 C 374.496094 555.460938 356.753906 561.539062 339.015625 567.628906 C 323.605469 572.929688 310.339844 582 297.324219 591.460938 C 282.601562 602.171875 267.851562 612.820312 252.625 622.800781 C 246.003906 627.140625 238.480469 628.859375 230.730469 630.019531 C 227.558594 630.488281 223.492188 630.269531 222.488281 634.828125"/></g><g><path fill="#f26e89" d="M 284.15625 705.429688 C 291.0625 704.738281 297.210938 707.910156 303.652344 709.429688 C 314.328125 711.949219 324.902344 714.980469 335.410156 718.140625 C 340.070312 719.550781 344.253906 719.421875 348.363281 716.859375 C 349.019531 720.261719 349.316406 723.78125 350.390625 727.039062 C 357.582031 748.878906 364.582031 770.78125 375.011719 791.398438 C 378.828125 798.949219 383.78125 805.429688 389.984375 811.070312 C 395.59375 816.167969 399.246094 816.707031 405.960938 813.320312 C 412.210938 810.171875 417.464844 805.578125 422.984375 801.390625 C 424.519531 800.230469 425.855469 798.640625 427.566406 801.070312 C 423.246094 811.550781 417.636719 821.25 409.773438 829.480469 C 403.148438 836.414062 400.152344 836.714844 392.40625 831.410156 C 383.0625 825.015625 374.953125 817.160156 367.457031 808.769531 C 352.472656 792.011719 337.546875 775.179688 323.566406 757.550781 C 310.921875 741.601562 298.230469 725.699219 285.570312 709.761719 C 284.582031 708.511719 283.472656 707.25 284.15625 705.429688"/></g><g><path fill="#ec135a" d="M 535.464844 573.429688 C 535.210938 570.351562 536.894531 565.949219 530.921875 566.738281 C 530.546875 563.679688 528.421875 561.480469 527.070312 558.890625 C 520.945312 547.128906 512.234375 536.21875 514.46875 521.621094 C 522.15625 503.980469 536.679688 497.109375 554.855469 495.988281 C 554.835938 506.378906 547.742188 511.539062 539.570312 515.839844 C 540.265625 516.898438 540.566406 517.730469 541.152344 518.191406 C 562.253906 534.808594 583.027344 551.871094 606.433594 565.289062 C 607.828125 566.089844 609.328125 566.75 609.914062 568.429688 C 601.179688 570.558594 592.347656 571.859375 583.332031 571.941406 C 580.859375 571.960938 578.011719 570.789062 575.964844 573.339844 C 572.234375 573.460938 570.683594 576.171875 569.109375 578.980469 C 566.644531 583.390625 565.574219 588.179688 564.886719 593.101562 C 564.523438 598.140625 562.652344 602.929688 562.933594 607.800781 C 559.855469 608.851562 559.175781 606.75 558.15625 605.328125 C 550.574219 594.710938 543.023438 584.058594 535.464844 573.429688"/></g><g><path fill="#e7bd98" d="M 609.917969 568.429688 C 609.328125 566.75 607.828125 566.089844 606.433594 565.289062 C 583.027344 551.871094 562.253906 534.808594 541.152344 518.191406 C 540.566406 517.730469 540.265625 516.898438 539.570312 515.839844 C 547.742188 511.539062 554.835938 506.378906 554.855469 495.988281 C 554.453125 491.101562 555.890625 486.03125 553.417969 481.351562 C 553.613281 479.75 553.804688 478.148438 554 476.539062 C 563.917969 481.03125 574.363281 483.808594 585.019531 485.71875 C 588.886719 486.421875 592.925781 486.109375 596.890625 486.25 C 597.152344 489.808594 595.703125 493.609375 598.433594 496.808594 C 595.015625 502.679688 595.773438 508.480469 598.746094 514.230469 C 606.769531 529.75 614.78125 545.28125 619.546875 562.210938 C 618.21875 568.53125 618.21875 568.53125 609.917969 568.429688"/></g><g><path fill="#191513" d="M 487.054688 1740.648438 C 500.757812 1757.371094 523.699219 1766.417969 549.207031 1757.140625 C 552.207031 1756.050781 555.265625 1755.128906 558.300781 1754.128906 C 559.394531 1762.148438 554.480469 1768.359375 551.585938 1775.050781 C 546.175781 1787.578125 536.878906 1797.308594 526.875 1806.289062 C 520.605469 1811.910156 513.160156 1811.269531 506.636719 1805.5 C 499.964844 1799.601562 496.257812 1791.820312 493.351562 1783.820312 C 488.957031 1771.75 486.761719 1759.070312 485.445312 1746.289062 C 485.242188 1744.328125 484.371094 1741.910156 487.054688 1740.648438"/></g><g><path fill="#f5819a" d="M 514.46875 521.621094 C 512.234375 536.21875 520.945312 547.128906 527.070312 558.890625 C 528.421875 561.480469 530.546875 563.679688 530.921875 566.738281 C 529.984375 568.828125 527.691406 568.929688 526.09375 570.058594 C 520.730469 569.949219 515.460938 571.261719 510.304688 572.199219 C 496.867188 574.660156 484.925781 571.320312 473.496094 564.859375 C 464.472656 559.761719 455.585938 554.421875 446.636719 549.179688 C 453.023438 540.621094 461.601562 535.78125 472.019531 533.691406 C 486.480469 530.789062 500.359375 525.800781 514.46875 521.621094"/></g><g clip-path="url(#b)"><path fill="#191513" d="M 605.308594 1760.101562 C 611.648438 1763.019531 618.085938 1765.570312 625.007812 1766.890625 C 646.089844 1770.890625 664.1875 1759.039062 669.730469 1737.441406 C 674.902344 1738.710938 673.464844 1743.859375 673.9375 1746.699219 C 677.511719 1768.101562 678.324219 1789.589844 672.839844 1810.910156 C 671.335938 1816.75 671.238281 1816.929688 666.289062 1814.167969 C 644.152344 1801.789062 625.070312 1785.699219 608.671875 1766.410156 C 607.136719 1764.601562 605.695312 1762.589844 605.308594 1760.101562"/></g><g><path fill="#e7bd98" d="M 1010.058594 567.019531 C 1015.378906 565.351562 1020.710938 563.679688 1026.03125 562.019531 C 1031.839844 561 1037.671875 560.191406 1043.578125 560.628906 C 1048.171875 560.980469 1053.769531 561.390625 1054.878906 566.351562 C 1056.121094 571.960938 1050.238281 573.460938 1046.261719 575.371094 C 1039.261719 578.71875 1031.710938 580.148438 1023.949219 580.421875 C 1024.140625 583.480469 1026.121094 582.820312 1027.5 582.96875 C 1029.371094 583.179688 1031.210938 583.289062 1032.988281 584.058594 C 1038.179688 586.328125 1038.921875 589.230469 1034.839844 593.058594 C 1032.191406 595.558594 1030.898438 597.621094 1030.378906 601.871094 C 1029.359375 610.171875 1025.378906 617.480469 1015.460938 620.070312 C 1006.261719 622.46875 997.136719 623.78125 987.710938 623.609375 C 985.867188 623.421875 983.949219 623.5 982.203125 622.988281 C 978.445312 621.871094 976.765625 619.269531 978.027344 615.761719 C 980.457031 609.03125 983.082031 602.339844 986.105469 595.851562 C 987.660156 592.511719 990.257812 589.648438 994.453125 589.25 C 1000.96875 585.398438 1008.140625 583.78125 1015.550781 583 C 1016.5 582.820312 1017.449219 582.648438 1018.398438 582.480469 C 1018.050781 581.289062 1016.960938 581.410156 1016.078125 581.140625 C 1014.121094 580.558594 1012.148438 580.011719 1010.191406 579.398438 C 1006.140625 578.140625 1004.171875 575.621094 1005.320312 571.238281 C 1005.988281 569.789062 1007.011719 568.761719 1008.660156 568.488281 C 1009.148438 567.949219 1009.660156 567.398438 1010.148438 566.859375 L 1010.058594 567.019531"/></g><g><path fill="#fbccbb" d="M 994.453125 589.25 C 990.257812 589.648438 987.660156 592.511719 986.105469 595.851562 C 983.082031 602.339844 980.457031 609.03125 978.027344 615.761719 C 976.765625 619.269531 978.445312 621.871094 982.203125 622.988281 C 983.949219 623.5 985.867188 623.421875 987.710938 623.609375 C 986.636719 626.660156 985.84375 629.898438 982.578125 631.53125 C 978.714844 628.339844 976.136719 624.050781 973.027344 620.230469 C 971.046875 617.789062 969.371094 615.109375 966.519531 613.53125 C 963.976562 607.890625 958.769531 603.96875 956.507812 598.148438 C 961.058594 594.628906 963.125 589.820312 963.242188 584.238281 C 963.390625 577.21875 964.871094 570.390625 966.890625 563.828125 C 970.164062 553.171875 976.996094 546.558594 989.113281 550.109375 C 991.761719 550.878906 993.785156 549.949219 996.007812 549.039062 C 999.835938 547.46875 1002.78125 544.769531 1005.390625 541.671875 C 1010.171875 536 1010.140625 535.980469 1015.46875 541.621094 C 1016.03125 543.640625 1016.648438 545.648438 1017.128906 547.691406 C 1018.480469 553.441406 1017.738281 558.621094 1012.730469 562.449219 C 1011.148438 563.648438 1010.25 565.089844 1010.058594 567.019531 L 1010.148438 566.859375 C 1009.648438 567.398438 1009.148438 567.941406 1008.660156 568.488281 C 1007.011719 568.761719 1005.988281 569.789062 1005.320312 571.238281 C 998.90625 575.558594 995.539062 581.71875 994.453125 589.25"/></g><g><path fill="#ec135a" d="M 619.546875 562.210938 C 614.78125 545.28125 606.769531 529.75 598.746094 514.230469 C 595.773438 508.480469 595.015625 502.679688 598.433594 496.808594 C 610.886719 501.300781 622.722656 506.921875 633.195312 515.179688 C 635.289062 516.828125 637.746094 518.03125 640.035156 519.429688 C 646.605469 527.878906 653.566406 536.050781 659.449219 545.019531 C 662.839844 550.179688 666.09375 555.421875 669.414062 560.628906 C 671.863281 564.480469 669.46875 565.109375 666.34375 565.269531 L 666.386719 565.339844 C 666.8125 563.738281 665.953125 562.789062 664.726562 562.03125 C 659.667969 557.691406 654.453125 553.570312 648.378906 550.710938 C 644.628906 548.941406 640.894531 547.890625 637.21875 550.878906 C 630.152344 552.828125 625.589844 558.671875 619.546875 562.210938"/></g><g><path fill="#ec135a" d="M 758.195312 952.625 C 744.347656 947.683594 730.566406 942.527344 716.605469 937.914062 C 711.519531 936.230469 708.949219 933.261719 708.765625 928.195312 C 708.566406 922.890625 708.722656 917.570312 708.722656 911.875 C 718.574219 913.496094 726.929688 919.582031 736.765625 920.777344 C 745.4375 930.367188 752.222656 941.226562 758.195312 952.625"/></g><g><path fill="#f26e89" d="M 282.011719 704.21875 C 282.996094 704.101562 283.859375 704.199219 284.085938 705.410156 C 282.929688 705.820312 282.367188 705.199219 282.011719 704.21875"/></g><g><path fill="#e7bd98" d="M 495.148438 256.769531 C 495.035156 262.273438 490.152344 264.878906 487.386719 268.550781 C 473.976562 286.375 464.589844 305.972656 459.222656 327.539062 C 456.769531 337.394531 454.984375 347.582031 455.203125 357.585938 C 455.550781 373.597656 457.867188 389.539062 464.148438 404.554688 C 465.183594 407.03125 466.597656 409.367188 466.070312 412.226562 C 456.269531 404.183594 448.585938 394.148438 440.199219 384.777344 C 438.234375 382.578125 436.457031 380.214844 434.535156 377.96875 C 431 373.847656 430.992188 373.867188 427.445312 377.636719 C 422.292969 383.113281 417.277344 388.734375 411.933594 394.007812 C 406.566406 399.3125 400.835938 399.703125 394.546875 395.441406 C 389.824219 392.246094 386.09375 388.042969 382.960938 383.261719 C 377.167969 374.410156 372.53125 365.054688 371.046875 354.476562 C 369.382812 342.609375 373.414062 337.996094 385.285156 337.566406 C 394.734375 337.214844 404.0625 337.984375 413.210938 340.472656 C 413.988281 340.683594 414.785156 340.824219 415.574219 340.992188 C 421.570312 342.289062 421.46875 342.257812 422.714844 336.460938 C 426.367188 319.488281 432.089844 303.40625 443.566406 289.945312 C 446 287.085938 448.375 284.039062 451.324219 281.792969 C 462.460938 273.320312 464.835938 261.128906 464.0625 248.667969 C 462.996094 231.464844 458.054688 214.941406 451.292969 199.042969 C 448.050781 191.402344 449.152344 188.714844 457.210938 186.347656 C 465.472656 183.921875 473.996094 182.710938 482.597656 182.417969 C 499.207031 181.867188 515.824219 181.726562 532.417969 182.738281 C 566.566406 184.835938 598.941406 194.007812 630.074219 207.832031 C 639.839844 212.164062 649.738281 216.34375 658.417969 222.773438 C 656.527344 225.660156 653.695312 225.046875 651.1875 224.316406 C 648.832031 223.632812 646.539062 223.164062 644.101562 223.214844 C 628.019531 223.535156 612.324219 220.105469 596.53125 217.898438 C 579.554688 215.535156 563.042969 216.15625 546.921875 222.402344 C 539.667969 225.21875 532.726562 228.578125 526.15625 232.757812 C 524.503906 233.800781 523.105469 234.894531 522.386719 236.726562 C 519.878906 235.253906 517.492188 233.507812 514.84375 232.355469 C 508.917969 229.761719 502.523438 230.792969 498.8125 235.445312 C 493.789062 241.742188 491.59375 248.839844 495.148438 256.769531"/></g><g><path fill="#e7bd98" d="M 465.996094 412.128906 C 466.953125 412.378906 467.515625 413 467.695312 413.96875 C 466.722656 413.730469 466.164062 413.109375 465.996094 412.128906"/></g><g><path fill="#e04d66" d="M 637.21875 550.878906 C 640.894531 547.890625 644.628906 548.941406 648.378906 550.710938 C 654.453125 553.570312 659.667969 557.691406 664.726562 562.03125 C 664.738281 563.398438 664.945312 564.679688 666.386719 565.339844 L 666.34375 565.269531 C 667.597656 570.941406 671.988281 574.871094 674.507812 579.871094 C 676.574219 583.96875 677.203125 587.261719 675.171875 591.800781 C 669.777344 603.851562 670.089844 603.980469 679.550781 613.460938 C 680.496094 614.410156 681.378906 615.429688 682.402344 616.289062 C 685.203125 618.640625 685.761719 621.078125 684.417969 624.761719 C 680.570312 635.320312 677.050781 646.019531 673.832031 656.789062 C 672.550781 661.070312 669.90625 663.128906 665.953125 663.429688 C 652.894531 664.429688 640.054688 667 627.070312 668.539062 C 624.675781 668.828125 622.332031 669.191406 619.964844 669.699219 C 614.328125 670.910156 612.960938 670.019531 613.167969 664.378906 C 613.519531 654.960938 611.113281 645.75 611.40625 636.359375 C 611.429688 635.609375 611.003906 634.839844 610.707031 633.808594 C 606.0625 633.808594 601.96875 636.039062 597.597656 636.960938 C 585.167969 639.550781 576.703125 634.941406 572.351562 623.191406 C 569.164062 614.589844 567.980469 605.589844 566.332031 596.671875 C 566.085938 595.351562 566.082031 594.011719 564.882812 593.101562 C 565.574219 588.179688 566.644531 583.390625 569.109375 578.980469 C 570.683594 576.171875 572.234375 573.460938 575.964844 573.339844 C 578.316406 576.238281 580.71875 579.089844 583.003906 582.039062 C 596.996094 600.078125 611.148438 617.941406 627.808594 633.71875 C 638.605469 643.949219 651.609375 648.691406 666.832031 652.28125 C 660.121094 616.960938 652.730469 582.78125 637.21875 550.878906"/></g><g><path fill="#ec135a" d="M 530.96875 955.132812 C 547.535156 948.859375 563.050781 942.929688 578.605469 937.109375 C 594.679688 931.097656 610.773438 925.148438 626.890625 919.257812 C 633.585938 916.8125 633.625 916.910156 636.714844 922.824219 C 641.667969 932.304688 641.84375 932.640625 632.238281 937.613281 C 606.734375 950.820312 581.058594 963.699219 555.46875 976.738281 C 550.210938 979.417969 544.988281 982.175781 539.828125 985.039062 C 536.890625 986.667969 535.308594 985.835938 534.734375 982.703125 C 534.445312 981.128906 534.191406 979.519531 534.179688 977.921875 C 534.113281 970.398438 533.65625 962.929688 530.96875 955.132812"/></g><g><path fill="#ffffff" d="M 673.691406 699.050781 C 669.363281 698.890625 664.898438 694.25 665.117188 690.148438 C 665.320312 686.328125 669.828125 681.980469 673.597656 681.980469 C 677.761719 681.980469 682.375 686.828125 682.09375 690.921875 C 681.8125 695.050781 677.523438 699.199219 673.691406 699.050781"/></g><g><path fill="#ffffff" d="M 669.046875 770.300781 C 664.898438 770.378906 660.683594 766.511719 660.507812 762.441406 C 660.339844 758.46875 664.421875 754.230469 668.550781 754.078125 C 673.355469 753.898438 677.496094 757.769531 677.398438 762.328125 C 677.304688 766.601562 673.53125 770.199219 669.046875 770.300781"/></g><g><path fill="#ffffff" d="M 654.917969 833.316406 C 654.8125 828.453125 657.898438 825.167969 662.710938 825.03125 C 667.539062 824.894531 671.078125 828.125 671.128906 832.714844 C 671.183594 837.230469 667.613281 841.078125 663.25 841.214844 C 658.738281 841.355469 655.023438 837.832031 654.917969 833.316406"/></g><g><path fill="#191513" d="M 591.730469 441 C 589.847656 435.210938 591.046875 429.621094 592.636719 423.128906 C 600.777344 432.589844 609.972656 434.25 620.644531 428.660156 C 621.582031 438.011719 621.46875 446.648438 616.738281 454.621094 C 611.3125 444.738281 604.160156 438.03125 591.730469 441"/></g><g><path fill="#e04d66" d="M 591.730469 441 C 604.160156 438.03125 611.3125 444.738281 616.738281 454.621094 C 616.214844 456.769531 615.019531 458.578125 613.570312 460.140625 C 609.441406 464.578125 603.851562 464.769531 599.425781 460.609375 C 593.785156 455.308594 592.039062 448.421875 591.730469 441"/></g><g><path fill="#191513" d="M 495.148438 256.761719 C 491.59375 248.839844 493.789062 241.730469 498.816406 235.441406 C 502.527344 230.789062 508.921875 229.761719 514.847656 232.351562 C 517.492188 233.511719 519.882812 235.25 522.390625 236.71875 C 522.941406 238.308594 526.082031 240.46875 521.375 240.839844 C 511.867188 241.589844 503.9375 245.351562 498.257812 253.261719 C 497.25 253.621094 496.753906 254.371094 496.660156 255.410156 C 495.898438 255.570312 495.277344 255.890625 495.148438 256.761719"/></g><g><path fill="#191513" d="M 671.566406 246.679688 C 669.613281 248.378906 667.265625 249.238281 664.808594 249.871094 C 658.199219 243.960938 650.492188 240.710938 641.425781 240.578125 C 645.972656 233.289062 652.636719 229.761719 659.472656 231.351562 C 667.414062 233.210938 670.316406 239.371094 671.566406 246.679688"/></g><g><path fill="#e7bd98" d="M 631.070312 366.960938 C 631.070312 366.960938 631.277344 367.328125 631.277344 367.328125 C 630.289062 371.699219 632.4375 375.699219 632.972656 379.890625 C 633.351562 382.890625 633.78125 384.890625 630.382812 386.21875 C 625.664062 388.058594 621.078125 388.039062 619.070312 385.761719 C 618.203125 384.769531 618.230469 383.570312 619.050781 382.929688 C 625.050781 378.199219 626.417969 370.859375 629.589844 364.539062 L 629.503906 364.828125 C 629.585938 365.871094 630.183594 366.519531 631.070312 366.960938"/></g><g><path fill="#e7bd98" d="M 496.660156 255.410156 C 496.753906 254.371094 497.25 253.621094 498.257812 253.261719 C 498.191406 254.320312 497.648438 255.03125 496.660156 255.410156"/></g><g><path fill="#edcaae" d="M 537.570312 276.898438 C 536.566406 275.640625 535.679688 274.269531 534.535156 273.160156 C 527.800781 266.601562 520.742188 266.589844 513.953125 273.011719 C 511.78125 275.070312 510.023438 277.378906 508.738281 280.101562 C 502.023438 294.300781 502.261719 308.488281 508.679688 322.71875 C 510.382812 326.5 513.046875 329.511719 516.292969 331.941406 C 521.054688 335.5 526.046875 335.378906 531.1875 332.089844 C 535.957031 329.03125 538.535156 324.421875 540.4375 319.328125 C 545.144531 306.738281 544.585938 294.140625 540.363281 281.558594 C 547.496094 274.699219 548.707031 270.398438 545.425781 263.210938 C 543.386719 268.171875 542.667969 273.808594 537.570312 276.898438 Z M 484.644531 330.941406 C 485.351562 310.398438 490.710938 289.878906 505.519531 272.96875 C 516.410156 260.53125 530.3125 253.921875 547.140625 257.359375 C 560.9375 260.179688 571.484375 268.570312 578.738281 280.488281 C 594.015625 305.601562 598.011719 332.378906 589.488281 360.789062 C 585.574219 373.820312 579.992188 385.921875 569.875 395.351562 C 560.066406 404.480469 548.59375 410.320312 534.890625 408.519531 C 521.546875 406.761719 510.769531 399.699219 502.757812 388.921875 C 490.332031 372.199219 484.980469 353.121094 484.644531 330.941406"/></g><g><path fill="#edcaae" d="M 700.265625 402.039062 C 683.40625 408.441406 669.175781 402.898438 656.714844 391.671875 C 645.390625 381.46875 639.589844 367.878906 635.820312 353.421875 C 633.9375 346.199219 631.761719 338.949219 632.867188 331.300781 C 634.414062 332.761719 636.066406 334.121094 637.480469 335.691406 C 639.976562 338.46875 642.941406 339.609375 646.707031 339.53125 C 653.300781 339.371094 659.515625 334.71875 662.652344 327.089844 C 668.203125 313.609375 667.464844 300.070312 663.035156 286.5 C 669.828125 282.039062 670.886719 275.808594 669.023438 267.378906 C 666.839844 273.171875 666.628906 278.648438 661.476562 281.390625 C 657.3125 279.078125 654.484375 274.171875 648.777344 274.859375 C 656.949219 262.429688 668.351562 255.070312 683.070312 252.71875 C 687.957031 251.941406 692.578125 252.730469 697.210938 254.011719 C 704.011719 265.949219 704.808594 279 704.226562 292.269531 C 703.621094 305.980469 701.53125 319.519531 699.1875 333.019531 C 696.804688 346.75 697.046875 360.191406 703.1875 373.050781 C 704.429688 382.941406 702.957031 392.550781 700.265625 402.039062"/></g><g><path fill="#191513" d="M 703.1875 373.050781 C 697.046875 360.191406 696.804688 346.75 699.1875 333.019531 C 701.53125 319.519531 703.621094 305.980469 704.226562 292.269531 C 704.808594 279 704.011719 265.949219 697.210938 254.011719 C 715.332031 259.109375 726.390625 271.449219 732.703125 288.648438 C 732.066406 291.519531 731.40625 294.390625 730.808594 297.269531 C 725.300781 323.878906 716.550781 349.300781 703.1875 373.050781"/></g><g><path fill="#ffffff" d="M 663.035156 286.5 C 667.464844 300.070312 668.203125 313.609375 662.652344 327.089844 C 659.515625 334.71875 653.300781 339.371094 646.707031 339.53125 C 642.941406 339.609375 639.976562 338.46875 637.480469 335.691406 C 636.066406 334.121094 634.414062 332.761719 632.867188 331.300781 C 632.382812 326.96875 632.15625 322.648438 633.015625 318.328125 C 634.367188 317.300781 634.1875 316.039062 633.523438 314.710938 C 633.769531 313.25 634.019531 311.789062 634.265625 310.328125 C 635.171875 309.78125 636.074219 309.230469 636.984375 308.679688 C 637.4375 312.148438 638.257812 315.519531 640.074219 318.550781 C 644.304688 325.589844 651.078125 325.671875 655.035156 318.5 C 658.550781 312.148438 659.105469 305.359375 656.953125 298.320312 C 655.554688 293.761719 653.601562 289.511719 648.609375 288.441406 C 643.898438 287.441406 641.601562 291.421875 639.070312 294.5 C 640.800781 287.210938 644.207031 280.75 648.777344 274.859375 C 654.484375 274.171875 657.3125 279.078125 661.480469 281.390625 C 660.949219 283.410156 660.957031 285.269531 663.035156 286.5"/></g><g><path fill="#191513" d="M 645.46875 304.960938 C 647.714844 305 650.046875 302.851562 650.273438 300.53125 C 650.550781 297.699219 648.417969 295.351562 645.535156 295.390625 C 642.730469 295.429688 641.105469 297.050781 640.644531 299.671875 C 640.207031 302.121094 642.898438 304.910156 645.46875 304.960938 Z M 639.070312 294.5 C 641.601562 291.421875 643.898438 287.441406 648.609375 288.441406 C 653.601562 289.511719 655.554688 293.761719 656.953125 298.320312 C 659.105469 305.359375 658.550781 312.148438 655.035156 318.5 C 651.078125 325.671875 644.304688 325.589844 640.074219 318.550781 C 638.257812 315.519531 637.4375 312.148438 636.984375 308.679688 C 637.078125 305.71875 637.171875 302.769531 637.261719 299.808594 C 637.144531 297.800781 637.617188 295.980469 639.070312 294.5"/></g><g><path fill="#edcaae" d="M 637.261719 299.808594 C 637.171875 302.769531 637.078125 305.71875 636.984375 308.679688 C 636.074219 309.230469 635.171875 309.78125 634.265625 310.328125 C 634.515625 306.609375 635.34375 303.050781 637.261719 299.808594"/></g><g><path fill="#edcaae" d="M 633.523438 314.710938 C 634.1875 316.039062 634.367188 317.300781 633.015625 318.328125 C 632.722656 317.058594 632.550781 315.808594 633.523438 314.710938"/></g><g><path fill="#edcaae" d="M 631.070312 366.960938 C 630.183594 366.519531 629.585938 365.871094 629.503906 364.828125 C 630.953125 364.859375 630.9375 365.960938 631.070312 366.960938"/></g><g><path fill="#ffffff" d="M 637.21875 550.878906 C 652.730469 582.78125 660.121094 616.960938 666.832031 652.28125 C 651.609375 648.691406 638.605469 643.949219 627.808594 633.71875 C 611.148438 617.941406 596.996094 600.078125 583.003906 582.039062 C 580.71875 579.089844 578.316406 576.238281 575.964844 573.339844 C 578.011719 570.789062 580.859375 571.960938 583.332031 571.941406 C 592.347656 571.859375 601.179688 570.558594 609.914062 568.429688 C 618.21875 568.53125 618.21875 568.53125 619.546875 562.210938 C 625.589844 558.671875 630.152344 552.828125 637.21875 550.878906"/></g><g><path fill="#524540" d="M 994.453125 589.25 C 995.539062 581.71875 998.90625 575.558594 1005.320312 571.238281 C 1004.171875 575.621094 1006.140625 578.140625 1010.191406 579.398438 C 1012.148438 580.011719 1014.121094 580.558594 1016.078125 581.140625 C 1015.910156 581.761719 1015.730469 582.378906 1015.550781 583 C 1008.140625 583.78125 1000.96875 585.398438 994.453125 589.25"/></g><g><path fill="#ffffff" d="M 1015.550781 583 C 1015.730469 582.378906 1015.910156 581.761719 1016.078125 581.140625 C 1016.960938 581.410156 1018.050781 581.289062 1018.398438 582.480469 C 1017.449219 582.648438 1016.5 582.820312 1015.550781 583"/></g><g><path fill="#524540" d="M 1008.660156 568.488281 C 1009.148438 567.941406 1009.648438 567.398438 1010.148438 566.859375 C 1009.660156 567.398438 1009.148438 567.949219 1008.660156 568.488281"/></g><g><path fill="#f5819a" d="M 666.386719 565.339844 C 664.945312 564.679688 664.738281 563.398438 664.726562 562.03125 C 665.953125 562.789062 666.8125 563.738281 666.386719 565.339844"/></g><g><path fill="#ffffff" d="M 514.09375 300.789062 C 514.207031 305.621094 514.808594 310.640625 518.136719 314.851562 C 522.058594 319.808594 526.882812 319.808594 530.847656 314.941406 C 536.503906 307.988281 536.410156 293.109375 530.667969 286.359375 C 526.824219 281.839844 522.269531 281.730469 518.46875 286.230469 C 515.003906 290.320312 514.242188 295.320312 514.09375 300.789062 Z M 540.363281 281.558594 C 544.585938 294.140625 545.144531 306.738281 540.4375 319.328125 C 538.535156 324.421875 535.957031 329.03125 531.1875 332.089844 C 526.046875 335.378906 521.054688 335.5 516.292969 331.941406 C 513.046875 329.511719 510.382812 326.5 508.679688 322.71875 C 502.261719 308.488281 502.023438 294.300781 508.738281 280.101562 C 510.023438 277.378906 511.78125 275.070312 513.953125 273.011719 C 520.742188 266.589844 527.800781 266.601562 534.535156 273.160156 C 535.679688 274.269531 536.566406 275.640625 537.570312 276.898438 C 537.789062 278.878906 538.234375 280.71875 540.363281 281.558594"/></g><g><path fill="#524540" d="M 540.363281 281.558594 C 538.234375 280.71875 537.789062 278.878906 537.570312 276.898438 C 542.667969 273.808594 543.386719 268.171875 545.425781 263.210938 C 548.707031 270.398438 547.496094 274.699219 540.363281 281.558594"/></g><g><path fill="#191513" d="M 663.035156 286.5 C 660.957031 285.269531 660.949219 283.410156 661.480469 281.390625 C 666.628906 278.648438 666.839844 273.171875 669.023438 267.378906 C 670.886719 275.808594 669.828125 282.039062 663.035156 286.5"/></g><g><path fill="#e3e0df" d="M 645.46875 304.960938 C 642.898438 304.910156 640.207031 302.121094 640.644531 299.671875 C 641.105469 297.050781 642.730469 295.429688 645.535156 295.390625 C 648.417969 295.351562 650.550781 297.699219 650.273438 300.53125 C 650.046875 302.851562 647.714844 305 645.46875 304.960938"/></g><g><path fill="#191513" d="M 522.441406 289.859375 C 519.882812 289.929688 517.359375 292.71875 517.773438 295.238281 C 518.214844 297.929688 519.867188 299.46875 522.6875 299.398438 C 525.511719 299.328125 527.0625 297.640625 527.421875 295 C 527.757812 292.511719 524.984375 289.789062 522.441406 289.859375 Z M 514.09375 300.789062 C 514.242188 295.320312 515.003906 290.320312 518.46875 286.230469 C 522.269531 281.730469 526.824219 281.839844 530.667969 286.359375 C 536.410156 293.109375 536.503906 307.988281 530.847656 314.941406 C 526.882812 319.808594 522.058594 319.808594 518.136719 314.851562 C 514.808594 310.640625 514.207031 305.621094 514.09375 300.789062"/></g><g><path fill="#e3e0df" d="M 522.441406 289.859375 C 524.984375 289.789062 527.757812 292.511719 527.421875 295 C 527.0625 297.640625 525.511719 299.328125 522.6875 299.398438 C 519.867188 299.46875 518.214844 297.929688 517.773438 295.238281 C 517.359375 292.71875 519.882812 289.929688 522.441406 289.859375"/></g></g></svg>