<svg viewBox="0 0 96 96" xmlns="http://www.w3.org/2000/svg" xmlns:xlink="http://www.w3.org/1999/xlink" id="Icons_Tiger_M" overflow="hidden"><g id="Icons"><path d="M93.172 34.9 90.463 31.236 90.548 30.077C90.6491 28.7066 90.005 27.3878 88.862 26.625L85.179 24.17C84.1764 23.5007 82.9975 23.1446 81.792 23.147 81.703 23.1479 81.6145 23.161 81.529 23.186L81.123 23.3 78.461 20.64C78.08 20.2537 77.4595 20.2443 77.067 20.619 75.986 21.6955 75.5936 23.284 76.049 24.74L58.963 29.583C58.4555 29.7445 57.9283 29.8357 57.396 29.854L31.641 29.935 24.717 29.952C18.5152 29.9592 13.4896 34.9852 13.483 41.187L13.483 48.452C13.483 52.318 10.349 55.452 6.483 55.452L4.506 55.452C4.00351 55.4407 3.56523 55.7913 3.466 56.284 3.37322 56.8284 3.73935 57.345 4.28379 57.4378 4.33936 57.4473 4.39563 57.452 4.452 57.452L6.483 57.452C11.4536 57.452 15.483 53.4226 15.483 48.452L15.483 41.187C15.4896 36.0867 19.6247 31.9548 24.725 31.952L33.544 31.926C31.644 38.898 33.112 43.684 33.179 43.896 33.3098 44.3119 33.695 44.5952 34.131 44.596 34.2327 44.5958 34.3339 44.5803 34.431 44.55 34.9578 44.3848 35.251 43.8239 35.086 43.297 35.07 43.249 33.677 38.584 35.629 31.923L43.5 31.9C42.5946 34.4515 42.2753 37.1742 42.566 39.866 42.6473 40.3463 43.0629 40.698 43.55 40.699 43.6053 40.6991 43.6604 40.6947 43.715 40.686 44.2593 40.5961 44.628 40.0824 44.539 39.538 44.2991 36.9402 44.6696 34.3222 45.621 31.893L55.914 31.862C54.6589 35.8812 54.5515 40.1711 55.604 44.248 55.7553 44.7793 56.3087 45.0873 56.84 44.936 57.3713 44.7847 57.6793 44.2313 57.528 43.7 57.509 43.635 55.761 37.293 58.092 31.792 58.5831 31.7422 59.0684 31.6455 59.541 31.503L69.475 28.686C68.0458 31.7482 67.6377 35.1884 68.311 38.5 68.4167 38.9516 68.8192 39.2712 69.283 39.272 69.3594 39.2722 69.4356 39.2635 69.51 39.246 70.0481 39.1216 70.3835 38.5846 70.2591 38.0465 70.2591 38.0463 70.259 38.0462 70.259 38.046 70.245 37.985 68.929 31.986 72.414 27.851L77.754 26.337C78.2852 26.186 78.5935 25.6329 78.4425 25.1017 78.4087 24.983 78.3533 24.8715 78.279 24.773 77.8923 24.2558 77.765 23.5893 77.934 22.966 77.9375 22.961 77.9444 22.9598 77.9493 22.9633 77.9504 22.9641 77.9513 22.965 77.952 22.966L80.124 25.137C80.3801 25.393 80.7546 25.4905 81.103 25.392L81.933 25.157C82.6954 25.1811 83.4357 25.4185 84.07 25.842L87.753 28.298C88.296 28.6603 88.6018 29.287 88.553 29.938L88.44 31.466C88.4222 31.7054 88.491 31.9432 88.634 32.136L91.57 36.1C91.8622 36.4895 91.893 37.0161 91.648 37.437L89.532 37.668C88.9833 37.7308 88.5894 38.2265 88.6521 38.7752 88.6637 38.8763 88.6906 38.975 88.732 39.068L89.258 40.236C89.099 40.493 88.8681 40.6978 88.594 40.825 87.8921 41.0195 87.1408 40.9107 86.523 40.525L81.909 38.933C81.0967 38.6523 80.1988 38.7828 79.5 39.283L76.509 41.425C75.5934 42.0805 74.7868 42.8763 74.119 43.783 73.4594 44.6865 72.9958 45.7179 72.758 46.811L71.866 50.788C70.708 54.309 66.816 55.014 66.651 55.042 66.2302 55.115 65.9037 55.4496 65.841 55.872 65.825 55.928 65.816 56.981 65.816 57.028L65.816 69C65.816 69.5523 66.2637 70 66.816 70L67.816 70C68.3683 70 68.816 70.4477 68.816 71L68.816 72 63.816 72C62.7114 72 61.816 71.1046 61.816 70L61.816 56 61.816 56C61.931 55.5774 61.6816 55.1416 61.259 55.0266 61.1773 55.0044 61.0925 54.9954 61.008 55 59.222 55 57.554 55.019 55.995 55.036 54.845 55.047 53.769 55.058 52.74 55.062 50.053 50.674 49.427 44.22 49.422 44.153 49.372 43.6026 48.8854 43.197 48.335 43.247 47.7846 43.297 47.379 43.7836 47.429 44.334 47.8181 48.0526 48.8366 51.6779 50.441 55.055 43.571 54.977 39.594 54.255 36.608 50.389 36.2467 49.9977 35.6569 49.9214 35.208 50.208L35.113 50.292 30.928 54.473C27.16 49.443 27.728 40.373 27.728 40.282 27.7593 39.7306 27.3378 39.2582 26.7864 39.2269 26.2449 39.1961 25.7776 39.6025 25.733 40.143 25.704 40.559 25.084 50.305 29.492 55.903L23.966 61.424C23.1692 62.2261 22.8939 63.4096 23.255 64.481L24.533 68.316C24.6949 68.7053 25.0625 68.9699 25.483 69 26.2189 69.0016 26.8149 69.5981 26.816 70.334L26.816 71 22.206 71C21.7875 71.0001 21.4132 70.7395 21.268 70.347L18.468 62.781 19.782 57.6C19.8027 57.5193 19.8132 57.4363 19.813 57.353L19.813 42C19.868 39.4818 21.1115 37.1382 23.166 35.681 23.6302 35.3797 23.7623 34.7592 23.461 34.295 23.1597 33.8308 22.5392 33.6987 22.075 34 19.4579 35.8327 17.8741 38.8056 17.813 42L17.813 57.229 16.456 62.593C16.4065 62.7886 16.4173 62.9946 16.487 63.184L19.392 71.04C19.8302 72.2157 20.9513 72.9965 22.206 73L27.814 73C28.3663 73 28.814 72.5523 28.814 72L28.814 70.334C28.8103 68.7852 27.7408 67.4427 26.232 67.093L25.15 63.848C25.03 63.4933 25.1197 63.1012 25.382 62.834L35.746 52.48C39.406 56.538 44.237 57.064 51.97 57.064 53.236 57.064 54.583 57.05 56.013 57.036 57.213 57.023 58.486 57.011 59.813 57.005L59.813 70C59.813 72.2091 61.6039 74 63.813 74L69.813 74C70.3653 74 70.813 73.5523 70.813 73L70.813 71C70.813 69.3431 69.4699 68 67.813 68L67.813 56.814C69.3125 56.3754 70.6844 55.5824 71.813 54.502L71.813 69C71.813 69.5523 72.2607 70 72.813 70L73.813 70C74.3653 70 74.813 70.4477 74.813 71L74.813 72 72.979 72C72.4765 71.9887 72.0382 72.3393 71.939 72.832 71.8462 73.3764 72.2123 73.893 72.7568 73.9858 72.8124 73.9953 72.8686 74 72.925 74L75.813 74C76.3653 74 76.813 73.5523 76.813 73L76.813 71C76.813 69.3431 75.4699 68 73.813 68L73.813 51.216 74.706 47.254C74.8835 46.4313 75.231 45.6547 75.726 44.974 76.2692 44.2359 76.9256 43.5882 77.671 43.055L80.661 40.914C80.8331 40.7911 81.0539 40.7587 81.254 40.827L85.8 42.392C86.8989 42.9816 88.1949 43.0829 89.372 42.671 90.2382 42.2785 90.922 41.5703 91.284 40.691 91.4021 40.4294 91.4021 40.1296 91.284 39.868L91.121 39.506 92.271 39.38C92.5125 39.3525 92.7368 39.2414 92.905 39.066 94.0057 37.9316 94.1188 36.1656 93.172 34.9Z"/><path d="M33.216 67.088 31.316 61.788C31.1486 61.2873 30.6326 60.9915 30.116 61.1 29.58 61.2333 29.2536 61.7758 29.3869 62.3118 29.395 62.3443 29.4047 62.3764 29.416 62.408L31.538 68.34C31.6804 68.7378 32.0575 69.0032 32.48 69.003 33.2159 69.0046 33.8119 69.6011 33.813 70.337L33.813 71 30.957 71C30.4544 70.9882 30.0159 71.3391 29.917 71.832 29.8242 72.3764 30.1903 72.893 30.7348 72.9858 30.7894 72.9951 30.8446 72.9998 30.9 73L34.811 73C35.3633 73 35.811 72.5523 35.811 72L35.811 70.334C35.8079 68.7796 34.7316 67.4333 33.216 67.088Z"/><circle cx="85.312" cy="30.5" r="1.5"/></g></svg>