<svg viewBox="0 0 96 96" xmlns="http://www.w3.org/2000/svg" xmlns:xlink="http://www.w3.org/1999/xlink" id="Icons_Sparrow_M" overflow="hidden"><g id="Icons"><path d="M31.154 61.71C35.1632 63.6423 39.5244 64.7366 43.971 64.926 43.9899 64.9265 44.005 64.9421 44.005 64.961L44.005 72.961 42.005 72.961C41.4527 72.961 41.005 73.4087 41.005 73.961 41.005 74.5133 41.4527 74.961 42.005 74.961L44.591 74.961 48.3 78.668C48.6837 79.0653 49.3167 79.0763 49.714 78.6926 50.1113 78.3089 50.1223 77.6758 49.7386 77.2786 49.7305 77.2702 49.7223 77.262 49.714 77.254L47.421 74.961 53.007 74.961C53.5593 74.961 54.007 74.5133 54.007 73.961 54.007 73.4087 53.5593 72.961 53.007 72.961L46.007 72.961 46.007 64.961C46.007 64.943 46.007 64.911 46.007 64.911L48.642 64.819C49.7727 64.7068 50.8969 64.5362 52.01 64.308L52.01 67.961 50.01 67.961C49.4577 67.961 49.01 68.4087 49.01 68.961 49.01 69.5133 49.4577 69.961 50.01 69.961L52.596 69.961 56.3 73.668C56.6837 74.0653 57.3167 74.0763 57.714 73.6926 58.1113 73.3089 58.1223 72.6758 57.7386 72.2786 57.7305 72.2702 57.7223 72.262 57.714 72.254L55.421 69.961 61.007 69.961C61.5593 69.961 62.007 69.5133 62.007 68.961 62.007 68.4087 61.5593 67.961 61.007 67.961L54.007 67.961 54.007 63.8 56.64 63.043C69.3587 58.4587 78.0042 46.5917 78.469 33.08 80.1445 31.8107 81.3368 30.0077 81.849 27.969L86.849 27.969C85.3864 26.088 83.6544 24.4328 81.709 23.057 80.5384 19.146 76.9404 16.4663 72.858 16.465 66.388 16.465 60.128 24.017 57.438 29.019 44.399 31.7303 32.8472 39.2239 25.056 50.025L9.4 65.709C8.88085 66.2294 8.88189 67.0722 9.40231 67.5913 9.65126 67.8397 9.98837 67.9794 10.34 67.98L15.631 67.98 15.631 73.271C15.631 74.0055 16.2265 74.601 16.961 74.601L16.961 74.601C17.3132 74.5999 17.6507 74.4598 17.9 74.211L30.64 61.468ZM79.534 28.588C79.0394 29.7347 78.2563 30.7338 77.261 31.488L76.503 32.063 76.47 33.014C76.0713 45.6962 67.9629 56.8468 56.021 61.135L52.146 62.249C50.9451 62.5118 49.7296 62.7031 48.506 62.822L44.626 62.958C40.077 62.8419 35.6096 61.724 31.542 59.684 30.6961 59.1461 29.8809 58.5615 29.1 57.933 28.6641 57.5938 28.0358 57.6722 27.6967 58.1081 27.3642 58.5354 27.4321 59.1497 27.85 59.494 27.943 59.569 28.389 59.923 28.943 60.332L17.643 71.632C17.6391 71.6359 17.6327 71.6358 17.6289 71.6319 17.6271 71.63 17.626 71.6276 17.626 71.625L17.626 65.98 11.975 65.98C11.9695 65.9799 11.9651 65.9754 11.9651 65.9699 11.9652 65.9673 11.9662 65.9648 11.968 65.963L26.468 51.438 26.581 51.325 26.675 51.195C34.1858 40.7951 45.315 33.5807 57.875 30.97L58.753 30.787 59.195 29.966C61.587 25.52 67.41 18.466 72.854 18.466 75.8164 18.4522 78.4839 20.257 79.573 23.012 79.8687 23.8973 80.0042 24.8282 79.973 25.761 80.0121 26.7229 79.863 27.6832 79.534 28.588Z"/><circle cx="73.504" cy="24.461" r="1.5"/></g></svg>