<svg viewBox="0 0 96 96" xmlns="http://www.w3.org/2000/svg" xmlns:xlink="http://www.w3.org/1999/xlink" id="Icons_Gecko_M" overflow="hidden"><g id="Icons"><path d="M86.036 13.2119C85.239 13.021 84.4082 13.021 83.6112 13.2119L74.5829 15.3906C71.2341 16.1987 68.4848 18.58 67.207 21.7792L64.1943 29.3218 59.1991 28.1851 58.7616 23.7031 62.2294 18.0049 57.665 18.4512 55.0292 16.2793 52.8564 18.917 48.2919 19.3633 52.7909 24.2817 53.4385 30.9188C53.5639 32.2036 54.4973 33.264 55.7558 33.5513L59.3158 34.364C59.3318 34.3676 59.3327 34.3761 59.3177 34.3828L53.789 36.86C46.495 40.1388 40.3997 45.6024 36.3456 52.4956L35.9062 50.5713C35.6188 49.3128 34.5585 48.3794 33.2737 48.2539L26.6386 47.606 21.7177 43.1147 21.2734 47.6772 18.6366 49.85 20.8085 52.4872 20.3632 57.0522 26.0605 53.5854 30.5429 54.0229 32.2089 61.2958C30.9225 64.0495 28.4767 66.0874 25.536 66.8558 22.33 67.638 17.8681 67.9368 14.836 64.9051 8.877 58.951 15.096 44.5272 24.5479 34.0237 25.4382 33.0296 25.354 31.5019 24.3599 30.6116 23.379 29.7331 21.8753 29.8017 20.9785 30.7659 8.3905 44.3511 0.1816 62.55 10.2157 72.583 16.6474 79.0156 28.3251 78.7041 39.9687 71.7891 40.4688 71.4882 40.987 71.2185 41.5204 70.9814 41.6863 70.9072 41.872 70.8899 42.0487 70.9321L49.0546 72.5313 49.4921 77.0142 46.0253 82.71 50.5907 82.2652 53.2265 84.4376 55.3993 81.8 59.9618 81.3557 55.4687 76.4313 54.8212 69.7951C54.6959 68.5103 53.7623 67.45 52.5038 67.1628L50.578 66.7233C57.4696 62.6687 62.9316 56.5734 66.2089 49.28L68.6869 43.752C68.6936 43.7371 68.7021 43.7379 68.7058 43.7539L69.5194 47.3117C69.8074 48.571 70.8687 49.5048 72.1544 49.6303L78.788 50.2775 83.7069 54.778 84.1523 50.2136 86.79 48.0405 84.6171 45.4053 85.0644 40.8403 79.3661 44.3071 74.8837 43.87 73.7437 38.88 81.2886 35.8619C84.4863 34.5822 86.8668 31.8339 87.6773 28.4864L89.8564 19.46C90.524 16.6801 88.8147 13.8846 86.036 13.2119ZM87.913 18.99 85.7343 28.0169C85.0757 30.7344 83.1429 32.9653 80.5468 34.0042L71.4219 37.655C71.4173 37.6568 71.4148 37.6617 71.4159 37.6665L73.2548 45.72 79.8348 46.3626 82.6834 44.6292 82.5467 46.0369 83.9734 47.7688 82.242 49.1961 82.1053 50.6014 79.6453 48.3519 72.347 47.64C71.9184 47.5982 71.5646 47.2868 71.4687 46.867L69.6846 39.06C69.6824 39.05 69.6746 39.0482 69.6678 39.0552L67.7314 40.9945 64.3847 48.4623C60.928 56.1752 54.9 62.4481 47.3308 66.2091L44.8153 67.4591 52.0585 69.1134C52.478 69.2093 52.7892 69.5628 52.831 69.9911L53.5429 77.2882 55.7919 79.7525 54.3819 79.8902 52.955 81.6226 51.2216 80.1943 49.8144 80.3315 51.5468 77.4839 50.9042 70.9023 42.4931 68.9823C41.8975 68.8468 41.2742 68.906 40.7148 69.1513 40.1054 69.4214 39.5135 69.7291 38.9423 70.0727 28.2823 76.4032 17.3066 76.8446 11.6298 71.1693 2.536 62.0767 10.51 45.0073 22.4472 32.1221 22.522 32.041 22.6269 31.9943 22.7372 31.9932 22.8538 31.9914 22.9663 32.0362 23.0497 32.1177 23.2042 32.273 23.2098 32.5221 23.0624 32.6841 12.8739 44.0041 6.2909 59.1934 13.4218 66.3188 16.3007 69.1973 20.7724 70.0776 26.0224 68.7949 29.6768 67.8443 32.6869 65.2584 34.1777 61.7891L34.3046 61.4902 32.1718 52.1719 25.5898 51.5293 22.7421 53.2627 22.8788 51.855 21.4511 50.1221 23.1835 48.6948 23.3212 47.2856 25.7812 49.5317 33.0794 50.2442C33.5076 50.2861 33.861 50.5972 33.9569 51.0166L35.6112 58.26 36.8573 55.75C40.6171 48.1761 46.8917 42.1438 54.6079 38.6853L62.0751 35.3384 64.0125 33.4005C64.0196 33.3935 64.0174 33.3859 64.0077 33.3837L56.2011 31.6016C55.7816 31.5059 55.4705 31.1524 55.4288 30.7242L54.7167 23.4242 52.4677 20.9647 53.8739 20.827 55.3007 19.0946 57.0341 20.5224 58.4403 20.3847 56.7069 23.2333 57.3495 29.8148 65.4086 31.65C65.4134 31.6511 65.4183 31.6485 65.4201 31.6439L69.0648 22.52C70.1021 19.9234 72.3336 17.9906 75.0517 17.3346L84.078 15.1559C85.7843 14.7443 87.5013 15.7939 87.9128 17.5003 88.0309 17.9898 88.031 18.5004 87.913 18.99Z"/><circle cx="73.5038" cy="20.5" r="1.5"/><circle cx="82.5038" cy="29.5" r="1.5"/></g></svg>