<svg viewBox="0 0 96 96" xmlns="http://www.w3.org/2000/svg" xmlns:xlink="http://www.w3.org/1999/xlink" id="Icons_Crocodile_M" overflow="hidden"><style>
.MsftOfcThm_Text1_Fill_v2 {
 fill:#000000; 
}
</style>
<g id="Icons"><path d="M90.9 47.0542 77.09 47.0542 79.9189 45.0042 82.006 46.2836 81.4487 43.8953 82.8481 42.8812 84.881 44.1274 84.3383 41.8012 85.941 40.6395 87.9029 41.8421 87.379 39.5972 88.8469 38.5335 90.7779 39.7171 90.2623 37.5076 91.9623 36.2757C92.7242 35.7802 92.9928 34.7917 92.5864 33.9788L92.1459 33.0988C91.2097 31.231 89.037 30.3428 87.0605 31.02L69.3905 36.873 69.375 36.8512C68.2537 35.2486 66.481 34.224 64.5327 34.0523 62.2996 33.8608 60.1265 34.8394 58.79 36.6387 44.8857 26.5239 24.8085 30.4277 11.8056 38.4912 10.9179 39.0293 10.0487 39.6128 9.1777 40.2544L9.0683 40.3311C9.03652 40.3541 9.00619 40.379 8.9775 40.4058 4.4159 43.8481 2.0058 47.6758 2.0058 51.479 2.0058 60.916 11.2987 71 37.3808 71L50.9708 71C52.5384 71.0208 53.8578 69.8313 53.999 68.27 54.1079 66.6529 52.8853 65.2537 51.2682 65.1448 51.2036 65.1405 51.1389 65.1383 51.0741 65.1382L41.1835 65.1382C27.1503 65.1382 17.4667 60.6482 14.9081 53.0547L25.0048 53.0547 25.0048 57C25.0048 59.7614 27.2434 62 30.0048 62L40.9586 62C41.2619 62.0073 41.5535 61.8828 41.758 61.6587 42.0701 61.3007 42.088 60.7727 41.8007 60.3945L40.286 58.4028 41.7489 56.6694C41.9333 56.4595 42.0246 56.1838 42.0019 55.9054 41.9519 55.3921 41.5206 55.0004 41.0048 55L34.2948 55C34.5422 54.6623 34.7615 54.3048 34.9504 53.9312 36.9532 49.9813 35.3748 45.1557 31.4249 43.1528 31.422 43.1513 31.4191 43.1499 31.4162 43.1484L31.3173 43.1C30.8477 42.8768 30.2859 43.0697 30.0524 43.5342 29.7928 44.0471 29.9981 44.6733 30.5109 44.9329 30.5167 44.9358 30.5224 44.9386 30.5282 44.9414 33.4904 46.4501 34.6695 50.0741 33.162 53.037 32.7448 53.8803 32.1292 54.6099 31.3681 55.163 30.9447 55.4569 30.8034 56.0183 31.0372 56.4776 31.2122 56.8003 31.5501 57.0011 31.9172 57.0004 31.9341 57.0004 31.9504 56.9936 31.9672 56.9927 31.9805 56.9933 31.9918 57.0004 32.0052 57.0004L38.8452 57.0004 38.8477 57.0059 38.2401 57.7259C37.9383 58.0838 37.9252 58.6032 38.2086 58.9759L38.984 59.9947 38.9815 60 30.0048 60C28.3479 60 27.0048 58.6569 27.0048 57L27.0048 49.0562C27.0159 48.5101 26.6017 48.0489 26.0576 48.0014 25.5061 47.9722 25.0354 48.3957 25.0062 48.9472 25.0053 48.9648 25.0048 48.9824 25.0048 49L25.0048 51.0542 14.4181 51.0542C14.3588 50.7008 14.4272 50.3378 14.6112 50.0303 14.9398 49.6877 15.387 49.4837 15.8612 49.4603 16.4134 49.4494 16.8521 48.9929 16.8412 48.4407 16.8412 48.4406 16.8412 48.4404 16.8412 48.4403 16.8429 47.9003 16.4065 47.4611 15.8665 47.4594 15.8516 47.4594 15.8366 47.4597 15.8217 47.4603 14.7292 47.4904 13.7031 47.9912 13.0072 48.8339 12.3413 49.851 12.1957 51.1232 12.6147 52.2645L12.6147 52.2763 12.6221 52.3017C12.6247 52.3109 12.6247 52.3189 12.6273 52.328L12.6337 52.3413C14.7875 61.6068 25.4502 67.1376 41.183 67.1376L51.038 67.1376C51.4916 67.1293 51.8885 67.441 51.988 67.8836 52.0894 68.3887 51.7621 68.8804 51.257 68.9818 51.1968 68.9939 51.1355 69 51.0741 69L37.3808 69C12.747 69 4.0058 59.5615 4.0058 51.479 4.0058 47.4727 7.4052 44.0835 10.2568 41.9463 10.2753 41.9321 10.2939 41.9175 10.3114 41.9023 10.33 41.8896 10.4014 41.8398 10.4101 41.833 11.1894 41.2568 12.0077 40.7075 12.8515 40.1958 25.5515 32.3198 45.2187 28.5342 58.3896 38.8418 58.8246 39.1821 59.4531 39.1054 59.7934 38.6704 59.8024 38.6589 59.8111 38.6472 59.8196 38.6353L60.2448 38.0399C61.1277 36.7701 62.5813 36.0191 64.1278 36.0338 65.5469 36.0638 66.8675 36.766 67.6858 37.9258L68.1926 38.6353C68.4478 38.9912 68.9045 39.1403 69.3205 39.0034L87.7033 32.9134C88.7332 32.5576 89.8674 33.0189 90.3567 33.9925L90.716 34.7102 73.4189 47.2446C73.01 47.5413 72.8863 48.0962 73.1304 48.5385 73.3231 48.8658 73.6778 49.0631 74.0575 49.0542L90.9664 49.0542C91.4531 49.0453 91.8791 49.3794 91.9864 49.8542 92.096 50.3964 91.7453 50.9248 91.203 51.0344 91.1381 51.0475 91.0721 51.0541 91.0059 51.0542L62.0611 51.0542C61.5155 51.0432 61.0546 51.4565 61.0062 52 60.9764 52.5515 61.3993 53.0227 61.9507 53.0525 61.9687 53.0535 61.9868 53.054 62.0048 53.054L91.0058 53.054C92.6644 53.0522 94.0075 51.7061 94.0057 50.0475 94.0056 49.9812 94.0034 49.9149 93.9989 49.8488 93.8547 48.2507 92.5045 47.033 90.9 47.0542Z" class="MsftOfcThm_Text1_Fill_v2"/><path d="M64.286 58.4028 65.7489 56.6694C65.9333 56.4595 66.0246 56.1838 66.0019 55.9054 65.9519 55.3921 65.5206 55.0004 65.0048 55L58.2948 55C58.5422 54.6623 58.7615 54.3048 58.9504 53.9312 60.9532 49.9813 59.3748 45.1557 55.4249 43.1528 55.422 43.1513 55.4191 43.1499 55.4162 43.1484L55.3173 43.1C54.8477 42.8766 54.2858 43.0695 54.0524 43.5342 53.7927 44.0469 53.9979 44.673 54.5106 44.9327 54.5164 44.9356 54.5223 44.9385 54.5282 44.9414 57.4904 46.4501 58.6694 50.0741 57.162 53.037 56.7448 53.8803 56.1292 54.6099 55.3681 55.163 54.9447 55.4569 54.8034 56.0183 55.0372 56.4776 55.2122 56.8003 55.5501 57.0011 55.9172 57.0004 55.9341 57.0004 55.9504 56.9936 55.9672 56.9927 55.9805 56.9933 55.9918 57.0004 56.0052 57.0004L62.8452 57.0004 62.8477 57.0059 62.2401 57.7259C61.9383 58.0838 61.9252 58.6032 62.2086 58.9759L62.984 59.9947 62.9815 60 54.0048 60C52.3479 60 51.0048 58.6569 51.0048 57L51.0048 49.0562C51.0159 48.5101 50.6017 48.0489 50.0576 48.0014 49.5061 47.9722 49.0354 48.3957 49.0062 48.9472 49.0053 48.9648 49.0048 48.9824 49.0048 49L49.0048 51.0542 38.0611 51.0542C37.5155 51.0432 37.0546 51.4565 37.0062 52 36.9764 52.5515 37.3993 53.0227 37.9507 53.0525 37.9687 53.0535 37.9868 53.054 38.0048 53.054L49.0048 53.054 49.0048 57C49.0048 59.7614 51.2434 62 54.0048 62L64.9586 62C65.2619 62.0073 65.5535 61.8828 65.758 61.6587 66.0702 61.3007 66.088 60.7727 65.8007 60.3945Z" class="MsftOfcThm_Text1_Fill_v2"/><ellipse cx="64.0028" cy="40" rx="1.4821" ry="1.5088" class="MsftOfcThm_Text1_Fill_v2" transform="matrix(0.707107 -0.707107 0.707107 0.707107 -9.5383 56.9726)"/></g></svg>