<svg viewBox="0 0 96 96" xmlns="http://www.w3.org/2000/svg" xmlns:xlink="http://www.w3.org/1999/xlink" id="Icons_Cow_M" overflow="hidden"><style>
.MsftOfcThm_Background1_Fill_v2 {
 fill:#FFFFFF; 
}
</style>
<g id="Icons"><path d="M16.005 63C15.4527 63 15.005 63.4477 15.005 64L15.005 73C15.0053 73.2648 15.1107 73.5188 15.298 73.706L16.125 74.534C16.6857 75.0966 17.0004 75.8587 17 76.653L17 77 12.417 77 11.005 75.585 11.005 35C11.005 34.4477 10.5573 34 10.005 34 9.45271 34 9.005 34.4477 9.005 35L9.005 76C9.00743 76.2631 9.11342 76.5145 9.3 76.7L11.3 78.7C11.4846 78.8884 11.7362 78.9962 12 79L18 79C18.5523 79 19 78.5523 19 78L19 76.654C19.0008 75.3291 18.4757 74.058 17.54 73.12L17.005 72.583 17.005 65 26.205 65C28.5802 64.9974 30.6269 63.3266 31.105 61L52.005 61 52.005 76C52.0051 76.2652 52.1105 76.5195 52.298 76.707L54.298 78.707C54.4843 78.8933 54.7365 78.9986 55 79L61 79C61.5523 79 62 78.5523 62 78L62 76.654C62.0002 75.3288 61.4744 74.0577 60.538 73.12L60.003 72.583 60.003 61 64.003 61 64.003 73C64.0031 73.2652 64.1085 73.5195 64.296 73.707L65.123 74.536C65.6839 75.0978 65.9993 75.8591 66 76.653L66 77 64 77C63.4477 77 63 77.4477 63 78 63 78.5523 63.4477 79 64 79L67 79C67.5523 79 68 78.5523 68 78L68 76.652C68 75.3276 67.4745 74.0574 66.539 73.12L66.003 72.584 66.003 61 66.467 60.967C70.4427 59.8479 73.1959 56.2302 73.215 52.1 73.215 48.953 75.792 44.1 79.215 44.1 81.6439 44.2791 84.0043 44.987 86.131 46.174 87.5047 46.9167 89.2189 46.4682 90.053 45.148L92.153 41.954C92.9752 40.7982 92.9043 39.2308 91.981 38.154L83.881 28.649C82.9166 27.5202 81.7268 26.6056 80.388 25.964 82.9875 25.7692 84.9992 23.6067 85.006 21L85.006 19C85.006 18.4477 84.5583 18 84.006 18 83.4537 18 83.006 18.4477 83.006 19L83.006 21C83.006 22.6569 81.6628 24 80.006 24L74.006 24C72.3491 24 71.006 22.6569 71.006 21L71.006 19C71.006 18.4477 70.5583 18 70.006 18 69.4537 18 69.006 18.4477 69.006 19L69.006 21C69.0118 22.5241 69.7161 23.9614 70.917 24.9L14.207 24.9C11.4582 24.7788 9.13156 26.9088 9.01032 29.6576 9.00529 29.7717 9.00418 29.8859 9.007 30L9.007 30C6.24672 30.0028 4.00976 32.2397 4.007 35L4.007 57C4.007 57.5523 4.45472 58 5.007 58 5.55928 58 6.007 57.5523 6.007 57L6.007 35C6.007 33.3431 7.35015 32 9.007 32L10.007 32C10.5593 32 11.007 31.5523 11.007 31L11.007 31 11.007 30C10.958 28.3345 12.2685 26.9446 13.9341 26.8957 14.0251 26.893 14.1161 26.8944 14.207 26.9L75.757 26.9C78.2951 26.8996 80.7057 28.0122 82.352 29.944L90.458 39.451C90.8003 39.8517 90.8104 40.4388 90.482 40.851L88.382 44.045C88.1222 44.5023 87.544 44.6672 87.082 44.416 84.6632 43.0726 81.9769 42.2817 79.216 42.1 74.406 42.1 71.216 48.119 71.216 52.1 71.1716 54.8954 69.5536 57.4264 67.035 58.64 66.5104 58.8809 65.9393 59.0038 65.362 59L59.052 59C58.4923 58.992 58.0282 59.4316 58.006 59.991L58.006 73C58.0061 73.2647 58.1111 73.5186 58.298 73.706L59.125 74.534C59.6857 75.0966 60.0004 75.8587 60 76.653L60 77 55.417 77 54.005 75.585 54.005 60.009C54.0056 59.4552 53.5588 59.0048 53.005 59.001L29.21 59.001 29.21 60.001C29.21 61.6579 27.8669 63.001 26.21 63.001L16.01 63.001Z" class="MsftOfcThm_Background1_Fill_v2" fill="#FFFFFF"/><path d="M23.006 72.583 23.006 68C23.006 67.4477 22.5583 67 22.006 67 21.4537 67 21.006 67.4477 21.006 68L21.006 73C21.0061 73.2647 21.1111 73.5186 21.298 73.706L22.125 74.535C22.6874 75.0957 23.0024 75.8579 23 76.652L23 77 21 77C20.4477 77 20 77.4477 20 78 20 78.5523 20.4477 79 21 79L24 79C24.5523 79 25 78.5523 25 78L25 76.652C25.0035 75.3269 24.4775 74.0554 23.539 73.12Z" class="MsftOfcThm_Background1_Fill_v2" fill="#FFFFFF"/><circle cx="80.504" cy="33.5" r="1.5" class="MsftOfcThm_Background1_Fill_v2" fill="#FFFFFF"/></g></svg>